<svg xmlns="http://www.w3.org/2000/svg" xmlns:xlink="http://www.w3.org/1999/xlink" version="1.1" x="0px" y="0px" viewBox="0 0 146.352 296.2375" style="enable-background:new 0 0 146.352 236.99;" xml:space="preserve"><g><path d="M53.459,158.484c-2.501-1.116-5.163-2.308-7.789-3.705l-5.607,68.844c-0.555,6.807,4.515,12.771,11.318,13.326   c6.806,0.555,12.773-4.512,13.328-11.318l4.545-55.79c-2.145-1.915-4.908-4.437-7.109-6.628   C60.587,161.662,57.124,160.119,53.459,158.484z"/><path d="M46.799,140.919c6.203,4.906,16.486,9.816,23.754,12.97l1.575-19.34h6.259l1.855,22.78c2.644,0.381,5.351,0.663,8.08,0.831   c2.316,0.143,4.726,0.213,7.162,0.213c3.055,0,6.23-0.117,9.625-0.345l-1.516-18.612L48.211,91.647v31.932L46.799,140.919z"/><path d="M95.844,168.962l-0.508,0.59l-0.766,0.139l-13.128,2.376l4.363,53.564c0.554,6.807,6.522,11.873,13.328,11.318   c6.804-0.555,11.873-6.52,11.318-13.326l-4.66-57.22c-2.812,0.186-5.469,0.304-8.039,0.345L95.844,168.962z"/><circle cx="75.257" cy="22.5" r="22.5"/><path d="M6.703,50.298c-1.856-3.367-3.246-5.732-3.253-5.746L0,46.579c0.006,0.01,2.713,4.613,5.594,10.098   c2.877,5.439,5.925,11.935,6.48,14.933c0.286,1.371,0.396,5.443,0.761,10.754c0.223,3.16,0.556,6.818,1.107,10.791l-2.555,2.963   l-0.646,20.406c0,0,6.272,5.411,10.934,8.883c0.49,0.366,0.978,0.834,1.469,1.369c-0.057-2.394-0.095-4.756-0.096-7.043   c0-2.258,0.035-4.457,0.092-6.617c-0.428-0.732-0.77-1.327-1.002-1.735c-3.576-10.932-4.773-21.543-5.313-29.299   c-0.381-5.285-0.422-9.08-0.825-11.238c-0.804-3.969-3.784-10.101-6.656-15.627l21.89,18.88c-0.257,0.73-0.507,1.484-0.75,2.258   c-0.803,2.548-1.531,5.327-2.173,8.376c-0.425,2.022-0.816,4.151-1.161,6.411h-0.002c-1.201,7.873-1.899,17.276-1.901,28.588   c0.002,5.855,0.188,12.225,0.596,19.162c0.25,4.252,3.776,7.531,7.983,7.531c0.157,0,0.314-0.004,0.474-0.014   c4.41-0.258,7.774-4.047,7.516-8.457c-0.392-6.648-0.568-12.707-0.566-18.223c-0.002-10.648,0.661-19.264,1.716-26.17   c0-0.002,0.001-0.004,0.002-0.006c0.453-2.986,0.982-5.632,1.557-7.997l90.412,77.983c-5.888-2.027-12.391-4.078-16.435-4.291   c-2.193-0.08-5.952,0.434-11.237,0.834c-5.244,0.408-11.838,0.715-19.074,0.271c-3.449-0.215-7.045-0.605-10.701-1.229   c-4.037-1.566-24.1-9.576-33.215-17.438c-0.205-0.178-0.413-0.366-0.621-0.555c-0.742,2.683-2.559,4.939-4.98,6.255   c0.129,0.115,0.246,0.243,0.377,0.356c8.266,7.129,20.532,9.805,24.649,13.906c4.118,4.1,10.392,9.51,10.392,9.51l20.09-3.637   l2.557-2.965c4.014-0.037,7.68-0.246,10.834-0.486c5.308-0.418,9.351-0.906,10.752-0.826c3.047,0.105,9.918,2.17,15.721,4.217   c5.847,2.043,10.798,4.044,10.811,4.049l1.5-3.711c-0.016-0.004-2.561-1.031-6.166-2.373L45.08,83.399   c0.223-0.812,0.453-1.579,0.685-2.313c0.787-2.482,1.618-4.54,2.445-6.234v8.343l54.643,47.129l-0.551-6.756V74.862   c0.593,1.215,1.19,2.61,1.78,4.236c2.817,7.812,5.188,20.631,5.18,40.639c0,4.811-0.145,10.065-0.437,15.739l11.609,10.013   c2.382-1.268,4.068-3.707,4.236-6.6c0.402-6.931,0.59-13.297,0.59-19.152c-0.039-30.183-4.861-46.888-11.434-56.932   c-3.285-4.986-7.128-8.183-10.678-9.955c-3.419-1.724-6.422-2.111-8.225-2.134c-0.117-0.005-0.232-0.018-0.352-0.018H55.939   c-0.096,0-0.189,0.011-0.284,0.014c-2.914-0.04-9.359,1.204-15.096,7.225c-2.832,2.945-5.454,6.846-7.704,12.013   c-0.301,0.691-0.596,1.405-0.883,2.143L6.703,50.298z"/><path d="M12.93,141.07l-5.49-4.736l-3.102,3.596l16.66,14.371l3.102-3.598l-9.277-8l8.517-9.874   c-0.052-1.228-0.103-2.457-0.14-3.665L12.93,141.07z"/><polygon points="112.008,17.61 110.347,21.177 108.192,14.455 105.8,19.592 107.955,26.314 106.865,28.654 104.71,21.934    102.317,27.07 104.473,33.792 97.654,48.433 100.828,49.909 107.645,35.27 114.177,32.593 116.569,27.456 110.037,30.133    111.128,27.792 117.658,25.115 120.052,19.977 113.519,22.655 115.181,19.088  "/><polygon points="121.508,29.273 117.958,33.691 118.446,40.731 108.33,53.323 111.06,55.514 121.175,42.925 128.156,41.885    131.706,37.467 124.724,38.508 126.342,36.494 133.322,35.454 136.873,31.036 129.89,32.077 132.354,29.01 129.626,26.817    127.162,29.883 126.675,22.842 123.125,27.26 123.612,34.302 121.996,36.313  "/></g><text x="0" y="251.99" fill="#000000" font-size="5px" font-weight="bold" font-family="'Helvetica Neue', Helvetica, Arial-Unicode, Arial, Sans-serif"></text><text x="0" y="256.99" fill="#000000" font-size="5px" font-weight="bold" font-family="'Helvetica Neue', Helvetica, Arial-Unicode, Arial, Sans-serif"></text></svg>