<?xml version="1.0" encoding="UTF-8"?>
<svg width="700pt" height="700pt" version="1.1" viewBox="0 0 700 700" xmlns="http://www.w3.org/2000/svg" xmlns:xlink="http://www.w3.org/1999/xlink">
 <defs>
  <symbol id="g" overflow="visible">
   <path d="m2.4531-0.14062c-0.125 0.0625-0.25781 0.10938-0.39062 0.14062-0.13672 0.03125-0.27734 0.046875-0.42188 0.046875-0.44922 0-0.80469-0.125-1.0625-0.375-0.26172-0.25-0.39062-0.58203-0.39062-1 0-0.4375 0.12891-0.77344 0.39062-1.0156 0.25781-0.25 0.61328-0.375 1.0625-0.375 0.14453 0 0.28516 0.015625 0.42188 0.046875 0.13281 0.03125 0.26562 0.078125 0.39062 0.14062v0.5625c-0.125-0.09375-0.25-0.15625-0.375-0.1875-0.125-0.039062-0.25781-0.0625-0.39062-0.0625-0.25 0-0.44922 0.078125-0.59375 0.23438-0.13672 0.15625-0.20312 0.375-0.20312 0.65625 0 0.27344 0.066406 0.48438 0.20312 0.64062 0.14453 0.15625 0.34375 0.23438 0.59375 0.23438 0.13281 0 0.26562-0.015625 0.39062-0.046875 0.125-0.039062 0.25-0.10938 0.375-0.20312z"/>
  </symbol>
  <symbol id="b" overflow="visible">
   <path d="m1.7969-1.4688c-0.054687-0.019531-0.10938-0.035156-0.17188-0.046875-0.054688-0.007813-0.10547-0.015625-0.15625-0.015625-0.16797 0-0.29688 0.054688-0.39062 0.15625-0.085937 0.10547-0.125 0.25781-0.125 0.45312v0.92188h-0.64062v-2.0156h0.64062v0.34375c0.082031-0.13281 0.17578-0.23438 0.28125-0.29688 0.10156-0.0625 0.23438-0.09375 0.39062-0.09375 0.019531 0 0.039062 0.007812 0.0625 0.015625h0.10938z"/>
  </symbol>
  <symbol id="a" overflow="visible">
   <path d="m2.3125-1.0156v0.1875h-1.5c0.007812 0.15625 0.0625 0.27344 0.15625 0.34375 0.09375 0.074219 0.22266 0.10938 0.39062 0.10938 0.13281 0 0.27344-0.019531 0.42188-0.0625 0.14453-0.039062 0.28906-0.097656 0.4375-0.17188v0.48438c-0.15625 0.0625-0.3125 0.10547-0.46875 0.125-0.14844 0.03125-0.29297 0.046875-0.4375 0.046875-0.36719 0-0.65234-0.085938-0.85938-0.26562-0.19922-0.1875-0.29688-0.44531-0.29688-0.78125 0-0.33203 0.097656-0.59375 0.29688-0.78125 0.19531-0.1875 0.46875-0.28125 0.8125-0.28125 0.32031 0 0.57812 0.10156 0.76562 0.29688 0.1875 0.1875 0.28125 0.4375 0.28125 0.75zm-0.65625-0.20312c0-0.125-0.039062-0.22266-0.10938-0.29688-0.074219-0.070313-0.16797-0.10938-0.28125-0.10938-0.125 0-0.23047 0.039062-0.3125 0.10938-0.074219 0.0625-0.12109 0.16406-0.14062 0.29688z"/>
  </symbol>
  <symbol id="e" overflow="visible">
   <path d="m1.2031-0.90625c-0.13672 0-0.23438 0.027344-0.29688 0.078125-0.0625 0.042969-0.09375 0.10547-0.09375 0.1875 0 0.085937 0.023438 0.15234 0.078125 0.20312 0.050781 0.042969 0.125 0.0625 0.21875 0.0625 0.125 0 0.22656-0.039062 0.3125-0.125 0.082031-0.09375 0.125-0.20312 0.125-0.32812v-0.078125zm0.98438-0.23438v1.1406h-0.64062v-0.29688c-0.09375 0.125-0.19531 0.21484-0.29688 0.26562-0.10547 0.050781-0.23438 0.078125-0.39062 0.078125-0.21094 0-0.38281-0.054688-0.51562-0.17188-0.125-0.125-0.1875-0.28516-0.1875-0.48438 0-0.22656 0.078125-0.39453 0.23438-0.5 0.16406-0.11328 0.42188-0.17188 0.76562-0.17188h0.39062v-0.046875c0-0.10156-0.042969-0.17578-0.125-0.21875-0.085937-0.050781-0.21094-0.078125-0.375-0.078125-0.13672 0-0.26562 0.015625-0.39062 0.046875-0.11719 0.023437-0.22656 0.058594-0.32812 0.10938v-0.48438c0.14453-0.03125 0.28516-0.054687 0.42188-0.078125 0.13281-0.019531 0.26953-0.03125 0.40625-0.03125 0.36328 0 0.625 0.074219 0.78125 0.21875 0.16406 0.14844 0.25 0.38281 0.25 0.70312z"/>
  </symbol>
  <symbol id="d" overflow="visible">
   <path d="m1.0156-2.5781v0.5625h0.65625v0.46875h-0.65625v0.84375c0 0.09375 0.015625 0.16406 0.046875 0.20312 0.039062 0.03125 0.11328 0.046875 0.21875 0.046875h0.32812v0.45312h-0.54688c-0.25 0-0.42969-0.050781-0.53125-0.15625-0.10547-0.10156-0.15625-0.28516-0.15625-0.54688v-0.84375h-0.32812v-0.46875h0.32812v-0.5625z"/>
  </symbol>
  <symbol id="k" overflow="visible">
   <path d="m1.6719-1.7188v-1.0781h0.64062v2.7969h-0.64062v-0.29688c-0.085937 0.125-0.18359 0.21484-0.29688 0.26562-0.10547 0.050781-0.22656 0.078125-0.35938 0.078125-0.25 0-0.45312-0.09375-0.60938-0.28125-0.15625-0.19531-0.23438-0.45312-0.23438-0.76562s0.078125-0.56641 0.23438-0.76562c0.15625-0.19531 0.35938-0.29688 0.60938-0.29688 0.13281 0 0.25391 0.03125 0.35938 0.09375 0.11328 0.054688 0.21094 0.13672 0.29688 0.25zm-0.42188 1.2969c0.13281 0 0.23828-0.046875 0.3125-0.14062 0.070312-0.10156 0.10938-0.25 0.10938-0.4375 0-0.19531-0.039063-0.34375-0.10938-0.4375-0.074219-0.10156-0.17969-0.15625-0.3125-0.15625-0.13672 0-0.24219 0.054688-0.3125 0.15625-0.074219 0.09375-0.10938 0.24219-0.10938 0.4375 0 0.1875 0.035156 0.33594 0.10938 0.4375 0.070312 0.09375 0.17578 0.14062 0.3125 0.14062z"/>
  </symbol>
  <symbol id="j" overflow="visible">
   <path d="m1.375-0.42188c0.13281 0 0.23828-0.046875 0.3125-0.14062 0.070312-0.10156 0.10938-0.25 0.10938-0.4375 0-0.19531-0.039063-0.34375-0.10938-0.4375-0.074219-0.10156-0.17969-0.15625-0.3125-0.15625-0.13672 0-0.24219 0.054688-0.3125 0.15625-0.074219 0.10547-0.10938 0.25-0.10938 0.4375s0.035156 0.33594 0.10938 0.4375c0.070312 0.09375 0.17578 0.14062 0.3125 0.14062zm-0.42188-1.2969c0.082031-0.11328 0.17578-0.19531 0.28125-0.25 0.11328-0.0625 0.23828-0.09375 0.375-0.09375 0.25 0 0.45312 0.10156 0.60938 0.29688 0.16406 0.19922 0.25 0.45312 0.25 0.76562s-0.085938 0.57031-0.25 0.76562c-0.15625 0.1875-0.35938 0.28125-0.60938 0.28125-0.13672 0-0.26172-0.027344-0.375-0.078125-0.10547-0.050781-0.19922-0.14062-0.28125-0.26562v0.29688h-0.64062v-2.7969h0.64062z"/>
  </symbol>
  <symbol id="i" overflow="visible">
   <path d="m0.046875-2.0156h0.64062l0.53125 1.375 0.46875-1.375h0.64062l-0.84375 2.2031c-0.085937 0.22656-0.18359 0.38281-0.29688 0.46875-0.11719 0.09375-0.26562 0.14062-0.45312 0.14062h-0.35938v-0.42188h0.1875c0.11328 0 0.19141-0.023438 0.23438-0.0625 0.050781-0.03125 0.09375-0.09375 0.125-0.1875l0.015625-0.046875z"/>
  </symbol>
  <symbol id="h" overflow="visible">
   <path d="m0.3125-2.7969h0.64062v2.7969h-0.64062z"/>
  </symbol>
  <symbol id="c" overflow="visible">
   <path d="m1.2656-1.5938c-0.14844 0-0.25781 0.054688-0.32812 0.15625-0.074219 0.09375-0.10938 0.24219-0.10938 0.4375 0 0.1875 0.035156 0.33594 0.10938 0.4375 0.070312 0.10547 0.17969 0.15625 0.32812 0.15625 0.13281 0 0.23828-0.050781 0.3125-0.15625 0.082031-0.10156 0.125-0.25 0.125-0.4375 0-0.19531-0.042969-0.34375-0.125-0.4375-0.074219-0.10156-0.17969-0.15625-0.3125-0.15625zm0-0.46875c0.34375 0 0.60938 0.09375 0.79688 0.28125 0.19531 0.1875 0.29688 0.44922 0.29688 0.78125 0 0.33594-0.10156 0.59375-0.29688 0.78125-0.1875 0.17969-0.45312 0.26562-0.79688 0.26562s-0.61719-0.085938-0.8125-0.26562c-0.19922-0.1875-0.29688-0.44531-0.29688-0.78125 0-0.33203 0.097656-0.59375 0.29688-0.78125 0.19531-0.1875 0.46875-0.28125 0.8125-0.28125z"/>
  </symbol>
  <symbol id="f" overflow="visible">
   <path d="m1.875-1.9375v0.48438c-0.13672-0.0625-0.27344-0.10156-0.40625-0.125-0.125-0.03125-0.24609-0.046875-0.35938-0.046875-0.11719 0-0.20312 0.015625-0.26562 0.046875s-0.09375 0.078125-0.09375 0.14062c0 0.054688 0.019531 0.09375 0.0625 0.125 0.050781 0.023438 0.13281 0.039062 0.25 0.046875l0.10938 0.015625c0.33203 0.042969 0.55469 0.11719 0.67188 0.21875 0.11328 0.09375 0.17188 0.24219 0.17188 0.4375 0 0.21875-0.085937 0.38281-0.25 0.48438-0.15625 0.10547-0.39062 0.15625-0.70312 0.15625-0.125 0-0.26172-0.011719-0.40625-0.03125-0.14844-0.019531-0.29297-0.050781-0.4375-0.09375v-0.48438c0.125 0.0625 0.25391 0.10938 0.39062 0.14062 0.13281 0.03125 0.27344 0.046875 0.42188 0.046875 0.125 0 0.21875-0.015625 0.28125-0.046875 0.0625-0.039063 0.09375-0.09375 0.09375-0.15625s-0.027344-0.10156-0.078125-0.125c-0.042969-0.03125-0.125-0.054687-0.25-0.078125h-0.10938c-0.29297-0.039062-0.49609-0.10938-0.60938-0.20312-0.11719-0.10156-0.17188-0.25-0.17188-0.4375 0-0.21875 0.070312-0.37891 0.21875-0.48438 0.14453-0.10156 0.36719-0.15625 0.67188-0.15625 0.11328 0 0.23438 0.011719 0.35938 0.03125 0.13281 0.023438 0.28125 0.054688 0.4375 0.09375z"/>
  </symbol>
  <symbol id="v" overflow="visible">
   <path d="m1.0312-2.1562v1.6406h0.25c0.28125 0 0.49219-0.066406 0.64062-0.20312 0.14453-0.14453 0.21875-0.35156 0.21875-0.625 0-0.25781-0.074219-0.45703-0.21875-0.59375-0.14844-0.14453-0.35938-0.21875-0.64062-0.21875zm-0.6875-0.51562h0.71875c0.40625 0 0.70703 0.03125 0.90625 0.09375 0.19531 0.054687 0.36719 0.14844 0.51562 0.28125 0.125 0.125 0.21875 0.26562 0.28125 0.42188s0.09375 0.33594 0.09375 0.53125c0 0.21094-0.03125 0.39062-0.09375 0.54688s-0.15625 0.29688-0.28125 0.42188c-0.14844 0.13672-0.32031 0.23438-0.51562 0.29688-0.19922 0.054688-0.5 0.078125-0.90625 0.078125h-0.71875z"/>
  </symbol>
  <symbol id="u" overflow="visible">
   <path d="m0.3125-2.0156h0.64062v2.0156h-0.64062zm0-0.78125h0.64062v0.53125h-0.64062z"/>
  </symbol>
  <symbol id="t" overflow="visible">
   <path d="m1.625-2.7969v0.42188h-0.34375c-0.09375 0-0.16406 0.023438-0.20312 0.0625-0.03125 0.03125-0.046875 0.089844-0.046875 0.17188v0.125h0.54688v0.46875h-0.54688v1.5469h-0.64062v-1.5469h-0.32812v-0.46875h0.32812v-0.125c0-0.21875 0.054687-0.37891 0.17188-0.48438 0.125-0.11328 0.31641-0.17188 0.57812-0.17188z"/>
  </symbol>
  <symbol id="s" overflow="visible">
   <path d="m2.1719-1.6719c0.082031-0.125 0.17578-0.21875 0.28125-0.28125 0.11328-0.070313 0.23828-0.10938 0.375-0.10938 0.22656 0 0.39844 0.074219 0.51562 0.21875 0.125 0.14844 0.1875 0.35547 0.1875 0.625v1.2188h-0.64062v-1.0469-0.046875-0.078125c0-0.13281-0.023437-0.23438-0.0625-0.29688-0.042969-0.070312-0.10938-0.10938-0.20312-0.10938-0.11719 0-0.21094 0.054687-0.28125 0.15625-0.0625 0.10547-0.09375 0.25-0.09375 0.4375v0.98438h-0.65625v-1.0469c0-0.21875-0.023438-0.35938-0.0625-0.42188-0.03125-0.070312-0.10156-0.10938-0.20312-0.10938-0.11719 0-0.21094 0.054687-0.28125 0.15625-0.0625 0.10547-0.09375 0.25-0.09375 0.4375v0.98438h-0.64062v-2.0156h0.64062v0.29688c0.070313-0.11328 0.16016-0.19531 0.26562-0.25 0.10156-0.0625 0.21875-0.09375 0.34375-0.09375 0.13281 0 0.25391 0.039062 0.35938 0.10938 0.11328 0.0625 0.19531 0.15625 0.25 0.28125z"/>
  </symbol>
  <symbol id="r" overflow="visible">
   <path d="m2.3281-1.2188v1.2188h-0.64062v-0.9375c0-0.17578-0.007812-0.29688-0.015625-0.35938-0.011719-0.0625-0.027344-0.10938-0.046875-0.14062-0.023438-0.039062-0.054688-0.070312-0.09375-0.09375-0.042969-0.03125-0.09375-0.046875-0.15625-0.046875-0.125 0-0.23047 0.054687-0.3125 0.15625-0.074219 0.10547-0.10938 0.25-0.10938 0.4375v0.98438h-0.64062v-2.7969h0.64062v1.0781c0.09375-0.11328 0.19141-0.19531 0.29688-0.25 0.11328-0.0625 0.23828-0.09375 0.375-0.09375 0.22656 0 0.39844 0.074219 0.51562 0.21875 0.125 0.14844 0.1875 0.35547 0.1875 0.625z"/>
  </symbol>
  <symbol id="q" overflow="visible">
   <path d="m0.34375-2.6719h0.76562l0.96875 1.8281v-1.8281h0.65625v2.6719h-0.76562l-0.98438-1.8438v1.8438h-0.64062z"/>
  </symbol>
  <symbol id="p" overflow="visible">
   <path d="m0.28125-0.78125v-1.2344h0.65625v0.20312c0 0.11719-0.007812 0.25781-0.015625 0.42188v0.32812c0 0.15625 0.003906 0.27344 0.015625 0.34375 0.007812 0.074219 0.023438 0.125 0.046875 0.15625 0.03125 0.042969 0.066406 0.074219 0.10938 0.09375 0.039062 0.023438 0.085938 0.03125 0.14062 0.03125 0.13281 0 0.23828-0.050781 0.3125-0.15625 0.070313-0.10156 0.10938-0.24219 0.10938-0.42188v-1h0.65625v2.0156h-0.65625v-0.29688c-0.09375 0.125-0.19922 0.21484-0.3125 0.26562-0.10547 0.050781-0.21875 0.078125-0.34375 0.078125-0.23047 0-0.40625-0.066406-0.53125-0.20312-0.125-0.14453-0.1875-0.35156-0.1875-0.625z"/>
  </symbol>
  <symbol id="o" overflow="visible">
   <path d="m2.3281-1.2188v1.2188h-0.64062v-0.9375c0-0.17578-0.007812-0.29688-0.015625-0.35938-0.011719-0.0625-0.027344-0.10938-0.046875-0.14062-0.023438-0.039062-0.054688-0.070312-0.09375-0.09375-0.042969-0.03125-0.09375-0.046875-0.15625-0.046875-0.125 0-0.23047 0.054687-0.3125 0.15625-0.074219 0.10547-0.10938 0.25-0.10938 0.4375v0.98438h-0.64062v-2.0156h0.64062v0.29688c0.09375-0.11328 0.19141-0.19531 0.29688-0.25 0.11328-0.0625 0.23828-0.09375 0.375-0.09375 0.22656 0 0.39844 0.074219 0.51562 0.21875 0.125 0.14844 0.1875 0.35547 0.1875 0.625z"/>
  </symbol>
  <symbol id="n" overflow="visible">
   <path d="m0.34375-2.6719h1.1406c0.34375 0 0.60156 0.078125 0.78125 0.23438 0.1875 0.14844 0.28125 0.35938 0.28125 0.64062s-0.09375 0.5-0.28125 0.65625c-0.17969 0.14844-0.4375 0.21875-0.78125 0.21875h-0.45312v0.92188h-0.6875zm0.6875 0.5v0.75h0.375c0.13281 0 0.23828-0.03125 0.3125-0.09375 0.070312-0.070313 0.10938-0.16406 0.10938-0.28125 0-0.125-0.039063-0.21875-0.10938-0.28125-0.074219-0.0625-0.17969-0.09375-0.3125-0.09375z"/>
  </symbol>
  <symbol id="m" overflow="visible">
   <path d="m0.3125-2.0156h0.64062v1.9844c0 0.26953-0.070313 0.47266-0.20312 0.60938-0.125 0.14453-0.30859 0.21875-0.54688 0.21875h-0.32812v-0.42188h0.10938c0.125 0 0.20703-0.03125 0.25-0.09375 0.050781-0.054688 0.078125-0.15625 0.078125-0.3125zm0-0.78125h0.64062v0.53125h-0.64062z"/>
  </symbol>
  <symbol id="l" overflow="visible">
   <path d="m1.9375-1.9375v0.51562c-0.09375-0.0625-0.1875-0.10156-0.28125-0.125-0.085938-0.03125-0.17188-0.046875-0.26562-0.046875-0.17969 0-0.32031 0.054688-0.42188 0.15625-0.09375 0.10547-0.14062 0.25-0.14062 0.4375s0.046875 0.33594 0.14062 0.4375c0.10156 0.10547 0.24219 0.15625 0.42188 0.15625 0.10156 0 0.19531-0.015625 0.28125-0.046875 0.09375-0.03125 0.17969-0.070313 0.26562-0.125v0.51562c-0.10547 0.042969-0.21094 0.066406-0.3125 0.078125-0.10547 0.019531-0.21094 0.03125-0.3125 0.03125-0.36719 0-0.65234-0.085938-0.85938-0.26562-0.19922-0.1875-0.29688-0.44531-0.29688-0.78125 0-0.33203 0.097656-0.59375 0.29688-0.78125 0.20703-0.1875 0.49219-0.28125 0.85938-0.28125 0.10156 0 0.20703 0.011719 0.3125 0.03125 0.10156 0.023438 0.20703 0.054688 0.3125 0.09375z"/>
  </symbol>
 </defs>
 <g>
  <path d="m570.06 302.16c-8.0469-0.78516-16.086-1.625-24.125-2.4883-9.7227-1.043-19.477-1.8867-29.148-3.2891-5.5039-0.79688-11.234-0.36719-16.852-2.418 0.22266-9.4141 1.4883-18.441 2.6797-27.484 23.012 2.2617 45.605 4.4805 68.051 6.6836 1.0977-3.5586 1.1523-3.5977-0.45703-6.1953-2.8828-4.6484-5.3164-9.4961-6.9883-14.727-5.1875-16.203-3.9648-32.262 1.0078-48.246 0.38281-1.2383 0.42969-2.6445 1.9453-3.4609 1.7461-0.68359 3.9961 0.76562 5.7969-0.79297 1.7109-4.5469 1.7109-4.5469 0.96484-9.2266-0.89453-0.75391-1.9375-1.1367-3.0859-1.2617-4.1133-0.44531-8.2188-1.0273-12.344-1.2812-3.7812-0.23047-6.7227-1.5156-9.2344-4.5391-5.1758-6.2227-10.707-12.152-16.055-18.234-4.8398-5.5-9.6289-11.039-14.375-16.48 0.20703-3.082 0.39453-5.8633 0.625-9.3359-4.0273-1.2109-7.8711-2.6719-12.461-1.6172-0.74219 3.707-1.4375 7.1719-2.2305 11.129-7.332 5.957-14.961 12.156-22.902 18.609-1.1641-11.816 2.8125-24.273 10.07-32.48 2.9492-0.5625 6.0156 0.52734 8.8828-0.5625 1.5195-3.9844 1.543-4.3047 0.55859-9.918-6.0234-1.4336-12.414-0.81641-18.727-1.1172-6.3008-0.30078-12.594-0.80469-19.586-1.2617 3.6562-6.543 6.9141-12.438 10.246-18.293 1.1016-1.9336 2.1211-3.832 1.6953-6.1328 4.8789 3.0469 7.4922 8.0547 10.766 12.496 1.1758 1.5977 1.6367 3.9336 4.5352 4.125 3.5547-3.1641 1.6523-8.0234 3.1641-11.805 1.9727-0.94922 3.6445 1.0859 5.6211 0.31641 0.94531-0.5 1.75-1.2344 1.832-2.8281-1.9805-5.7891-4.6797-11.574-7.8086-17.145-5.0977-9.0703-10.574-17.844-20.062-22.738-0.52344-1.7227 0.33984-3.4531-1.7422-4.9727-2.5039-0.85547-5.668-1.9414-8.4727-2.9023-3.0312 1.1914-3.0508 3.7734-3.7188 5.7969-3.1797 9.625-6.1406 19.324-9.2734 28.969-0.60938 1.8828-0.69531 4.0469-2.207 5.582-4.0391-0.33984-7.8203-1.7461-12.137-0.92969-2.2617 7.3125-0.77344 15.008-2.3477 22.328-0.24609 1.1367 0.089844 2.25 0.83594 2.9219 1.9609 1.8828 5.4609 0.36719 6.7188 3.4492-4.6797 1.2188-42.461-0.21094-47.879-1.8008 2.2188-9.9805 6.2734-19.105 12.172-27.344 5.9414-0.93359 11.832 0.62109 17.457-0.98828 0.68359-3.4258 0.8125-6.332 0.007812-9.2539-2.2031-1-4.2969-0.66406-6.3281-0.66406-19.977-0.023437-39.949 0.046875-59.926-0.054687-5.2148-0.027344-10.426-0.56641-15.469-0.86328-0.55078-1.3125-0.47266-2.1719 0.35156-3.1289 3.8906 0.61328 7.8789 1.6328 12.129 1.2852 2.6406-4.2734 3.9219-9 5.5547-13.547 1.6094-4.4883 4.2656-8.7188 4.2383-13.773-4.75-2.6797-10.078-2.4258-14.391-4.4531-0.58984-1.2852-0.39062-2.1445 0.42578-3.1836 15.539 3.6992 28.426 12.906 41.758 21.43 1.7109-1.3945 3.6289-1.9805 3.8672-4.8125-2.4023-4.5039-5.0195-9.4102-7.6133-14.262 4.6797-2.5273 10.398-0.84766 14.645-4.7148-1.4023-4.7461-5.6523-6.6602-8.8008-9.332-13.84-11.746-29.418-19.996-47.902-22.328-1.5664 1.0625-2.0547 2.8594-2.5195 4.6992-0.73438 2.9062-1.4453 5.8242-2.3242 8.6875-2.0273 6.6055-3.1289 13.488-5.7695 20.137-5.6406-0.28516-10.684-2.6055-16.57-3.3477-0.28516 0.41797-1.0156 1-1.082 1.6484-1.0078 10.266-1.6172 20.543-1.1719 30.75 3.4844 2.4492 7.6602 1.3242 10.977 3.3125 0.30469 1.6406 0.35156 3.2695-0.78906 4.7188-2.0117 0.875-4.1133 0.46875-6.1562 0.47266-19.977 0.03125-39.949 0.003906-59.926 0.042969-2.375 0.003906-4.9453-0.625-7.2227 1.5898-0.49609 2.7109-0.73047 5.625 0.375 8.457 0.70312 1.6328 2.8984 0.46484 3.832 1.9297-0.71484 0.94141-1.2812 1.6797-1.8359 2.4219-0.5625 0.75391-1.1211 1.5117-1.6641 2.2773-10.652 15.016-16.938 31.324-14.727 50.109 1.4961 12.703 6.918 23.695 14.852 33.57 1.1484 1.4297 2.6133 2.0469 4.3789 2.2383 14.391 1.543 28.777 3.1055 43.164 4.6797 1.4375 0.15625 3.0586-0.11328 4.1406 1.5391-0.89844 5.3945-1.8086 10.871-2.7422 16.48-28.59 0.62891-56.703-1.832-84.812-1.1641-0.90625 3.6523-0.71484 6.6016-0.34766 9.5352 0.96094 0.49609 1.7539 0.89453 2.5273 1.3281 0.042969 0.023438-0.078124 0.34375-0.24609 1.043-5.5977 7.8242-9.1914 17.07-11.215 26.918-1.9609 9.5352-1.4258 19.137 12.184 58.453 0.46484 2.4375 2.5195 5.3945 2.5195 5.3945 74.398 9.8945 57.84 7.625 65.426 8.5586 0.37891 7.4023-0.84766 14.043-1.4375 21.078-6.7461 0.58984 1.6328 0.14453-54.012-0.9375 0 0-11.379 4.4961-2.5078 8.0977-11.812 34.609-13.738 41.836-13.605 49.441 0.13281 7.6328 2.1875 16.293 5.6328 23.848-2.7734-0.35156-4.4297-1.7578-6.0781-2.7148-4.5234-2.6328-11.656-5.4648-16.188-8.6992-25.656-19.418-51.129-53.445-78.789-92.223-2.2266 1.9766-4.4531 3.9609-6.6875 5.9375 42.375 62.875 89.117 132.36 89.117 132.36 2.0625 0.76172 2.0625 0.76172 2.0625 0.76172 0.35547 0.1875 36.062 18.75 93.086 3.543l0.40234-0.10938 0.37891 0.17188c0.69141 0.3125 70.75 31.508 231.42 44.906h0.47656c7.3945-14.527 10.582-26.539 11.82-35.512h0.003906c1.9922-10.762 4.3203-17.941 2.3008-21.465-16.754-4.8008-34.211-7.25-51.602-10.348-0.13281-5.0977-0.69922-9.6836 0.33203-14.34 6.0938 0.73047 11.684 1.4492 17.285 2.0664 13.453 1.4844 26.91 2.9297 40.367 4.3789 4.1133 0.44531 8.2227 0.9375 12.348 1.2656 1.9727 0.15625 4.2695 0.8125 5.5-2.3516-18.262-36.109-16.348-73.527-5.2617-111.23 3.7891-1.3359 7.4648 2.2656 10.793-0.91797 0.42188-2.5039 0.85156-5.0664 1.207-7.1914-1.3359-2.8047-3.5117-2.5508-5.5703-2.75zm-183.63-247.14c-0.71484 0.51562-0.71094 0.074219-0.69531-0.38281 0.23438 0.125 0.46484 0.25391 0.69531 0.38281zm-32.914-38.895c16.121 2.2734 27.562 12.375 40.031 21.895-4.4492 2.3438-9.1133 1.7305-13.438 3.5664 0.52344 4.8281 4.8047 8.1641 5.5234 12.914-2.2344 0.074218-3.625-1.6484-5.3086-2.6523-8.2305-4.9219-16.594-9.5195-25.789-12.469-2.1328-0.68359-4.5273-0.50781-6.7969-2.2344 1.5078-6.8242 3.2422-13.785 5.7773-21.02zm162.77 141.82c8.4375 9.5156 16.152 18.219 24.742 27.906-10.078-1.2461-19.023-2.3516-28.41-3.5117 0.99219-8.1094 1.9023-15.84 3.668-24.395zm45.121 40.277c-3.8477 12.051-6.4492 23.52-6.1836 35.523 0.26562 12.082 3.4531 23.332 9.4844 35.082-32.348-3.3438-63.531-6.5664-95.367-9.8555 2.0273-11.691 7.3125-21.27 14.777-29.621 4.3984-0.94922 8.5977 0.22266 12.551-0.77344 1.0195-1.7656 0.86328-3.3672 0.015625-5.6758-17.805-0.14062-35.797 0.019531-54.148-0.089843-0.082031-5.3672 1.4805-9.8008 3.6133-14.145 17.949 2.0117 35.645 3.9961 54.297 6.0859-3.5938-4.7031-6.668-8.5898-9.5898-12.59-2.9961-4.1055-5.6055-8.4492-7.6719-13.84 26.238 3.3203 52.016 6.582 78.223 9.8984zm-146.64 10.094c-33.117-0.85156-66.32-1.7031-100.05-2.5664 0.9375-5.8438 1.7617-10.98 2.6641-16.613 14.039 1.5977 27.793 3.1602 41.723 4.7461 2.5312 2.1055 3.75 5.5469 7.043 7.6758 17.664 1.9609 35.738 3.9648 54.172 6.0117-0.70312 4.2539-0.71484 8.332-2.4688 12.043-1.1992 0.44531-2.2773 0.38281-3.4648-0.054688 2.0273-3.5898 2.2031-7.1172 0.38672-11.242zm-4.9102 11.027c-0.67969 0.53125-1.3477 0.55469-2.0352 0.007812 0.67969-0.73828 1.3477-0.70703 2.0352-0.007812zm68.133 11.789c0.40625 1.8164-0.91797 2.5586-1.5859 3.6055-13.156 20.609-14.883 42.047-4.6641 64.344 3.625 7.9102 8.625 14.945 14.578 22.336-26.32-2.9297-51.941-5.7852-77.25-8.6055-16.363-23.277-20.359-57.82-9.1484-82.863 26.273-0.44531 52.188 0.79688 78.07 1.1836zm-44.562-21.293c2.4805-0.63672 4.2617-0.49609 6.0234 0.17969-0.76172 3.0938-1.5078 6.1289-2.2305 9.0664-1.3906 1.2383-2.8633 0.84375-4.8164 0.5625-0.76172-3.7734 1.418-6.6875 1.0234-9.8086zm37.305 53.941c6.4688-0.22266 12.008 0.59766 17.984 1.6211-0.11328 8.8828-1.293 17.535-2.3789 26.398-4.4609 0.79297-8.3828-0.28125-12.434-1.332-3.3789-8.5742-4.375-17.332-3.1719-26.688zm11.453-87.703c6.1562-5.7188 12.852-10.773 20.113-16.605-1.0547 7.3789-1.9766 13.82-2.9297 20.473-6.0352 0.99609-11.562-1.1641-17.098-1.2617-0.32422-1.1914-0.69141-2.043-0.085938-2.6055zm-13.648-111.25c5.6172 1.3555 9.0312 5.0469 12.164 9.0234 5.5039 6.9922 9.5547 14.824 13.082 22.953-1.4258 1.6289-3.3359-0.03125-4.7305 0.95703-1.5352 1.6445-0.89063 3.9492-1.9648 6.2969-6.9258-8.3281-13.965-16.246-24.902-20.133 2.2734-6.8516 4.2773-12.875 6.3516-19.098zm-6.4805 24.414c4.582 1.418 8.0273 3.6172 10.66 7.0703-4.1172 0.76562-7.9102-0.94141-11.875-1.3672-0.28516-2.1562 0.98047-3.6094 1.2148-5.7031zm24.648 43.676c-17.66 28.176-12.18 53.781 7.7773 78.492-4.0039-0.35938-7.2266-0.57422-10.43-0.94922-11.574-1.3516-23.137-2.8164-34.715-4.125-11.582-1.3086-23.184-2.4297-34.766-3.7383-11.766-1.3281-23.516-2.7969-35.277-4.1758-2.6172-0.30469-5.2539-0.42187-7.8672-0.73047-2.8008-0.32812-4.9844-1.5469-5.9688-5.1094 15.828 1.8398 31.391 3.6445 48.117 5.5898-16.492-20.441-27.129-42.066-25.293-68.859 32.805-0.32813 65.172 2.6406 98.422 3.6055zm-186.58 49.371c-11.383-1.3398-22.766-2.7227-34.145-4.0898-0.93359-0.11328-1.8906-0.42188-2.7969-0.3125-5.0195 0.59375-7.9336-2.0391-10.461-6.0195-6.5-10.234-10.535-21.199-10.398-33.418 0.066406-5.8359 1.2031-11.551 3.0234-17.137 4.1055-12.602 11.297-23.223 20.406-32.746 44.91 0.003906 89.121-0.10547 134.25 1.0508-10.934 16.727-15.914 34.414-14.234 53.57 1.6719 19.07 9.8438 35.656 21.637 51.301-5.6836 0.30469-10.57-0.89062-15.488-1.3438-8.0391-0.74219-16.039-1.9297-24.059-2.8984-11.75-1.4219-23.5-2.8359-35.254-4.2148-10.824-1.2695-21.656-2.4727-32.48-3.7422zm-75.418 119.58c-14.867-35.367-14.434-45.992-13.008-56.086 1.3867-9.8164 6.2383-24.086 16.207-33.594 4.3477-0.68359 8.793 0.61328 13.301 0.53906 8.8398-0.14062 17.707-0.027344 26.531 0.46875 14.477 0.8125 28.984 0.42969 43.438 1.2188 12.227 0.66797 24.457 0.35938 36.66 1.0312 14.66 0.80469 29.332 0.85547 44 1.1289 3.3359 0.0625 6.6641 0.60156 10.141 0.93359-18.773 38.531-12.941 74.16 12.344 108.58-25.977-2.8555-50.93-6.3477-75.934-9.3516-22.309-2.6875-44.594-5.6836-113.68-14.867zm178.55 28.453h-74.145c-2.332 1.9883-0.53906 4.6797-2.1094 6.918h-27.102c-0.62109-7.1133 0.48828-13.379 1.3633-20.359 17.246 2.0156 34.344 3.9453 51.418 6.0312 16.898 2.0664 33.777 4.293 50.574 7.4102zm-4.6836 126.96c-16.004-3.7227-31.234-8.8086-45.754-15.672 15.113 1.582 30.223 3.1641 45.551 4.7656 1.0703 3.5703 0.79297 7.0117 0.20312 10.906zm-21.547-17.465c-9.1602-0.96875-18.309-2.043-27.465-3.0352-4.6719-0.50781-9.3633-0.87109-14.031-1.4219-3.9453-0.46484-7.5703-1.7891-11.07-3.793-10.141-5.8047-19.953-12.082-29.273-19.129-1.4805-1.1211-2.8516-2.4609-4.9766-2.9727-0.68359 0.41406-1.543 0.80469-2.25 1.3789-8.7344 7.0781-18.789 10.82-29.891 12.086-4.5703 0.51953-9.0156-0.375-13.488-0.84766-5.2148-0.55078-10.461-1.0156-15.367-2.2422-10.422-12.809-14.734-29.004 5.3242-76.375 77.883 1.8945 116.97 2.8711 156.85 3.8711-6.4688 7.4219-10.871 14.844-13.551 23.141-5.4492 16.871-3.0273 32.969 5.2656 48.387 4.0391 7.5078 9.2422 14.176 14.883 20.527 0.61719 0.69531 1.1836 1.4414 2.2109 2.6992-8.1133-0.79297-15.648-1.4805-23.172-2.2734zm48.16 22.406c-4.4219-0.44531-8.4883-0.78125-12.957-2.3242-0.44141-8.918-0.62109-17.988 0.16406-27.637 6.7266 1.2188 13.102 0.99609 19.68 2.7461-2.0078 9.2656-4.3125 18.227-6.8867 27.215zm39.391 5.3164-12.137-0.66797 0.97656-17.816 12.137 0.66797zm-73.883-41.957c-18.699-24.52-16.945-56.004 3.5898-76.969h9.2461c0.62109-2.1484 0.76172-3.9102-0.28125-6.1055-11.27-0.99609-22.75-0.25781-34.16-0.98438-11.254-0.71484-22.523-0.73047-33.863-0.99609 0.21484-2.4844 1.8867-1.8711 2.9492-1.8086 10.336 0.63281 20.684 0.56641 31.031 0.60156 10.734 0.035156 21.465 0.25781 32.199 0.32422 14.691 0.089843 29.391-0.058594 44.078 0.23438 7.3008 0.14844 14.598 0.72656 21.992 0.53125 0.089844 2.0547-1.1172 3.0859-1.8867 4.2266-9.4688 14.043-12.812 29.637-10.785 46.211 1.625 13.301 7.4023 25.137 15.242 35.945 1.7617 2.4297 3.6289 4.7773 5.6875 7.4844-28.797-2.0547-57.09-5.4102-85.039-8.6953zm88.703 3.2148c-3.9961-3.3438-6.0117-7.5391-9.0078-11.828 3.3438-0.67188 5.8594 0.09375 8.6289 0.86328 0.89844 3.4102 0.35156 6.9336 0.37891 10.965zm35.883 27.391 12.137 0.66797-0.97656 17.816-12.137-0.66797zm-17.094-2.4453-0.98437 17.824-12.137-0.66797 0.97656-17.816zm59.93-138.64c-3.5977 11.32-5.9258 22.941-7.1328 34.711-2.4336 23.707-0.36719 46.926 9.0977 69.109 0.37109 0.86719 0.88672 1.668 0.50391 3.3125-15.957-1.1211-31.91-3.3984-47.918-5.0547-16.074-1.6641-32.109-3.6602-48.125-5.5039-12.891-21.574-9.0664-52.953 7.7578-70.957 3.5586-0.92578 7.375 0.74219 11.035-0.42969 1.1094-1.8828 0.82812-3.6914 0.39062-5.4648-1.3125-1.2969-2.8984-0.85156-4.3516-0.86328-17.148-0.10938-34.297-0.13672-51.445-0.30078-4.0938-0.039063-8.1836-0.50391-12.242-0.76953-0.72266-3.5156 1.8672-3.2969 3.8203-3.9727-0.625-1.1875-1.2266-2.3281-1.8555-3.5156 1.0234-2.7656 1.957-5.6055 3.9648-8.5195 11.57 1.2109 23.32 2.3867 35.055 3.6836 11.551 1.2734 23.094 2.6641 35.641 4.1211-5.9844-7.7852-12.195-14.348-16.285-23.211 27.758 3.1172 54.926 6.1719 81.934 9.2031 1.3594 1.6133 0.59766 3.0391 0.15625 4.4219zm21.785 202-1.1367-0.078125-1.125-0.16406c-0.375-0.046875-0.74609-0.11719-1.1172-0.21094-0.36719-0.089844-0.73828-0.16016-1.1016-0.26172-0.72266-0.22656-1.4453-0.43359-2.1406-0.73828-0.70703-0.25781-1.375-0.61719-2.0469-0.95312-0.65625-0.37109-1.3086-0.74609-1.9219-1.1797-0.31641-0.19922-0.61719-0.42969-0.91406-0.66016s-0.60156-0.44531-0.88281-0.69922c-0.57813-0.47656-1.1289-0.99219-1.6602-1.5195-0.52344-0.53906-1.043-1.0781-1.5195-1.6562-0.49609-0.5625-0.94922-1.1641-1.3945-1.7656-0.44531-0.60156-0.86328-1.2266-1.2734-1.8555-0.39844-0.63672-0.78516-1.2773-1.1484-1.9336-0.72656-1.3125-1.3867-2.6641-1.9648-4.0469-0.28906-0.69141-0.5625-1.3867-0.81641-2.0938-0.24609-0.69922-0.48828-1.4258-0.67188-2.1094l-0.73047-2.7109-0.76953 2.7695c-0.19531 0.70703-0.34766 1.4297-0.62109 2.1055-0.22266 0.69531-0.55469 1.3438-0.87891 1.9844l-0.54688 0.92969-0.62891 0.875c-0.44922 0.55859-0.91797 1.0977-1.4492 1.5781-0.24609 0.25781-0.53906 0.46875-0.81641 0.69531-0.26953 0.23438-0.56641 0.4375-0.86719 0.63281-0.28906 0.21094-0.59375 0.39844-0.91406 0.57031-0.30859 0.18359-0.62109 0.35938-0.95312 0.51172-0.64453 0.32812-1.3164 0.59766-2 0.84375-0.68359 0.24609-1.3867 0.44922-2.0938 0.63281l-1.0703 0.24219-1.0859 0.19531c-0.73047 0.11328-1.4609 0.20703-2.1953 0.27344-1.4727 0.13281-2.9609 0.17188-4.4453 0.14062-1.4883-0.035156-2.9766-0.14062-4.457-0.3125-0.74219-0.085938-1.4766-0.19141-2.2109-0.30859-0.35156-0.054688-0.67578-0.11328-1.0039-0.17578 0.70703-1.2852 1.3945-2.5547 2.043-3.8086-154.62-12.949-225.48-42.379-231.3-44.898-50.23 13.281-84.219 0.69531-92.453-2.9336 5.9375 9.0273 7.7422 20.754 7.6016 33.129l115.73 10.578 0.24219 0.023437 130.58 11.922c-0.60547 0.44141-1.207 0.88281-1.8438 1.2734-0.41016 0.25781-0.8125 0.52344-1.2188 0.78516l-126.95-11.594-2.5039-0.22656-114.16-10.422c-0.10156 4.8516-0.47656 9.6055-0.98047 14-0.75781 0.019531-1.8281 0.011718-2.3984-0.042969-0.36328-0.015625-0.73047-0.089844-1.0977-0.13672s-0.73438-0.10547-1.0977-0.19531l-1.0938-0.24219-1.0781-0.32031c-0.73047-0.1875-1.418-0.50391-2.1289-0.76172-0.71484-0.25-1.3711-0.64062-2.0625-0.95312l-0.51172-0.24609-1.4766-0.87891c-0.67188-0.36719-1.2852-0.82422-1.9062-1.2734-0.62109-0.44922-1.2617-0.875-1.8281-1.3984l-1.7578-1.5039-1.6289-1.6562-0.81641-0.82812-0.74609-0.89453-1.4922-1.7969c-0.5-0.59766-0.91406-1.2656-1.375-1.8945l-1.3516-1.918-2.4102-4.043-0.85156-1.4297-0.65234 1.4766c-0.34375 0.77734-0.78906 1.5977-1.2422 2.375-0.45703 0.78516-0.95313 1.5469-1.4805 2.2891-0.51953 0.74609-1.082 1.4648-1.6641 2.1641-0.58203 0.69922-1.2031 1.3711-1.8398 2.0195-0.64453 0.64453-1.3164 1.2578-2.0156 1.8438-0.70313 0.57812-1.4297 1.1328-2.1836 1.6406-0.75781 0.50391-1.5312 0.99219-2.3438 1.4102-0.39844 0.22266-0.80469 0.42969-1.2266 0.60938-0.41797 0.18359-0.82422 0.39453-1.2578 0.54297-0.42969 0.15625-0.85156 0.33203-1.2852 0.47656l-1.3125 0.39844c-0.88672 0.21484-1.7773 0.45312-2.6875 0.56641-0.90625 0.16797-1.8242 0.22266-2.7422 0.29688-0.46094 0.03125-0.92188 0.015625-1.3828 0.023438-0.46094 0.007812-0.92187 0.011718-1.3828-0.03125l-1.3828-0.085938c-0.46094-0.042968-0.91797-0.11719-1.375-0.17578-0.92188-0.09375-1.8242-0.30859-2.7344-0.48828-0.91016-0.17969-1.793-0.46484-2.6953-0.69531-0.88672-0.27734-1.7617-0.58594-2.6445-0.87891 0.87109 0.32422 1.7344 0.66797 2.6133 0.98047 0.89062 0.26172 1.7695 0.58203 2.6758 0.79688 0.90625 0.21094 1.8086 0.46484 2.7344 0.59375 0.46094 0.074219 0.92188 0.16406 1.3828 0.22656l1.3945 0.14062c0.46484 0.058594 0.93359 0.074219 1.4023 0.082032 0.46875 0.007812 0.9375 0.042968 1.4062 0.027343 0.9375-0.039062 1.8789-0.0625 2.8086-0.19531 0.9375-0.082031 1.8594-0.29297 2.7852-0.48047l1.3711-0.35938c0.45312-0.13281 0.89453-0.29688 1.3477-0.44141 0.45312-0.13672 0.88281-0.33984 1.3203-0.51562 0.44141-0.17188 0.87109-0.36719 1.293-0.58594 0.85938-0.40234 1.6797-0.875 2.4844-1.3711 0.80469-0.5 1.5781-1.0469 2.3359-1.6211 0.74609-0.58203 1.4727-1.1953 2.168-1.8398 0.69141-0.65234 1.3594-1.3242 1.9922-2.0312 0.63281-0.70703 1.2461-1.4297 1.8164-2.1914 0.57812-0.75391 1.125-1.5312 1.6367-2.3359 0.23438-0.36719 0.45703-0.73438 0.67188-1.1055l1.5781 2.8828 1.3203 2.0352c0.45312 0.67188 0.85547 1.375 1.3516 2.0156l1.4844 1.9297 0.74609 0.96484 0.82422 0.90234 1.6523 1.8086 1.8047 1.668c0.58203 0.57812 1.25 1.0625 1.8984 1.5703 0.64844 0.50781 1.293 1.0234 2.0039 1.4492l1.043 0.67188 0.52344 0.33594 0.55078 0.29297c0.74219 0.37109 1.4492 0.82031 2.2266 1.1289 0.77344 0.32031 1.5234 0.69141 2.3281 0.93359l1.1953 0.40234 1.2266 0.32031c0.40625 0.11328 0.82031 0.19922 1.2422 0.26953 0.41797 0.074218 0.83203 0.16797 1.2617 0.20703 0.75 0.097656 1.5312 0.15234 2.3477 0.14062-1.5156 11.434-3.7188 19.773-3.7188 19.773l9.6016 0.85156-1.4805 1.5977c-0.57031 0.65234-1.2188 1.2227-1.8398 1.8203-0.62891 0.58984-1.2422 1.2031-1.9258 1.7266-0.67578 0.53125-1.3164 1.1172-2.0234 1.6094l-2.125 1.4688-2.2305 1.2969-2.3281 1.1055-2.418 0.89453c-0.83203 0.21094-1.6523 0.46875-2.4922 0.64844-1.6875 0.32031-3.3984 0.55859-5.1211 0.53516-0.42969-0.003906-0.86328 0.011719-1.293-0.007813l-1.2891-0.10547c-0.86328-0.039063-1.707-0.24219-2.5625-0.35938-1.6875-0.35938-3.3711-0.80078-4.9805-1.4414-1.6289-0.59766-3.1914-1.3672-4.7188-2.1992-1.5312-0.82812-2.9844-1.793-4.4062-2.8008-1.418-1.0117-2.7695-2.125-4.0664-3.293-1.2969-1.1719-2.543-2.4023-3.6797-3.7305 1.0977 1.3633 2.3125 2.6328 3.5742 3.8438 1.2695 1.207 2.5898 2.3633 3.9883 3.4258 1.4023 1.0586 2.8398 2.0742 4.3633 2.9531 1.5195 0.88672 3.0938 1.6914 4.7344 2.3398 1.625 0.6875 3.332 1.1758 5.0547 1.582 0.875 0.14062 1.7344 0.36719 2.6211 0.42578l1.3242 0.13672c0.44141 0.03125 0.88672 0.027344 1.332 0.039063 1.7773 0.0625 3.5547-0.14062 5.3086-0.4375 0.875-0.16406 1.7305-0.41406 2.5977-0.61719 0.83984-0.28516 1.6875-0.57031 2.5234-0.875l2.4336-1.0938 2.3359-1.2891 2.2227-1.4688c0.73828-0.49219 1.4102-1.0781 2.1172-1.6133 0.71875-0.52734 1.3594-1.1367 2.0195-1.7305 0.65234-0.59766 1.332-1.1719 1.9297-1.8242l1.8477-1.9102c0.61328-0.69922 1.1406-1.3477 1.7148-2.0234l1.6875-2.0117 1.5586-2.1562 1.5586-2.1602c0.5-0.73047 0.94922-1.4883 1.4258-2.2305 0.91797-1.5039 1.9336-2.9531 2.7461-4.5156l1.9883-3.5898c0.79297 0.72266 1.6016 1.3906 2.4375 2.0547 1.1289 0.89844 2.3125 1.7266 3.5078 2.5352 1.2148 0.78516 2.4414 1.5469 3.7188 2.2305 0.63281 0.35156 1.2734 0.68359 1.9297 0.99219 0.64453 0.32812 1.3086 0.62109 1.9805 0.90234 0.66016 0.30078 1.3438 0.55078 2.0234 0.80469 0.67578 0.26953 1.3711 0.48047 2.0703 0.69531 0.69141 0.23437 1.3984 0.40625 2.1094 0.57812 0.70312 0.19141 1.4219 0.32813 2.1445 0.44922l1.082 0.19141 1.0938 0.12109 1.0938 0.11719c0.36719 0.03125 0.73438 0.03125 1.1016 0.046875 0.73438 0.023437 1.4688 0.070312 2.2031 0.011718 0.73438-0.050781 1.4727-0.023437 2.2031-0.14453 0.73047-0.10156 1.4648-0.17188 2.1914-0.30078l2.1602-0.47266c1.4102-0.41406 2.8359-0.82031 4.1797-1.4258 0.68359-0.27734 1.3672-0.55469 2.0078-0.91406 0.64844-0.34375 1.3086-0.66797 1.9492-1.0273 1.2305-0.79688 2.5117-1.5273 3.6445-2.4492 0.57422-0.44922 1.1836-0.86328 1.7305-1.3438l1.6367-1.4531c0.26953-0.24609 0.55078-0.48047 0.8125-0.73047l0.75781-0.78125 1.5195-1.5664c0.97656-1.0742 1.8867-2.2031 2.8203-3.3086l1.1484-1.5586c0.14062 0.31641 0.28906 0.63281 0.4375 0.94922 0.5 1.0273 1.0391 2.0391 1.6289 3.0234 0.59375 0.98438 1.2227 1.9492 1.9219 2.8711 0.35156 0.46094 0.69922 0.92578 1.0859 1.3594 0.36719 0.44922 0.76562 0.87891 1.1797 1.2969 0.80859 0.84766 1.7188 1.6172 2.6758 2.3242 0.48047 0.35156 1.0078 0.65625 1.5078 0.98047 0.53906 0.27344 1.0742 0.5625 1.6328 0.80469 1.1289 0.45312 2.3125 0.81641 3.5352 0.96875 0.60938 0.058594 1.2227 0.17188 1.8359 0.125 0.60938-0.019531 1.2305 0.007813 1.8281-0.11328 1.2148-0.13281 2.3789-0.46484 3.5117-0.83594l1.6523-0.66797c0.53516-0.24609 1.043-0.54297 1.5625-0.8125 0.25781-0.14063 0.52344-0.26953 0.76953-0.42188l0.72656-0.47656c0.48047-0.32422 0.97656-0.63281 1.4453-0.96875l1.3594-1.0625c0.45703-0.35156 0.90625-0.70703 1.3164-1.1016 0.83594-0.77344 1.7188-1.5117 2.4805-2.3477 0.78125-0.82031 1.6016-1.6133 2.3164-2.4805 0.72656-0.86328 1.5039-1.6875 2.1836-2.582l0.28516-0.36719c0.19141 0.62109 0.38672 1.2422 0.59766 1.8633 0.53125 1.5273 1.1016 3.043 1.7578 4.5234 0.3125 0.74609 0.67578 1.4727 1.0156 2.2109 0.37109 0.72266 0.73047 1.4492 1.125 2.1641 0.79297 1.4219 1.6328 2.8203 2.582 4.1562 0.47656 0.66797 0.94141 1.3398 1.4766 1.9688l0.77734 0.96094c0.26562 0.31641 0.55859 0.60938 0.83594 0.91406l0.84766 0.90625 0.91406 0.84766c0.30859 0.28125 0.60547 0.57031 0.92188 0.83984l0.99219 0.76953c0.33594 0.25 0.65234 0.52344 1.0039 0.75391l1.0625 0.67578c0.69141 0.47656 1.4531 0.84375 2.2109 1.2148 0.74219 0.41016 1.543 0.68359 2.3398 0.97266 0.78516 0.32812 1.6133 0.50781 2.4375 0.70312 0.41406 0.089844 0.82031 0.21875 1.2383 0.27344l1.2578 0.15234 1.2578 0.14844 1.2617 0.007813c0.83984 0 1.6836 0.03125 2.5117-0.09375 0.82812-0.10547 1.6719-0.14844 2.4844-0.3125l2.4297-0.53516c0.80859-0.17969 1.5742-0.48438 2.3633-0.72656 1.5938-0.45703 3.0469-1.207 4.5586-1.832 0.74609-0.33203 1.4414-0.75 2.168-1.1211 0.71094-0.39062 1.4492-0.74219 2.1367-1.168 1.3555-0.875 2.7617-1.6875 4.0742-2.6172 1.2969-0.95313 2.6289-1.8594 3.8906-2.8516l2.8359-2.3047c1.4414 0.96875 2.8789 1.7891 4.3828 2.5742 1.832 0.94922 3.7148 1.793 5.625 2.5625 1.9258 0.73047 3.8633 1.4258 5.8477 1.9648 1.9727 0.57812 3.9844 1.0234 6.0078 1.3945 2.0234 0.36719 4.0664 0.62891 6.1172 0.79688 2.0508 0.15625 4.1094 0.23438 6.1641 0.18359 1.0273 0.011719 2.0547-0.066406 3.0781-0.13672l1.5391-0.10156 1.5312-0.17969c2.0469-0.20312 4.0625-0.60156 6.0781-0.97656 1.9961-0.48047 3.9961-0.92969 5.9453-1.5703 1.9805-0.54297 3.8711-1.3398 5.7969-2.0273l2.8125-1.2266 1.4023-0.62109 4.1016-2.0742 2.6523-1.5312c1.793-0.98047 3.457-2.1562 5.1758-3.2539 0.86719-0.53906 1.668-1.1641 2.4961-1.7578l2.4648-1.8008c1.6016-1.25 3.1523-2.5664 4.7305-3.8438l3.2773-2.9648c0.37891 0.75391 0.76562 1.4961 1.168 2.2383 0.66797 1.2266 1.375 2.4297 2.1094 3.6133 0.73047 1.1914 1.5039 2.3477 2.3008 3.4961 0.79688 1.1445 1.6367 2.2656 2.5 3.3633 0.875 1.0898 1.7812 2.1602 2.7266 3.1953 0.95312 1.0312 1.9375 2.0312 2.9766 2.9844 2.0703 1.9023 4.3359 3.6289 6.8164 5.0195 1.2383 0.69531 2.5312 1.3125 3.875 1.8008 0.67578 0.23438 1.3398 0.5 2.0469 0.65625 0.69531 0.17969 1.3828 0.375 2.1016 0.46484 0.70703 0.11719 1.418 0.24219 2.1367 0.25781 0.71875 0.046874 1.4336 0.10156 2.1523 0.046874 0.71875-0.03125 1.4375-0.035156 2.1445-0.16797 0.70703-0.11328 1.4258-0.16797 2.1133-0.37109 0.6875-0.1875 1.3984-0.30859 2.0664-0.55859 0.6875-0.25 1.3047-0.45703 2.043-0.74219 1.2422-0.59766 2.4922-1.1133 3.7188-1.9023 0.60156-0.37891 1.2617-0.69531 1.8125-1.125l1.7109-1.2266c0.58594-0.39062 1.0977-0.87109 1.6367-1.3164l0.70312-0.59375c0.40234 1.0273 0.86328 1.9844 1.3594 2.9531 0.32031 0.66016 0.72266 1.2734 1.0781 1.9102 0.35156 0.64062 0.76562 1.2422 1.1719 1.8477 0.41797 0.59766 0.78906 1.2266 1.2422 1.7969l1.3359 1.7266c0.42969 0.58594 0.91406 1.1289 1.4023 1.668l1.4492 1.625c0.98047 1.0664 2.0625 2.0391 3.0898 3.0586 0.50391 0.52344 1.0781 0.96484 1.6289 1.4336l1.6641 1.3945c1.0781 0.96875 2.2969 1.7539 3.457 2.6133l1.7578 1.2656c0.58984 0.41797 1.2227 0.76562 1.832 1.1523l3.6914 2.2539 3.8398 1.9922 1.918 0.99219 1.9844 0.85547 3.9648 1.7109c0.65234 0.30859 1.3438 0.51562 2.0195 0.75781l2.0352 0.71094 4.0703 1.418 8.3047 2.293-8.2266-2.5352-4.0195-1.5312c-1.332-0.53125-2.6953-0.98047-3.9961-1.5742l-3.9062-1.7891-1.9492-0.89453-1.8828-1.0273-3.7617-2.0586-3.6055-2.3125c-0.59375-0.39453-1.2148-0.75391-1.7852-1.1797l-1.707-1.2891c-1.1289-0.875-2.3125-1.6719-3.3516-2.6523l-1.6055-1.4062c-0.53125-0.47266-1.0859-0.92188-1.5703-1.4453-0.98438-1.0273-2.0234-2-2.9609-3.0664l-1.3828-1.6211c-0.46484-0.53516-0.92578-1.0742-1.332-1.6562l-1.2617-1.707c-0.42969-0.5625-0.77734-1.1836-1.168-1.7695-0.38281-0.59375-0.76953-1.1836-1.0938-1.8086-0.32813-0.62109-0.70703-1.2227-0.99609-1.8594-0.60938-1.25-1.2109-2.5664-1.5898-3.8242l-0.35156-1.1641-0.95313 0.78125-1.5625 1.2852c-0.52734 0.42188-1.0273 0.88281-1.5898 1.2461l-1.6523 1.1523c-0.53906 0.41016-1.1367 0.67969-1.6992 1.0273-0.68359 0.4375-1.4531 0.80469-2.2344 1.1641 2.082-2.8242 4.0195-5.5938 5.8164-8.3047l-37.926-3.4609c-0.625-0.82031-1.2344-1.6562-1.8242-2.5039l40.586 3.707 0.59766 0.0625c1.7344-2.6602 2.8516-4.5156 4.1641-6.8086 0.69141 0.11719 1.4766 0.23828 2.1758 0.31641 0.78516 0.089844 1.5703 0.16797 2.3555 0.22656 1.5703 0.11719 3.1484 0.16016 4.7266 0.13281 1.5781-0.03125 3.1602-0.14062 4.7344-0.35156 0.78906-0.10547 1.5703-0.24219 2.3516-0.39453l1.168-0.26172 1.1602-0.31641c0.76562-0.23438 1.5273-0.48828 2.2773-0.79297 0.74609-0.30469 1.4844-0.64062 2.1914-1.0391 0.36328-0.18359 0.70703-0.39844 1.0469-0.62109 0.34766-0.21094 0.68359-0.44141 1.0078-0.69141 0.33203-0.23828 0.65625-0.48438 0.95703-0.76562 0.30469-0.27344 0.62109-0.53125 0.89844-0.83594 0.58203-0.57422 1.0977-1.2148 1.582-1.8711l0.67188-1.0234 0.57422-1.0781c0.32031-0.70313 0.63281-1.4102 0.84766-2.1484 0.27344 0.66016 0.55469 1.3125 0.85938 1.957 0.65625 1.3984 1.3945 2.7617 2.1992 4.0781 0.40625 0.65625 0.82812 1.3047 1.2656 1.9375 0.44922 0.62891 0.90625 1.25 1.3906 1.8555 0.48828 0.59766 0.98047 1.1953 1.5117 1.7539 0.51562 0.57422 1.0781 1.1094 1.6367 1.6367 0.57422 0.51953 1.1562 1.0195 1.7734 1.4883 0.29688 0.24609 0.62109 0.45703 0.9375 0.67969 0.3125 0.22266 0.63281 0.44141 0.96484 0.63672 0.64844 0.41797 1.332 0.77344 2.0195 1.125 0.70312 0.3125 1.3984 0.64844 2.1328 0.88281 0.71875 0.27734 1.4648 0.45703 2.207 0.65625 0.37109 0.089844 0.75391 0.14453 1.1289 0.21875 0.375 0.078125 0.75391 0.13672 1.1367 0.16406l1.1406 0.11328 1.1445 0.03125c0.76172 0.039062 1.5234-0.054688 2.2852-0.074219-0.77734 0.023437-1.5391 0.085937-2.2969 0.011719zm-305.82-291.2c19.395-2.2305 38.684-2.3984 59.25-0.65234-4.6797 3.5547-8.4102 6.293-12.035 9.168-6.0625 4.8086-10.16 10.785-11.242 19.395 11.719-1.6133 19.824-7.5039 25.523-16.785 1.8477-0.25391 3.1406 0.33594 4.543 1.6992-0.61328 18.152-1.457 36.5-4.5898 54.973-2.125-1.0508-2.4023-3.1602-3.2109-4.8828-4.7383-10.098-12.465-16.773-23.07-20.141-0.30078-0.09375-0.69141 0.082031-1.0391 0.13281 0.45312 9.8047 5.7539 18.641 16.125 26.863 0.39844 1.4375-0.51562 2.4531-1.4766 3.9688-16.961-0.66016-34.09-1.668-51.996-5.5586 11.527-6.0508 20.539-13.047 23.508-25.602-8.6602-0.39844-12.566 2.3555-28.59 20.086-0.78906-18.004 0.64062-35.223 3.0977-52.152 0.61328-0.42969 0.89453-0.77344 1.2148-0.81641 0.92188-0.125 1.8594-0.12891 3.2109-0.20312 3.8516 9.0156 10.309 15.328 20.453 18.035 0.035157-6.5195-1.9141-11.969-5.1602-17.195-3.418-5.5156-9.3789-7.125-14.516-10.332z"/>
  <use x="70" y="571.007812" xlink:href="#g"/>
  <use x="72.691406" y="571.007812" xlink:href="#b"/>
  <use x="74.5" y="571.007812" xlink:href="#a"/>
  <use x="76.992188" y="571.007812" xlink:href="#e"/>
  <use x="79.464844" y="571.007812" xlink:href="#d"/>
  <use x="81.21875" y="571.007812" xlink:href="#a"/>
  <use x="83.707031" y="571.007812" xlink:href="#k"/>
  <use x="87.613281" y="571.007812" xlink:href="#j"/>
  <use x="90.238281" y="571.007812" xlink:href="#i"/>
  <use x="93.90625" y="571.007812" xlink:href="#g"/>
  <use x="96.597656" y="571.007812" xlink:href="#e"/>
  <use x="99.074219" y="571.007812" xlink:href="#b"/>
  <use x="100.882812" y="571.007812" xlink:href="#h"/>
  <use x="102.140625" y="571.007812" xlink:href="#c"/>
  <use x="104.664062" y="571.007812" xlink:href="#f"/>
  <use x="108.125" y="571.007812" xlink:href="#v"/>
  <use x="111.167969" y="571.007812" xlink:href="#u"/>
  <use x="112.425781" y="571.007812" xlink:href="#e"/>
  <use x="114.902344" y="571.007812" xlink:href="#f"/>
  <use x="70" y="574.675781" xlink:href="#t"/>
  <use x="71.597656" y="574.675781" xlink:href="#b"/>
  <use x="73.40625" y="574.675781" xlink:href="#c"/>
  <use x="75.925781" y="574.675781" xlink:href="#s"/>
  <use x="81.027344" y="574.675781" xlink:href="#d"/>
  <use x="82.78125" y="574.675781" xlink:href="#r"/>
  <use x="85.390625" y="574.675781" xlink:href="#a"/>
  <use x="89.15625" y="574.675781" xlink:href="#q"/>
  <use x="92.226562" y="574.675781" xlink:href="#c"/>
  <use x="94.75" y="574.675781" xlink:href="#p"/>
  <use x="97.359375" y="574.675781" xlink:href="#o"/>
  <use x="101.25" y="574.675781" xlink:href="#n"/>
  <use x="103.9375" y="574.675781" xlink:href="#b"/>
  <use x="105.75" y="574.675781" xlink:href="#c"/>
  <use x="108.269531" y="574.675781" xlink:href="#m"/>
  <use x="109.527344" y="574.675781" xlink:href="#a"/>
  <use x="112.015625" y="574.675781" xlink:href="#l"/>
  <use x="114.191406" y="574.675781" xlink:href="#d"/>
 </g>
</svg>
