<svg xmlns="http://www.w3.org/2000/svg" xmlns:xlink="http://www.w3.org/1999/xlink" version="1.1" x="0px" y="0px" viewBox="0 0 100 125" enable-background="new 0 0 100 100" xml:space="preserve"><g><path d="M51.653,7.55c0,3.409-2.765,6.174-6.181,6.174c-3.409,0-6.174-2.766-6.174-6.174c0-3.416,2.765-6.182,6.174-6.182   C48.889,1.369,51.653,4.134,51.653,7.55z"/><path d="M96.657,29.438l-10.196-9.295l0.19-9.729L60.362,34.483c2.304,2.957,6.342,5.545,10.753,6.896   c3.252,0.995,6.82,0.672,8.313,0.653l-1.137,2.617c0,0-5.005,0.114-7.902-0.825c-4.784-1.549-9.288-4.311-11.929-7.596   c0,0,0.021-0.593,0.021-0.991c0-2.716-2.336-5.009-4.941-4.877c-0.504,0.003-6.729,0.007-10.34,0.007V19.308   c0-3.23-2.623-5.854-5.854-5.854c-3.23,0-5.854,2.624-5.854,5.854v15.228c0,1.944,0.963,3.657,2.424,4.724h-22.88   c-2.843,0-5.253,1.012-7.237,3.035c-1.983,2.03-2.971,4.464-2.971,7.297v17.293h7.287V49.834l3.775-5.836v21.498l-3.775,5.953   L8.146,95.11c0,2.111,1.71,3.825,3.821,3.825c2.111,0,3.822-1.714,3.822-3.825l0.028-19.172l-0.021-0.018l14.879-17.985   l1.699,1.372L21.021,73.031l9.345,23.821c0.764,1.963,2.975,2.936,4.941,2.176c1.973-0.762,2.947-2.972,2.183-4.941l-7.618-19.416   l5.719-7.717l20.642,0.028V43.184l-11.016,11.02c-0.533,0.532-1.401,0.532-1.934,0c-0.53-0.534-0.53-1.401,0-1.935L56.63,38.922   c0.396-0.391,0.974-0.5,1.49-0.294c0.508,0.213,0.842,0.711,0.842,1.261v27.097h0.028V95.11c0,2.111,1.71,3.825,3.821,3.825   s3.821-1.714,3.821-3.825V71.208L78.27,44.656c1.188-0.096,2.343-0.259,3.42-0.573c3.59-1.052,6.032-3.198,6.882-6.053   c0.11-0.367,0.16-0.747,0.213-1.126l4.741,1.111c1.388,0.232,2.638-0.095,3.762-0.98c1.127-0.889,1.682-2.031,1.682-3.423   C98.969,31.838,98.196,30.445,96.657,29.438z M86.134,37.305c-0.598,1.994-2.429,3.534-5.163,4.329   c-0.479,0.143-0.997,0.213-1.509,0.303l2.868-6.544l3.981,0.931C86.282,36.658,86.226,36.989,86.134,37.305z"/></g><text x="0" y="115" fill="#000000" font-size="5px" font-weight="bold" font-family="'Helvetica Neue', Helvetica, Arial-Unicode, Arial, Sans-serif"></text><text x="0" y="120" fill="#000000" font-size="5px" font-weight="bold" font-family="'Helvetica Neue', Helvetica, Arial-Unicode, Arial, Sans-serif"></text></svg>