<svg height='100px' width='100px'  fill="#000000" xmlns="http://www.w3.org/2000/svg" xmlns:xlink="http://www.w3.org/1999/xlink" version="1.1" x="0px" y="0px" viewBox="0, 0, 70, 100"><g><path d="M56.559,63.82 L57.186,64.713 C73.885,46.093 74.829,17.302 56.665,0 L56.306,0.342 L31.996,29.998 L2.661,29.998 L2.661,35.342 L17.907,37.122 L19.689,55.511 L1.898,100 L10.539,99.416 L29.86,65 L48.927,99.416 L57.07,100 L39.774,55.511 L40.751,45.414 L56.559,63.82 L56.559,63.82 L56.559,63.82 z M57.454,62.039 L40.85,42.274 L41.559,37.122 L65.709,35.342 C64.711,45.169 62.279,54.428 57.454,62.039 L57.454,62.039 L57.454,62.039 z M34.637,29.873 L57.227,2.665 C62.545,9.747 65.212,19.588 65.709,29.999 L34.637,29.873 L34.637,29.873 L34.637,29.873 z" fill="#000000"></path><path d="M26.857,10.841 C31.149,10.841 34.653,14.44 34.653,18.847 C34.653,23.25 31.149,26.85 26.857,26.85 C22.57,26.85 19.065,23.25 19.065,18.847 C19.065,14.44 22.569,10.841 26.857,10.841 L26.857,10.841 L26.857,10.841 z" fill="#000000"></path><path d="M11.093,22.081 C9.376,23.941 5.178,22.859 1.715,19.663 C3.447,21.261 7.633,19.54 11.066,15.821 C12.783,13.961 16.981,15.044 20.444,18.239 C18.712,16.641 14.526,18.362 11.093,22.081" fill="#000000"></path></g></svg>