<svg xmlns="http://www.w3.org/2000/svg" xmlns:xlink="http://www.w3.org/1999/xlink" version="1.1" x="0px" y="0px" viewBox="0 0 50.4 63" enable-background="new 0 0 50.4 50.4" xml:space="preserve"><g><path d="M29.197,12.252c-0.014,0.141-0.031,0.281-0.031,0.424c0,3.336,2.588,6.037,5.781,6.037c3.191,0,5.778-2.702,5.778-6.037   c0-0.144-0.021-0.284-0.029-0.424H29.197z"/><g><path d="M32.471,6.832c0.159-1.244,1.211-2.21,2.498-2.21c1.288,0,2.34,0.966,2.501,2.21h4.152    c-1.202-3.096-3.732-5.231-6.656-5.231c-2.906,0-5.434,2.146-6.652,5.231H32.471z"/><path d="M42.309,9.687c-0.062-0.604-0.174-1.188-0.323-1.75h-4.619c-0.332,1.013-1.271,1.75-2.397,1.75    c-1.124,0-2.064-0.737-2.395-1.75h-4.633c-0.153,0.562-0.269,1.146-0.335,1.75h-1.902v1.437H44.21V9.687H42.309z"/></g><g><path d="M42.212,20.212l-2.034-0.001v14.743H38.52V20.211l-6.749-0.004v14.747h-1.658V20.207l-2.36-0.001    c-4.567,0-7.943,3.725-7.943,8.369v9.479h-5.128l0.472-23.687c4.778,0.251,9.042,1.673,12.079,3.835    c-1.829-4.174-6.441-7.253-12-7.75l0.025-1.271l-3.238-0.003l0.026,1.276C6.495,10.958,1.895,14.035,0.07,18.202    c3.031-2.159,7.285-3.58,12.052-3.835l0.472,23.687H9.871c-3.716,0-3.716,5.086,0,5.086h2.823l0.156,5.811h1.566l0.163-5.811    h7.757v-0.016c1.277,0.009,2.559-0.954,2.559-2.885V29.104h1.62l-0.002,11.373h3.6v-4.004h1.658v4.004h6.749v-4.004h1.658v4.004    h3.586l0.003-11.373h1.588V46.05c0,3.879,5.057,3.879,5.046,0V28.692C50.4,24.412,47.227,20.212,42.212,20.212z"/><rect x="26.513" y="43.792" width="17.25" height="5.143"/></g></g><text x="0" y="65.4" fill="#000000" font-size="5px" font-weight="bold" font-family="'Helvetica Neue', Helvetica, Arial-Unicode, Arial, Sans-serif"></text><text x="0" y="70.4" fill="#000000" font-size="5px" font-weight="bold" font-family="'Helvetica Neue', Helvetica, Arial-Unicode, Arial, Sans-serif"></text></svg>