<svg xmlns="http://www.w3.org/2000/svg" xmlns:xlink="http://www.w3.org/1999/xlink" version="1.1" x="0px" y="0px" viewBox="0 0 141.732 177.165" enable-background="new 0 0 141.732 141.732" xml:space="preserve"><g><g><path d="M70.501,29.282v0.03c0.101,0,0.198-0.013,0.298-0.015c0.1,0.002,0.197,0.015,0.298,0.015v-0.03    c6.042-0.312,10.844-5.295,10.844-11.406c0-6.114-4.802-11.088-10.844-11.399v-0.03c-0.101,0-0.198,0.013-0.298,0.015    c-0.1-0.002-0.197-0.015-0.298-0.015v0.03c-6.042,0.311-10.844,5.285-10.844,11.399C59.658,23.987,64.459,28.971,70.501,29.282z"/><path d="M99.061,75.031L84.217,34.487c-0.136-0.379-0.335-0.712-0.557-1.025c-0.006-0.009-0.013-0.017-0.019-0.025    c-0.087-0.12-0.165-0.247-0.262-0.358h-0.047c-0.475-0.534-1.061-0.916-1.726-1.085l0.018-0.101h-0.26h-0.527h-0.26H61.153h-0.26    h-0.527h-0.26l0.018,0.101c-0.665,0.169-1.251,0.551-1.726,1.085h-0.047c-0.096,0.111-0.175,0.238-0.262,0.358    c-0.006,0.008-0.012,0.016-0.018,0.025c-0.222,0.312-0.421,0.646-0.557,1.025L42.671,75.031c-0.835,2.321,0.368,4.88,2.688,5.717    c2.322,0.835,4.88-0.368,5.716-2.69l9.325-24.008l-1.7,25.891l-8.48,48.912c-0.667,2.998-0.036,5.843,3.875,6.354    c3.91,0.512,7.622-1.505,8.288-4.503l8.482-42.406l8.482,42.406c0.666,2.998,4.378,5.015,8.288,4.503    c3.911-0.511,4.542-3.355,3.875-6.354L83.03,79.94l-1.7-25.891l9.326,24.008c0.836,2.322,3.395,3.525,5.716,2.69    C98.693,79.911,99.896,77.353,99.061,75.031z"/></g></g><text x="0" y="156.732" fill="#000000" font-size="5px" font-weight="bold" font-family="'Helvetica Neue', Helvetica, Arial-Unicode, Arial, Sans-serif"></text><text x="0" y="161.732" fill="#000000" font-size="5px" font-weight="bold" font-family="'Helvetica Neue', Helvetica, Arial-Unicode, Arial, Sans-serif"></text></svg>