<?xml version="1.0" encoding="UTF-8"?>
<svg width="700pt" height="700pt" version="1.1" viewBox="0 0 700 700" xmlns="http://www.w3.org/2000/svg" xmlns:xlink="http://www.w3.org/1999/xlink">
 <defs>
  <symbol id="m" overflow="visible">
   <path d="m32.344-1.9375c-1.668 0.86719-3.4062 1.5156-5.2188 1.9531-1.8047 0.44531-3.6836 0.67188-5.6406 0.67188-5.8672 0-10.512-1.6328-13.938-4.9062-3.4297-3.2812-5.1406-7.7266-5.1406-13.344 0-5.625 1.7109-10.07 5.1406-13.344 3.4258-3.2812 8.0703-4.9219 13.938-4.9219 1.957 0 3.8359 0.21875 5.6406 0.65625 1.8125 0.4375 3.5508 1.0898 5.2188 1.9531v7.2812c-1.6797-1.1445-3.3359-1.9844-4.9688-2.5156-1.6367-0.53125-3.3594-0.79688-5.1719-0.79688-3.2422 0-5.7891 1.0391-7.6406 3.1094-1.8555 2.0742-2.7812 4.9336-2.7812 8.5781 0 3.625 0.92578 6.4805 2.7812 8.5625 1.8516 2.0742 4.3984 3.1094 7.6406 3.1094 1.8125 0 3.5352-0.26562 5.1719-0.79688 1.6328-0.53906 3.2891-1.3828 4.9688-2.5312z"/>
  </symbol>
  <symbol id="h" overflow="visible">
   <path d="m23.672-19.219c-0.74219-0.34375-1.4766-0.59766-2.2031-0.76562-0.73047-0.16406-1.4648-0.25-2.2031-0.25-2.1797 0-3.8516 0.69922-5.0156 2.0938-1.168 1.3984-1.75 3.3867-1.75 5.9688v12.172h-8.4375v-26.406h8.4375v4.3438c1.082-1.7266 2.3281-2.9883 3.7344-3.7812 1.4062-0.80078 3.0859-1.2031 5.0469-1.2031 0.28906 0 0.59766 0.015625 0.92188 0.046875 0.33203 0.023438 0.8125 0.070312 1.4375 0.14062z"/>
  </symbol>
  <symbol id="c" overflow="visible">
   <path d="m30.406-13.266v2.3906h-19.734c0.20703 1.9922 0.92188 3.4805 2.1406 4.4688 1.2266 0.99219 2.9453 1.4844 5.1562 1.4844 1.7695 0 3.5859-0.25781 5.4531-0.78125 1.8633-0.53125 3.7734-1.332 5.7344-2.4062v6.5c-1.9922 0.76172-3.9844 1.3359-5.9844 1.7188-1.9922 0.38281-3.9844 0.57812-5.9844 0.57812-4.7812 0-8.4961-1.2109-11.141-3.6406-2.6484-2.4258-3.9688-5.832-3.9688-10.219 0-4.3125 1.2969-7.7031 3.8906-10.172 2.6016-2.4688 6.1875-3.7031 10.75-3.7031 4.1445 0 7.4609 1.25 9.9531 3.75 2.4883 2.5 3.7344 5.8438 3.7344 10.031zm-8.6719-2.8125c0-1.6016-0.46875-2.8945-1.4062-3.875-0.92969-0.97656-2.1484-1.4688-3.6562-1.4688-1.6367 0-2.9648 0.46094-3.9844 1.375-1.0234 0.91797-1.6562 2.2422-1.9062 3.9688z"/>
  </symbol>
  <symbol id="b" overflow="visible">
   <path d="m15.891-11.875c-1.7617 0-3.0898 0.29688-3.9844 0.89062-0.88672 0.59375-1.3281 1.4766-1.3281 2.6406 0 1.0625 0.35938 1.9023 1.0781 2.5156 0.71875 0.60547 1.7109 0.90625 2.9844 0.90625 1.582 0 2.9141-0.56641 4-1.7031 1.0938-1.1445 1.6406-2.5781 1.6406-4.2969v-0.95312zm12.891-3.1875v15.062h-8.5v-3.9062c-1.1367 1.5938-2.4141 2.7617-3.8281 3.5-1.418 0.72656-3.1367 1.0938-5.1562 1.0938-2.7422 0-4.9648-0.79688-6.6719-2.3906-1.6992-1.6016-2.5469-3.6758-2.5469-6.2188 0-3.0938 1.0625-5.3633 3.1875-6.8125 2.1328-1.4453 5.4766-2.1719 10.031-2.1719h4.9844v-0.65625c0-1.332-0.53125-2.3047-1.5938-2.9219-1.0547-0.625-2.6953-0.9375-4.9219-0.9375-1.8047 0-3.4844 0.18359-5.0469 0.54688-1.5547 0.35547-2.9961 0.89062-4.3281 1.6094v-6.4375c1.8008-0.4375 3.6133-0.76953 5.4375-1 1.8203-0.22656 3.6445-0.34375 5.4688-0.34375 4.7578 0 8.1953 0.94531 10.312 2.8281 2.1133 1.875 3.1719 4.9297 3.1719 9.1562z"/>
  </symbol>
  <symbol id="g" overflow="visible">
   <path d="m13.266-33.906v7.5h8.7031v6.0312h-8.7031v11.203c0 1.2305 0.24219 2.0625 0.73438 2.5 0.48828 0.42969 1.457 0.64062 2.9062 0.64062h4.3281v6.0312h-7.2344c-3.3359 0-5.6992-0.69141-7.0938-2.0781-1.3867-1.3945-2.0781-3.7578-2.0781-7.0938v-11.203h-4.1875v-6.0312h4.1875v-7.5z"/>
  </symbol>
  <symbol id="f" overflow="visible">
   <path d="m22.016-22.531v-14.156h8.4844v36.688h-8.4844v-3.8125c-1.1562 1.5547-2.4375 2.6953-3.8438 3.4219-1.3984 0.71875-3.0156 1.0781-4.8594 1.0781-3.25 0-5.9219-1.2891-8.0156-3.875-2.0859-2.5938-3.125-5.9219-3.125-9.9844 0-4.0703 1.0391-7.3984 3.125-9.9844 2.0938-2.5938 4.7656-3.8906 8.0156-3.8906 1.8203 0 3.4375 0.37109 4.8438 1.1094 1.4141 0.73047 2.7031 1.8672 3.8594 3.4062zm-5.5625 17.078c1.8125 0 3.1914-0.65625 4.1406-1.9688 0.94531-1.3203 1.4219-3.2383 1.4219-5.75 0-2.5195-0.47656-4.4375-1.4219-5.75-0.94922-1.3203-2.3281-1.9844-4.1406-1.9844-1.793 0-3.1641 0.66406-4.1094 1.9844-0.94922 1.3125-1.4219 3.2305-1.4219 5.75 0 2.5117 0.47266 4.4297 1.4219 5.75 0.94531 1.3125 2.3164 1.9688 4.1094 1.9688z"/>
  </symbol>
  <symbol id="e" overflow="visible">
   <path d="m18.109-5.4531c1.8008 0 3.1758-0.65625 4.125-1.9688 0.95703-1.3203 1.4375-3.2383 1.4375-5.75 0-2.5195-0.48047-4.4375-1.4375-5.75-0.94922-1.3203-2.3242-1.9844-4.125-1.9844-1.8125 0-3.2031 0.66797-4.1719 2-0.96094 1.3242-1.4375 3.2344-1.4375 5.7344 0 2.4922 0.47656 4.4023 1.4375 5.7344 0.96875 1.3242 2.3594 1.9844 4.1719 1.9844zm-5.6094-17.078c1.1562-1.5391 2.4414-2.6758 3.8594-3.4062 1.4141-0.73828 3.0391-1.1094 4.875-1.1094 3.2578 0 5.9297 1.2969 8.0156 3.8906 2.0938 2.5859 3.1406 5.9141 3.1406 9.9844 0 4.0625-1.0469 7.3906-3.1406 9.9844-2.0859 2.5859-4.7578 3.875-8.0156 3.875-1.8359 0-3.4609-0.36719-4.875-1.0938-1.418-0.73828-2.7031-1.875-3.8594-3.4062v3.8125h-8.4375v-36.688h8.4375z"/>
  </symbol>
  <symbol id="a" overflow="visible">
   <path d="m0.59375-26.406h8.4375l7.0938 17.922 6.0312-17.922h8.4375l-11.094 28.906c-1.1172 2.9375-2.418 4.9883-3.9062 6.1562-1.4922 1.1758-3.4492 1.7656-5.875 1.7656h-4.8906v-5.5469h2.6406c1.4375 0 2.4766-0.23047 3.125-0.6875 0.65625-0.44922 1.1641-1.2617 1.5312-2.4375l0.23438-0.73438z"/>
  </symbol>
  <symbol id="d" overflow="visible">
   <path d="m4.4375-35.203h24.484v6.8594h-15.406v6.5625h14.484v6.8594h-14.484v8.0625h15.922v6.8594h-25z"/>
  </symbol>
  <symbol id="l" overflow="visible">
   <path d="m3.7656-10.281v-16.125h8.5v2.6406c0 1.4297-0.011719 3.2266-0.03125 5.3906-0.011719 2.1562-0.015625 3.6016-0.015625 4.3281 0 2.1172 0.050781 3.6406 0.15625 4.5781 0.11328 0.9375 0.30078 1.6211 0.5625 2.0469 0.35156 0.55469 0.80469 0.98047 1.3594 1.2812 0.5625 0.29297 1.2031 0.4375 1.9219 0.4375 1.7578 0 3.1406-0.67578 4.1406-2.0312 1.0078-1.3516 1.5156-3.2266 1.5156-5.625v-13.047h8.4375v26.406h-8.4375v-3.8125c-1.2734 1.5312-2.6211 2.668-4.0469 3.4062-1.418 0.72656-2.9844 1.0938-4.7031 1.0938-3.043 0-5.3672-0.92969-6.9688-2.7969-1.5938-1.875-2.3906-4.5977-2.3906-8.1719z"/>
  </symbol>
  <symbol id="k" overflow="visible">
   <path d="m25.391-25.578v6.8906c-1.1484-0.78906-2.2969-1.375-3.4531-1.75s-2.3555-0.5625-3.5938-0.5625c-2.3555 0-4.1875 0.6875-5.5 2.0625s-1.9688 3.2969-1.9688 5.7656c0 2.4609 0.65625 4.3828 1.9688 5.7656 1.3125 1.375 3.1445 2.0625 5.5 2.0625 1.3203 0 2.5703-0.19531 3.75-0.59375 1.1875-0.39453 2.2852-0.97656 3.2969-1.75v6.9062c-1.3242 0.49219-2.668 0.85156-4.0312 1.0938-1.3555 0.25-2.7148 0.375-4.0781 0.375-4.7617 0-8.4844-1.2188-11.172-3.6562-2.6875-2.4453-4.0312-5.8477-4.0312-10.203 0-4.3516 1.3438-7.7539 4.0312-10.203 2.6875-2.4453 6.4102-3.6719 11.172-3.6719 1.3828 0 2.75 0.125 4.0938 0.375 1.3438 0.24219 2.6797 0.60547 4.0156 1.0938z"/>
  </symbol>
  <symbol id="j" overflow="visible">
   <path d="m4.0625-36.688h8.4375v36.688h-8.4375z"/>
  </symbol>
  <symbol id="i" overflow="visible">
   <path d="m12.5-3.8125v13.859h-8.4375v-36.453h8.4375v3.875c1.1562-1.5391 2.4414-2.6758 3.8594-3.4062 1.4141-0.73828 3.0391-1.1094 4.875-1.1094 3.2578 0 5.9297 1.2969 8.0156 3.8906 2.0938 2.5859 3.1406 5.9141 3.1406 9.9844 0 4.0625-1.0469 7.3906-3.1406 9.9844-2.0859 2.5859-4.7578 3.875-8.0156 3.875-1.8359 0-3.4609-0.36719-4.875-1.0938-1.418-0.73828-2.7031-1.875-3.8594-3.4062zm5.6094-17.094c-1.8125 0-3.2031 0.66797-4.1719 2-0.96094 1.3242-1.4375 3.2344-1.4375 5.7344 0 2.4922 0.47656 4.4023 1.4375 5.7344 0.96875 1.3242 2.3594 1.9844 4.1719 1.9844 1.8008 0 3.1758-0.65625 4.125-1.9688 0.95703-1.3203 1.4375-3.2383 1.4375-5.75 0-2.5195-0.48047-4.4375-1.4375-5.75-0.94922-1.3203-2.3242-1.9844-4.125-1.9844z"/>
  </symbol>
 </defs>
 <g>
  <path d="m461.04 55.516v43.449l28.965-21.723z"/>
  <path d="m94.137 98.965v-43.449l-28.965 21.727z"/>
  <path d="m248.62 173.79h-115.86v-96.551h289.66v96.551h-115.86v194.92c3.8828-0.85938 7.8672-1.3789 11.953-1.6016l123.22-54.754v-254.43h-328.27v254.42l135.17 60.066zm115.86 19.309h19.309v19.309h-19.309zm-38.621 0h19.309v19.309h-19.309zm19.309 38.621h19.309v19.309h-19.309zm38.621 57.934h-19.309v-19.309h19.309zm19.309-38.621h-19.309v-19.309h19.309zm19.312-38.621h-19.309v-19.309h19.309zm-251.04-19.312h19.309v19.309h-19.309zm-38.621 0h19.309v19.309l-19.309 0.003906zm19.312 38.621h19.309v19.309l-19.309 0.003906zm38.621 57.934h-19.309v-19.309h19.309zm19.309-38.621h-19.309v-19.309h19.309zm19.309-38.621h-19.309v-19.309h19.309z"/>
  <path d="m557.59 104.23-33.562 128.66 33.562-16.781z"/>
  <path d="m275.15 384.21c3.7383-3.1367 7.7734-5.918 12.09-8.2734v-221.45h115.86v-57.93l-251.04-0.003907v57.93h115.86v226.52z"/>
  <path d="m398.59 0h-242l-32.18 38.621h306.36z"/>
  <path d="m576.9 104.23v111.88l33.559 16.781z"/>
  <path d="m552.57 289.66h29.332l28.262-35.328-42.926-21.465-42.926 21.465z"/>
  <path d="m289.82 484.69 44.801 33.59 65.395-65.395-33.59-44.801c-10.285-13.691-26.652-21.879-43.777-21.879-30.176 0-54.719 24.543-54.719 54.715 0 17.129 8.1797 33.496 21.891 43.77z"/>
  <path d="m557.59 386.21h19.309v173.79h-19.309z"/>
  <path d="m499.66 308.96v19.309h9.6562c23.309 0 42.812 16.617 47.301 38.621h21.262c4.4883-22.004 23.984-38.621 47.301-38.621h9.6562v-19.309z"/>
  <path d="m113.45 473.1v86.898h96.551v-173.79h-9.6562c-47.906 0-86.895 38.977-86.895 86.895z"/>
  <path d="m528.62 502.07h-20.961c-2.5781 0-5.0117 1.0039-6.8359 2.8281l-16.48 16.48h-38.09l-32.18 38.621h114.55c5.3203 0 9.6562-4.3242 9.6562-9.6562v-38.621c0-5.3281-4.3359-9.6523-9.6562-9.6523z"/>
  <path d="m398.28 481.93-39.453 39.449 30.145 30.133c1.2852 1.2852 2.6953 2.4141 4.1797 3.418l35.512-42.617z"/>
  <path d="m336.43 543.78-58.203-43.645c-18.539-13.902-29.602-36.043-29.602-59.215 0-15.438 4.7617-29.777 12.871-41.645l-29.402-13.07h-2.7812v173.79h140.83l-24.969-24.969z"/>
  <use x="65.171875" y="704.828125" xlink:href="#m"/>
  <use x="100.601562" y="704.828125" xlink:href="#h"/>
  <use x="124.410156" y="704.828125" xlink:href="#c"/>
  <use x="157.152344" y="704.828125" xlink:href="#b"/>
  <use x="189.726562" y="704.828125" xlink:href="#g"/>
  <use x="212.804688" y="704.828125" xlink:href="#c"/>
  <use x="245.546875" y="704.828125" xlink:href="#f"/>
  <use x="296.910156" y="704.828125" xlink:href="#e"/>
  <use x="331.46875" y="704.828125" xlink:href="#a"/>
  <use x="379.742188" y="704.828125" xlink:href="#d"/>
  <use x="412.722656" y="704.828125" xlink:href="#l"/>
  <use x="447.089844" y="704.828125" xlink:href="#k"/>
  <use x="475.707031" y="704.828125" xlink:href="#b"/>
  <use x="508.28125" y="704.828125" xlink:href="#j"/>
  <use x="524.832031" y="704.828125" xlink:href="#a"/>
  <use x="556.300781" y="704.828125" xlink:href="#i"/>
 </g>
</svg>
