<?xml version="1.0" encoding="UTF-8"?>
<svg width="700pt" height="700pt" version="1.1" viewBox="0 0 700 700" xmlns="http://www.w3.org/2000/svg" xmlns:xlink="http://www.w3.org/1999/xlink">
 <defs>
  <symbol id="n" overflow="visible">
   <path d="m33.5-2c-1.7305 0.89844-3.5312 1.5703-5.4062 2.0156-1.8672 0.45703-3.8203 0.6875-5.8594 0.6875-6.0625 0-10.871-1.6914-14.422-5.0781-3.5547-3.3945-5.3281-8-5.3281-13.812 0-5.8203 1.7734-10.43 5.3281-13.828 3.5508-3.3945 8.3594-5.0938 14.422-5.0938 2.0391 0 3.9922 0.23047 5.8594 0.6875 1.875 0.44922 3.6758 1.1211 5.4062 2.0156v7.5469c-1.7422-1.1875-3.4609-2.0547-5.1562-2.6094-1.6875-0.55078-3.4688-0.82812-5.3438-0.82812-3.3555 0-5.9961 1.0742-7.9219 3.2188-1.918 2.1484-2.875 5.1094-2.875 8.8906 0 3.7617 0.95703 6.7148 2.875 8.8594 1.9258 2.1484 4.5664 3.2188 7.9219 3.2188 1.875 0 3.6562-0.27344 5.3438-0.82812 1.6953-0.55078 3.4141-1.4219 5.1562-2.6094z"/>
  </symbol>
  <symbol id="h" overflow="visible">
   <path d="m24.516-19.891c-0.77344-0.36328-1.5391-0.62891-2.2969-0.79688-0.75-0.17578-1.5078-0.26562-2.2656-0.26562-2.25 0-3.9844 0.72656-5.2031 2.1719-1.2109 1.4375-1.8125 3.5-1.8125 6.1875v12.594h-8.7344v-27.344h8.7344v4.4844c1.125-1.7812 2.4141-3.082 3.875-3.9062 1.457-0.82031 3.2031-1.2344 5.2344-1.2344 0.28906 0 0.60938 0.011719 0.95312 0.03125 0.34375 0.023438 0.83594 0.074219 1.4844 0.15625z"/>
  </symbol>
  <symbol id="a" overflow="visible">
   <path d="m31.5-13.75v2.5h-20.438c0.20703 2.0547 0.94531 3.5898 2.2188 4.6094 1.2695 1.0234 3.0469 1.5312 5.3281 1.5312 1.832 0 3.7109-0.26953 5.6406-0.8125 1.9375-0.53906 3.9219-1.3672 5.9531-2.4844v6.75c-2.0742 0.78125-4.1406 1.3711-6.2031 1.7656s-4.1328 0.59375-6.2031 0.59375c-4.9492 0-8.793-1.2539-11.531-3.7656-2.7422-2.5195-4.1094-6.0469-4.1094-10.578 0-4.4688 1.3438-7.9766 4.0312-10.531 2.6953-2.5508 6.4062-3.8281 11.125-3.8281 4.2891 0 7.7266 1.2969 10.312 3.8906 2.582 2.5859 3.875 6.0391 3.875 10.359zm-8.9844-2.9062c0-1.6562-0.48438-2.9883-1.4531-4-0.96875-1.0195-2.2344-1.5312-3.7969-1.5312-1.6992 0-3.0781 0.47656-4.1406 1.4219-1.0547 0.94922-1.7109 2.3203-1.9688 4.1094z"/>
  </symbol>
  <symbol id="b" overflow="visible">
   <path d="m16.453-12.312c-1.8242 0-3.1953 0.3125-4.1094 0.9375-0.91797 0.61719-1.375 1.5273-1.375 2.7344 0 1.1055 0.36719 1.9688 1.1094 2.5938 0.73828 0.625 1.7656 0.9375 3.0781 0.9375 1.6445 0 3.0312-0.58594 4.1562-1.7656 1.125-1.1758 1.6875-2.6484 1.6875-4.4219v-1.0156zm13.359-3.2812v15.594h-8.8125v-4.0469c-1.1797 1.6562-2.5 2.8672-3.9688 3.625-1.4609 0.75-3.2422 1.125-5.3438 1.125-2.8242 0-5.1211-0.82031-6.8906-2.4688-1.7617-1.6562-2.6406-3.8008-2.6406-6.4375 0-3.207 1.0977-5.5547 3.2969-7.0469 2.207-1.5 5.6719-2.25 10.391-2.25h5.1562v-0.6875c0-1.3828-0.54688-2.3945-1.6406-3.0312-1.0938-0.64453-2.793-0.96875-5.0938-0.96875-1.875 0-3.6211 0.1875-5.2344 0.5625-1.6172 0.375-3.1094 0.93359-4.4844 1.6719v-6.6562c1.8633-0.45703 3.7383-0.80078 5.625-1.0312 1.8945-0.23828 3.7852-0.35938 5.6719-0.35938 4.9375 0 8.5 0.97656 10.688 2.9219 2.1875 1.9375 3.2812 5.1016 3.2812 9.4844z"/>
  </symbol>
  <symbol id="g" overflow="visible">
   <path d="m13.75-35.109v7.7656h9v6.25h-9v11.594c0 1.2734 0.25 2.1328 0.75 2.5781 0.50781 0.44922 1.5078 0.67188 3 0.67188h4.5v6.25h-7.5c-3.4492 0-5.8984-0.71875-7.3438-2.1562-1.4375-1.4453-2.1562-3.8945-2.1562-7.3438v-11.594h-4.3438v-6.25h4.3438v-7.7656z"/>
  </symbol>
  <symbol id="f" overflow="visible">
   <path d="m22.797-23.344v-14.641h8.7969v37.984h-8.7969v-3.9531c-1.1992 1.6172-2.5234 2.7969-3.9688 3.5469-1.4492 0.73828-3.125 1.1094-5.0312 1.1094-3.375 0-6.1484-1.3359-8.3125-4.0156-2.1562-2.6758-3.2344-6.1172-3.2344-10.328 0-4.2188 1.0781-7.6641 3.2344-10.344 2.1641-2.6758 4.9375-4.0156 8.3125-4.0156 1.8828 0 3.5547 0.38281 5.0156 1.1406 1.457 0.75 2.7852 1.9219 3.9844 3.5156zm-5.75 17.703c1.8633 0 3.2852-0.67969 4.2656-2.0469 0.98828-1.3633 1.4844-3.3477 1.4844-5.9531 0-2.6016-0.49609-4.5859-1.4844-5.9531-0.98047-1.375-2.4023-2.0625-4.2656-2.0625-1.8555 0-3.2773 0.6875-4.2656 2.0625-0.99219 1.3672-1.4844 3.3516-1.4844 5.9531 0 2.6055 0.49219 4.5898 1.4844 5.9531 0.98828 1.3672 2.4102 2.0469 4.2656 2.0469z"/>
  </symbol>
  <symbol id="e" overflow="visible">
   <path d="m18.75-5.6406c1.875 0 3.3008-0.67969 4.2812-2.0469 0.98828-1.3633 1.4844-3.3477 1.4844-5.9531 0-2.6016-0.49609-4.5859-1.4844-5.9531-0.98047-1.375-2.4062-2.0625-4.2812-2.0625s-3.3125 0.6875-4.3125 2.0625-1.5 3.3594-1.5 5.9531c0 2.5859 0.5 4.5625 1.5 5.9375s2.4375 2.0625 4.3125 2.0625zm-5.8125-17.703c1.207-1.5938 2.5391-2.7656 4-3.5156 1.4688-0.75781 3.1562-1.1406 5.0625-1.1406 3.3633 0 6.1289 1.3398 8.2969 4.0156 2.1641 2.6797 3.25 6.125 3.25 10.344 0 4.2109-1.0859 7.6523-3.25 10.328-2.168 2.6797-4.9336 4.0156-8.2969 4.0156-1.9062 0-3.5938-0.375-5.0625-1.125-1.4609-0.75781-2.793-1.9375-4-3.5312v3.9531h-8.7344v-37.984h8.7344z"/>
  </symbol>
  <symbol id="d" overflow="visible">
   <path d="m0.60938-27.344h8.7344l7.3594 18.547 6.25-18.547h8.7344l-11.5 29.938c-1.1562 3.0391-2.5078 5.1641-4.0469 6.375-1.5312 1.2188-3.5586 1.8281-6.0781 1.8281h-5.0625v-5.75h2.7344c1.4883 0 2.5664-0.23438 3.2344-0.70312 0.67578-0.46875 1.2031-1.3125 1.5781-2.5312l0.25-0.76562z"/>
  </symbol>
  <symbol id="c" overflow="visible">
   <path d="m19.188-22.344c1.4766 0 2.5977-0.32031 3.3594-0.96875 0.76953-0.65625 1.1562-1.6172 1.1562-2.8906 0-1.25-0.38672-2.2031-1.1562-2.8594-0.76172-0.65625-1.8828-0.98438-3.3594-0.98438h-5.2031v7.7031zm0.3125 15.953c1.8945 0 3.3164-0.39844 4.2656-1.2031 0.95703-0.80078 1.4375-2.0039 1.4375-3.6094 0-1.582-0.47656-2.7656-1.4219-3.5469-0.94922-0.78906-2.375-1.1875-4.2812-1.1875h-5.5156v9.5469zm8.75-13.109c2.0195 0.58594 3.582 1.668 4.6875 3.25 1.1016 1.5742 1.6562 3.5078 1.6562 5.7969 0 3.5234-1.1875 6.1484-3.5625 7.875-2.375 1.7188-5.9922 2.5781-10.844 2.5781h-15.594v-36.453h14.109c5.0625 0 8.7266 0.76562 11 2.2969 2.2695 1.5312 3.4062 3.9805 3.4062 7.3438 0 1.7812-0.41797 3.2969-1.25 4.5469-0.83594 1.2422-2.0391 2.1641-3.6094 2.7656z"/>
  </symbol>
  <symbol id="m" overflow="visible">
   <path d="m31.688-16.656v16.656h-8.7812v-12.75c0-2.3516-0.058594-3.9766-0.17188-4.875-0.10547-0.89453-0.28906-1.5547-0.54688-1.9844-0.33594-0.5625-0.79688-1-1.3906-1.3125-0.58594-0.32031-1.25-0.48438-2-0.48438-1.8242 0-3.2578 0.70312-4.2969 2.1094-1.043 1.4062-1.5625 3.3555-1.5625 5.8438v13.453h-8.7344v-27.344h8.7344v4c1.3203-1.5938 2.7227-2.7656 4.2031-3.5156 1.4766-0.75781 3.1133-1.1406 4.9062-1.1406 3.1562 0 5.5508 0.96875 7.1875 2.9062 1.6328 1.9375 2.4531 4.75 2.4531 8.4375z"/>
  </symbol>
  <symbol id="l" overflow="visible">
   <path d="m13.984-29.344v22.234h3.375c3.8438 0 6.7734-0.94531 8.7969-2.8438 2.0312-1.9062 3.0469-4.6758 3.0469-8.3125 0-3.6133-1.0117-6.3633-3.0312-8.25-2.0234-1.8828-4.9609-2.8281-8.8125-2.8281zm-9.3906-7.1094h9.9062c5.5312 0 9.6484 0.39844 12.359 1.1875 2.7188 0.79297 5.0469 2.1328 6.9844 4.0156 1.707 1.6484 2.9727 3.543 3.7969 5.6875 0.83203 2.1484 1.25 4.5781 1.25 7.2969 0 2.75-0.41797 5.2031-1.25 7.3594-0.82422 2.1562-2.0898 4.0586-3.7969 5.7031-1.9609 1.8867-4.3086 3.2266-7.0469 4.0156-2.7305 0.79297-6.8281 1.1875-12.297 1.1875h-9.9062z"/>
  </symbol>
  <symbol id="k" overflow="visible">
   <path d="m0.75-27.344h8.75l6.8125 18.891 6.7812-18.891h8.7656l-10.766 27.344h-9.5938z"/>
  </symbol>
  <symbol id="j" overflow="visible">
   <path d="m4.2031-27.344h8.7344v27.344h-8.7344zm0-10.641h8.7344v7.125h-8.7344z"/>
  </symbol>
  <symbol id="i" overflow="visible">
   <path d="m25.562-26.484v6.6406c-1.875-0.78125-3.6836-1.3633-5.4219-1.75-1.7422-0.39453-3.3867-0.59375-4.9375-0.59375-1.6562 0-2.8906 0.21094-3.7031 0.625-0.80469 0.40625-1.2031 1.043-1.2031 1.9062 0 0.69922 0.30469 1.2344 0.92188 1.6094 0.61328 0.375 1.707 0.65234 3.2812 0.82812l1.5469 0.21875c4.4688 0.57422 7.4727 1.5117 9.0156 2.8125 1.5508 1.3047 2.3281 3.3438 2.3281 6.125 0 2.918-1.0742 5.1094-3.2188 6.5781-2.1484 1.4609-5.3555 2.1875-9.625 2.1875-1.8047 0-3.668-0.14062-5.5938-0.42188-1.9297-0.28125-3.9141-0.70703-5.9531-1.2812v-6.6406c1.7383 0.84375 3.5234 1.4805 5.3594 1.9062 1.832 0.41797 3.6914 0.625 5.5781 0.625 1.707 0 2.9922-0.23438 3.8594-0.70312 0.86328-0.46875 1.2969-1.1641 1.2969-2.0938 0-0.78125-0.29688-1.3633-0.89062-1.75-0.59375-0.38281-1.7773-0.67969-3.5469-0.89062l-1.5469-0.20312c-3.8867-0.47656-6.6094-1.3789-8.1719-2.7031-1.5625-1.3203-2.3438-3.3203-2.3438-6 0-2.8945 0.98828-5.0391 2.9688-6.4375 1.9883-1.4062 5.0352-2.1094 9.1406-2.1094 1.6016 0 3.2891 0.125 5.0625 0.375 1.7812 0.24219 3.7109 0.62109 5.7969 1.1406z"/>
  </symbol>
 </defs>
 <path transform="matrix(10,0,0,10,65,10)" d="m16 48c0 3.3141-2.6859 6-6 6-3.3141 0-6-2.6859-6-6 0-3.3141 2.6859-6 6-6 3.3141 0 6 2.6859 6 6z" fill="none" stroke="#000" stroke-width="2"/>
 <path transform="matrix(10,0,0,10,65,10)" d="m42 48c0 3.3141-2.6859 6-6 6-3.3141 0-6-2.6859-6-6 0-3.3141 2.6859-6 6-6 3.3141 0 6 2.6859 6 6z" fill="none" stroke="#000" stroke-width="2"/>
 <path transform="matrix(10,0,0,10,65,10)" d="m0 39.182v7.6371c0 0.65312 0.52891 1.182 1.1809 1.182h2.8191c0-3.3141 2.6859-6 6-6 3.3141 0 6 2.6859 6 6h14c0-3.3141 2.6859-6 6-6 3.3141 0 6 2.6859 6 6h2.8191c0.65195 0 1.1809-0.52891 1.1809-1.182v-7.6371c0-0.65195-0.52891-1.1809-1.1809-1.1809h-43.638c-0.65195 0-1.1809 0.52891-1.1809 1.1809z" fill="none" stroke="#000" stroke-width="2"/>
 <path d="m185 490c0 11.051-8.9492 20-20 20s-20-8.9492-20-20c0-11.051 8.9492-20 20-20s20 8.9492 20 20" fill-rule="evenodd"/>
 <path d="m445 490c0 11.051-8.9492 20-20 20s-20-8.9492-20-20c0-11.051 8.9492-20 20-20s20 8.9492 20 20" fill-rule="evenodd"/>
 <path transform="matrix(10,0,0,10,65,10)" d="m13.638 38 9.3621-20h-4l-10 20z" fill="none" stroke="#000" stroke-width="2"/>
 <path transform="matrix(10,0,0,10,65,10)" d="m34.362 38-9.3621-20h4l10 20z" fill="none" stroke="#000" stroke-width="2"/>
 <path transform="matrix(10,0,0,10,65,10)" d="m29 18h-10v-7.207c0-0.43789 0.35508-0.79297 0.79297-0.79297h8.4141c0.43789 0 0.79297 0.35508 0.79297 0.79297z" fill="none" stroke="#000" stroke-width="2"/>
 <path transform="matrix(10,0,0,10,65,10)" d="m19 15-14 5" fill="none" stroke="#000" stroke-width="2"/>
 <path transform="matrix(10,0,0,10,65,10)" d="m52 22-4 4 1 4 5 1 3-3-1-4zm0 0" fill="none" stroke="#000" stroke-linecap="round" stroke-linejoin="round" stroke-width="2"/>
 <path transform="matrix(10,0,0,10,65,10)" d="m29 13.001 20-10" fill="none" stroke="#000" stroke-width="2"/>
 <path transform="matrix(10,0,0,10,65,10)" d="m49 6h6v-6h-6zm0 0" fill="none" stroke="#000" stroke-linecap="round" stroke-linejoin="round" stroke-width="2"/>
 <path transform="matrix(10,0,0,10,65,10)" d="m5 27h-5v-5l5-2zm0 0" fill="none" stroke="#000" stroke-linecap="round" stroke-linejoin="round" stroke-width="2"/>
 <path transform="matrix(10,0,0,10,65,10)" d="m10 27h-5v-7l5 2zm0 0" fill="none" stroke="#000" stroke-linecap="round" stroke-linejoin="round" stroke-width="2"/>
 <path transform="matrix(10,0,0,10,65,10)" d="m52 22 2.1238 1.0621c0.54102-1.809 0.87617-4.3051 0.87617-7.0621 0-5.523-1.343-10-3-10s-3 4.477-3 10c0 3.1891 0.44883 6.0223 1.1469 7.8531zm0 0" fill="none" stroke="#000" stroke-linecap="round" stroke-linejoin="round" stroke-width="2"/>
 <path transform="matrix(10,0,0,10,65,10)" d="m19 27 5 11" fill="none" stroke="#000" stroke-width="2"/>
 <path transform="matrix(10,0,0,10,65,10)" d="m29 27-5 11" fill="none" stroke="#000" stroke-width="2"/>
 <path transform="matrix(10,0,0,10,65,10)" d="m46 43h8" fill="none" stroke="#000" stroke-linecap="round" stroke-width="2"/>
 <path transform="matrix(10,0,0,10,65,10)" d="m51 43v3" fill="none" stroke="#000" stroke-linecap="round" stroke-width="2"/>
 <path d="m315 150c0 5.5195-4.4805 10-10 10s-10-4.4805-10-10c0-5.5195 4.4805-10 10-10s10 4.4805 10 10" fill-rule="evenodd"/>
 <g>
  <use x="55" y="710" xlink:href="#n"/>
  <use x="91.695312" y="710" xlink:href="#h"/>
  <use x="116.351563" y="710" xlink:href="#a"/>
  <use x="150.265625" y="710" xlink:href="#b"/>
  <use x="184.003906" y="710" xlink:href="#g"/>
  <use x="207.90625" y="710" xlink:href="#a"/>
  <use x="241.816406" y="710" xlink:href="#f"/>
  <use x="295.015625" y="710" xlink:href="#e"/>
  <use x="330.804688" y="710" xlink:href="#d"/>
  <use x="380.804688" y="710" xlink:href="#c"/>
  <use x="418.914062" y="710" xlink:href="#a"/>
  <use x="452.828125" y="710" xlink:href="#m"/>
  <use x="505.828125" y="710" xlink:href="#l"/>
  <use x="547.335938" y="710" xlink:href="#b"/>
  <use x="581.074219" y="710" xlink:href="#k"/>
  <use x="613.667969" y="710" xlink:href="#j"/>
  <use x="630.804688" y="710" xlink:href="#i"/>
 </g>
</svg>
