<svg xmlns:dc="http://purl.org/dc/elements/1.1/" xmlns:cc="http://creativecommons.org/ns#" xmlns:rdf="http://www.w3.org/1999/02/22-rdf-syntax-ns#" xmlns:svg="http://www.w3.org/2000/svg" xmlns="http://www.w3.org/2000/svg" xmlns:sodipodi="http://sodipodi.sourceforge.net/DTD/sodipodi-0.dtd" xmlns:inkscape="http://www.inkscape.org/namespaces/inkscape" viewBox="0 0 100 125" version="1.1" x="0px" y="0px"><g transform="translate(0,-952.36216)"><path style="color:#000000;clip-rule:nonzero;display:inline;overflow:visible;visibility:visible;opacity:1;isolation:auto;mix-blend-mode:normal;color-interpolation:sRGB;color-interpolation-filters:linearRGB;solid-color:#000000;solid-opacity:1;fill:#000000;fill-opacity:1;fill-rule:nonzero;stroke:none;stroke-width:30;stroke-linecap:round;stroke-linejoin:round;stroke-miterlimit:4;stroke-dasharray:none;stroke-dashoffset:0;stroke-opacity:1;color-rendering:auto;image-rendering:auto;shape-rendering:auto;text-rendering:auto;enable-background:accumulate" d="m 44.8091,957.36227 -4.7626,1.0372 -12.45,11.1293 -1.8897,-2.2319 -1.6579,1.4014 2.0423,2.4129 a 2.2556361,2.2556361 0 0 0 -0.6748,-0.119 2.2556361,2.2556361 0 0 0 -2.1243,3.1464 c 0.031,0.077 0.062,0.1452 0.094,0.2216 l -2.1851,1.8475 1.1126,1.3157 1.7773,-1.5035 c 2.0441,4.6982 3.9702,8.0548 6.5027,10.4043 2.74,2.5423 6.1777,3.6011 10.2199,3.6853 l 0,18.19023 c 1.8748,-0.7725 3.7385,-1.7591 5.6228,-2.7801 2.0232,-1.0962 4.1374,-2.2557 6.4088,-3.1492 l 0,-12.23863 17.7402,0 a 2.2632331,2.2632331 0 1 0 0,-4.5261 l -17.7402,0 -12.0316,0 c -3.2942,-0.064 -5.2633,-0.7312 -7.1523,-2.4836 -1.9096,-1.7717 -3.7783,-4.9646 -5.9289,-10.0671 l 2.4586,2.9065 1.6579,-1.4028 -1.8877,-2.2321 13.0374,-10.4364 1.8107,-4.524 0,0 0,0 z m 2.0336,15.2678 c -3.1876,0 -5.7729,2.5782 -5.7729,5.7461 0,3.1875 2.5853,5.7458 5.7729,5.7458 3.167,0 5.7459,-2.5583 5.7459,-5.7458 0,-3.1679 -2.578,-5.7461 -5.7459,-5.7461 z m 14.1583,29.93403 c -1.0219,0 -2.0463,0.037 -3.0577,0.1896 -3.8139,0.5751 -7.284,2.4635 -10.6752,4.301 -3.3931,1.8385 -6.8753,3.6844 -10.683,4.3126 -1.9032,0.3141 -3.8579,0.3141 -5.7611,0 l 0,3.2191 0.1421,0.023 c 1.8085,0.2984 3.6682,0.2984 5.4766,0 3.6211,-0.5975 7.0212,-2.383 10.4096,-4.219 3.3903,-1.837 6.9456,-3.7912 10.961,-4.3967 0.863,-0.1301 1.7184,-0.1783 2.5579,-0.1939 0.8396,-0.016 1.6635,0 2.4636,0 l 0,-3.2306 c -0.6083,0 -1.2207,-0.01 -1.8338,-0.01 z m 0,4.978 c -1.0048,0 -1.9865,0.036 -2.9305,0.1785 -3.6126,0.5448 -6.9975,2.3673 -10.3897,4.2053 -3.3979,1.8411 -6.9624,3.7477 -10.9568,4.4068 -1.9506,0.3218 -3.9502,0.3286 -5.9032,0.022 l 0,6.7846 c 1.4018,-1.4424 3.1096,-2.6284 5.0777,-3.4436 1.9421,-0.8045 3.9669,-1.178 5.9539,-1.1611 5.961,0.051 11.6094,3.6091 14.0228,9.4355 1.0168,2.4548 1.3398,5.0315 1.0617,7.5096 l 5.8948,0 15.9673,0 0,-3.4921 -15.9673,0 0,-24.4402 c -0.6165,0 -1.2277,-0.01 -1.8307,-0.01 z m -19.1636,12.7385 c -1.759,-0.015 -3.5479,0.3145 -5.2707,1.0281 -6.8913,2.8545 -10.1841,10.8039 -7.3296,17.6952 2.8545,6.8914 10.8039,10.1841 17.6952,7.3296 6.8914,-2.8545 10.1841,-10.8039 7.3296,-17.6952 -2.1409,-5.1685 -7.1476,-8.3128 -12.4245,-8.3577 z m -0.011,3.4808 c 3.9177,0.024 7.6096,2.3525 9.2088,6.2133 2.1323,5.1477 -0.2921,11.0004 -5.4398,13.1327 -5.1477,2.1322 -11.0005,-0.2922 -13.1327,-5.4399 -2.1323,-5.1477 0.2921,-11.0004 5.4398,-13.1327 1.2869,-0.5331 2.618,-0.7813 3.9239,-0.7734 z m -0.077,6.5675 a 3.4921149,3.4921149 0 0 0 -3.4921,3.4921 3.4921149,3.4921149 0 0 0 3.4921,3.4921 3.4921149,3.4921149 0 0 0 3.4921,-3.4921 3.4921149,3.4921149 0 0 0 -3.4921,-3.4921 z"/></g><text x="0" y="115" fill="#000000" font-size="5px" font-weight="bold" font-family="'Helvetica Neue', Helvetica, Arial-Unicode, Arial, Sans-serif"></text><text x="0" y="120" fill="#000000" font-size="5px" font-weight="bold" font-family="'Helvetica Neue', Helvetica, Arial-Unicode, Arial, Sans-serif"></text></svg>