<svg xmlns="http://www.w3.org/2000/svg" xmlns:xlink="http://www.w3.org/1999/xlink" version="1.1" x="0px" y="0px" viewBox="0 0 100 125" enable-background="new 0 0 100 100" xml:space="preserve"><path d="M63.869,32.821c0,0-6.71,7.11-21.333,5.608c0,0-9.013-1.902-13.669-0.05c0,0-2.404-3.956-6.911-4.457  c-4.506-0.501-7.812,1.502-11.767,1.102c0,0,1.402,1.302,3.004,1.452c0,0-2.253,0.768-3.605,2.161  c-1.352,1.395-3.605,2.496-3.605,2.496s4.156,0.851,6.159-0.401c0,0-3.355,4.407-7.562,6.51c0,0,2.604,1.103,4.557,0  c0,0-0.751,3.855-3.605,7.161c0,0,3.104-0.05,4.356-1.853c0,0-0.601,4.856,0.951,7.561c0,0,3.756-3.654,3.455-8.512  c0,0,1.716,1.376,2.092,3.066c0,0,1.114-3.066,1.213-5.921c0.101-2.854,1.502-11.316,7.662-7.611c0,0-3.805,5.658-2.153,12.969  c1.653,7.312,3.08,11.567,1.427,15.849c0,0-1.577,2.253-0.526,4.056c1.052,1.803,1.502,8.413,1.653,10.741  c0,0,0.901,0.602,1.752,2.254c0,0-1.202,1.553-1.553,3.205c0,0,2.855,1.352,6.411,0.5c0,0-0.551-2.854-2.554-5.607  c0,0-2.103-7.312-1.802-11.018c0,0,8.211-3.504,9.915-15.723c0,0,0.3-2.942,4.037-1.835c3.737,1.108,11.21,6.441,23.98,4.714  c0,0-0.902,6.385,0,12.619c0.9,6.233,0.412,8.412,0.188,11.078c0,0-1.09,0.827-0.188,2.142c0,0-0.826,0.826-0.714,2.703  c0,0,3.343,0.677,5.821,0.451c0,0-0.15-2.816-1.99-5.183c0,0-0.488-6.509,0.112-10.766c0,0,4.557-6.761,5.608-13.82  c0,0,6.56-7.412,4.156-22.359c-2.404-14.947,2.704-12.693,5.184-11.792c2.479,0.901,4.029,0.351,6.834,1.903  c0,0,1.014,1.552,2.705,0.237c1.689-1.314,3.404-2.691-0.602-6.447c-4.006-3.755-3.656-6.509-5.76-7.361c0,0-0.676-3.28,0.025-4.908  c0,0-1.402,0.751-1.877,1.578c0,0-1.053-0.826-1.428-2.303c0,0-1.702,1.677-2.229,3.855c0,0-2.854-2.378-6.91-1.878  c-4.056,0.501-6.059,0.05-6.059,0.05s1.602,2.604,3.205,2.804c0,0-1.766-0.338-3.192,0.038s-2.892,0.188-2.892,0.188  s1.99,1.84,4.018,2.104c0,0-2.778,0.038-4.994,1.84c0,0,1.615,0.15,3.004,1.052c0,0-3.191,0.338-4.92,2.516  c0,0,1.465,0.676,2.479,0.488c0,0-2.141,1.953-4.168,2.667c0,0,1.201,1.014,3.042,0.488c0,0-1.427,2.065-4.47,3.117  c0,0,2.066,1.239,3.831,0.487c0,0-1.728,2.216-3.868,2.817C59.801,31.645,62.191,33.209,63.869,32.821z"/><text x="0" y="115" fill="#000000" font-size="5px" font-weight="bold" font-family="'Helvetica Neue', Helvetica, Arial-Unicode, Arial, Sans-serif"></text><text x="0" y="120" fill="#000000" font-size="5px" font-weight="bold" font-family="'Helvetica Neue', Helvetica, Arial-Unicode, Arial, Sans-serif"></text></svg>