<svg xmlns="http://www.w3.org/2000/svg" xmlns:xlink="http://www.w3.org/1999/xlink" version="1.1" x="0px" y="0px" viewBox="0 0 48 60" style="enable-background:new 0 0 48 48;" xml:space="preserve"><g><g><path d="M11,46c-0.12,0-0.23-0.02-0.35-0.06C10.26,45.79,10,45.42,10,45v-7H3c-0.42,0-0.79-0.26-0.94-0.65    c-0.15-0.39-0.03-0.83,0.29-1.11l7-6C9.53,30.08,9.76,30,10,30h7c0.55,0,1,0.45,1,1v7c0,0.24-0.09,0.47-0.24,0.65l-6,7    C11.57,45.88,11.29,46,11,46z M5.7,36H11c0.55,0,1,0.45,1,1v5.3l4-4.67V32h-5.63L5.7,36z"/></g><g><path d="M42.83,11.83c-0.26,0-0.52-0.1-0.71-0.29l-5.66-5.66c-0.25-0.25-0.35-0.62-0.26-0.97c0.09-0.35,0.36-0.62,0.71-0.71    l7.72-2.06c0.34-0.09,0.71,0.01,0.96,0.26c0.25,0.25,0.35,0.62,0.26,0.96l-2.06,7.72c-0.09,0.35-0.36,0.62-0.71,0.71    C43,11.82,42.92,11.83,42.83,11.83z M39.1,5.69l3.21,3.21l1.17-4.37L39.1,5.69z"/></g><g><path d="M17,32c-0.26,0-0.51-0.1-0.71-0.29c-0.39-0.39-0.39-1.02,0-1.41l23-23c0.39-0.39,1.02-0.39,1.41,0s0.39,1.02,0,1.41    l-23,23C17.51,31.9,17.26,32,17,32z"/></g><g><path d="M41,42c-0.26,0-0.52-0.1-0.71-0.29l-34-34C6.01,7.42,5.92,6.99,6.07,6.62S6.59,6,6.99,6C19.26,5.89,28,8.63,33.7,14.34    c5.71,5.72,8.42,14.44,8.3,26.67c0,0.4-0.25,0.76-0.62,0.92C41.26,41.98,41.13,42,41,42z M9.43,8.02l30.55,30.55    c-0.24-10.4-2.77-17.88-7.7-22.82C27.36,10.82,19.87,8.28,9.43,8.02z"/></g></g><text x="0" y="63" fill="#000000" font-size="5px" font-weight="bold" font-family="'Helvetica Neue', Helvetica, Arial-Unicode, Arial, Sans-serif"></text><text x="0" y="68" fill="#000000" font-size="5px" font-weight="bold" font-family="'Helvetica Neue', Helvetica, Arial-Unicode, Arial, Sans-serif"></text></svg>