<svg xmlns:dc="http://purl.org/dc/elements/1.1/" xmlns:cc="http://creativecommons.org/ns#" xmlns:rdf="http://www.w3.org/1999/02/22-rdf-syntax-ns#" xmlns:svg="http://www.w3.org/2000/svg" xmlns="http://www.w3.org/2000/svg" xmlns:sodipodi="http://sodipodi.sourceforge.net/DTD/sodipodi-0.dtd" xmlns:inkscape="http://www.inkscape.org/namespaces/inkscape" viewBox="0 0 100 125" version="1.1" x="0px" y="0px"><g transform="translate(0,-952.36216)"><path d="m 57.497292,1002.5641 c -1.0219,0 -2.0462,0.037 -3.0576,0.1896 -3.814,0.5751 -7.284,2.4635 -10.6753,4.301 -3.3931,1.8385 -6.8753,3.6844 -10.683,4.3126 -1.9032,0.3141 -3.8579,0.3141 -5.7611,0 l 0,3.2191 0.1421,0.023 c 1.8085,0.2984 3.6682,0.2984 5.4767,0 3.621,-0.5975 7.0212,-2.383 10.4095,-4.2189 3.3903,-1.837 6.9457,-3.7913 10.9611,-4.3968 0.863,-0.1301 1.7183,-0.1782 2.5579,-0.1939 0.8396,-0.016 1.6635,0 2.4636,0 l 0,-3.2309 c -0.6083,0 -1.2207,-0.01 -1.8339,-0.01 z m 0,4.9781 c -1.0049,0 -1.9865,0.036 -2.9306,0.1784 -3.6125,0.5448 -6.9975,2.3673 -10.3897,4.2053 -3.3979,1.8411 -6.9624,3.7477 -10.9567,4.4068 -1.9507,0.3218 -3.9503,0.3286 -5.9032,0.022 l 0,6.7846 c 1.4018,-1.4424 3.1096,-2.6284 5.0777,-3.4436 1.9421,-0.8045 3.9668,-1.178 5.9538,-1.1611 5.961,0.051 11.6094,3.6091 14.0228,9.4355 1.0168,2.4548 1.3398,5.0315 1.0618,7.5096 l 5.8947,0 15.9673,0 0,-3.4921 -15.9673,0 0,-24.4402 c -0.6165,0 -1.2277,-0.01 -1.8306,-0.01 z m -19.1637,12.7384 c -1.7589,-0.015 -3.5478,0.3145 -5.2707,1.0281 -6.8913,2.8545 -10.184,10.8039 -7.3295,17.6952 2.8545,6.8914 10.8038,10.1841 17.6952,7.3296 6.8913,-2.8545 10.184,-10.8039 7.3295,-17.6952 -2.1408,-5.1685 -7.1476,-8.3128 -12.4245,-8.3577 z m -0.011,3.4808 c 3.9178,0.024 7.6097,2.3525 9.2089,6.2133 2.1323,5.1477 -0.2921,11.0004 -5.4398,13.1327 -5.1478,2.1322 -11.0005,-0.2921 -13.1327,-5.4399 -2.1323,-5.1477 0.2921,-11.0004 5.4398,-13.1327 1.2869,-0.533 2.6179,-0.7813 3.9238,-0.7734 z m -0.077,6.5675 a 3.4921149,3.4921149 0 0 0 -3.4921,3.4921 3.4921149,3.4921149 0 0 0 3.4921,3.4921 3.4921149,3.4921149 0 0 0 3.4922,-3.4921 3.4921149,3.4921149 0 0 0 -3.4922,-3.4921 z" style="color:#000000;clip-rule:nonzero;display:inline;overflow:visible;visibility:visible;opacity:1;isolation:auto;mix-blend-mode:normal;color-interpolation:sRGB;color-interpolation-filters:linearRGB;solid-color:#000000;solid-opacity:1;fill:#000000;fill-opacity:1;fill-rule:nonzero;stroke:none;stroke-width:20;stroke-linecap:round;stroke-linejoin:round;stroke-miterlimit:4;stroke-dasharray:none;stroke-dashoffset:0;stroke-opacity:1;color-rendering:auto;image-rendering:auto;shape-rendering:auto;text-rendering:auto;enable-background:accumulate"/></g><text x="0" y="115" fill="#000000" font-size="5px" font-weight="bold" font-family="'Helvetica Neue', Helvetica, Arial-Unicode, Arial, Sans-serif"></text><text x="0" y="120" fill="#000000" font-size="5px" font-weight="bold" font-family="'Helvetica Neue', Helvetica, Arial-Unicode, Arial, Sans-serif"></text></svg>