<?xml version="1.0" encoding="UTF-8"?>
<svg width="700pt" height="700pt" version="1.1" viewBox="0 0 700 700" xmlns="http://www.w3.org/2000/svg" xmlns:xlink="http://www.w3.org/1999/xlink">
 <defs>
  <symbol id="v" overflow="visible">
   <path d="m18.766-1.125c-0.96875 0.5-1.9805 0.875-3.0312 1.125-1.043 0.25781-2.1367 0.39062-3.2812 0.39062-3.3984 0-6.0898-0.94531-8.0781-2.8438-1.9922-1.9062-2.9844-4.4844-2.9844-7.7344 0-3.2578 0.99219-5.8359 2.9844-7.7344 1.9883-1.9062 4.6797-2.8594 8.0781-2.8594 1.1445 0 2.2383 0.13281 3.2812 0.39062 1.0508 0.25 2.0625 0.625 3.0312 1.125v4.2188c-0.98047-0.65625-1.9453-1.1406-2.8906-1.4531-0.94922-0.3125-1.9492-0.46875-3-0.46875-1.875 0-3.3516 0.60547-4.4219 1.8125-1.0742 1.1992-1.6094 2.8555-1.6094 4.9688 0 2.1055 0.53516 3.7617 1.6094 4.9688 1.0703 1.1992 2.5469 1.7969 4.4219 1.7969 1.0508 0 2.0508-0.14844 3-0.45312 0.94531-0.3125 1.9102-0.80078 2.8906-1.4688z"/>
  </symbol>
  <symbol id="c" overflow="visible">
   <path d="m13.734-11.141c-0.4375-0.19531-0.87109-0.34375-1.2969-0.4375-0.41797-0.10156-0.83984-0.15625-1.2656-0.15625-1.2617 0-2.2305 0.40625-2.9062 1.2188-0.67969 0.80469-1.0156 1.9531-1.0156 3.4531v7.0625h-4.8906v-15.312h4.8906v2.5156c0.625-1 1.3438-1.7266 2.1562-2.1875 0.82031-0.46875 1.8008-0.70312 2.9375-0.70312 0.16406 0 0.34375 0.011719 0.53125 0.03125 0.19531 0.011719 0.47656 0.039062 0.84375 0.078125z"/>
  </symbol>
  <symbol id="b" overflow="visible">
   <path d="m17.641-7.7031v1.4062h-11.453c0.125 1.1484 0.53906 2.0078 1.25 2.5781 0.70703 0.57422 1.7031 0.85938 2.9844 0.85938 1.0312 0 2.082-0.14844 3.1562-0.45312 1.082-0.3125 2.1914-0.77344 3.3281-1.3906v3.7656c-1.1562 0.4375-2.3125 0.76562-3.4688 0.98438-1.1562 0.22656-2.3125 0.34375-3.4688 0.34375-2.7734 0-4.9297-0.70312-6.4688-2.1094-1.5312-1.4062-2.2969-3.3789-2.2969-5.9219 0-2.5 0.75391-4.4609 2.2656-5.8906 1.5078-1.4375 3.582-2.1562 6.2188-2.1562 2.4062 0 4.332 0.73047 5.7812 2.1875 1.4453 1.4492 2.1719 3.3828 2.1719 5.7969zm-5.0312-1.625c0-0.92578-0.27344-1.6719-0.8125-2.2344-0.54297-0.57031-1.25-0.85938-2.125-0.85938-0.94922 0-1.7188 0.26562-2.3125 0.79688s-0.96484 1.2969-1.1094 2.2969z"/>
  </symbol>
  <symbol id="a" overflow="visible">
   <path d="m9.2188-6.8906c-1.0234 0-1.793 0.17188-2.3125 0.51562-0.51172 0.34375-0.76562 0.85547-0.76562 1.5312 0 0.625 0.20703 1.1172 0.625 1.4688 0.41406 0.34375 0.98828 0.51562 1.7188 0.51562 0.92578 0 1.7031-0.32812 2.3281-0.98438 0.63281-0.66406 0.95312-1.4922 0.95312-2.4844v-0.5625zm7.4688-1.8438v8.7344h-4.9219v-2.2656c-0.65625 0.92969-1.3984 1.6055-2.2188 2.0312-0.82422 0.41406-1.8242 0.625-3 0.625-1.5859 0-2.8711-0.45703-3.8594-1.375-0.99219-0.92578-1.4844-2.1289-1.4844-3.6094 0-1.7891 0.61328-3.1016 1.8438-3.9375 1.2383-0.84375 3.1797-1.2656 5.8281-1.2656h2.8906v-0.39062c0-0.76953-0.30859-1.332-0.92188-1.6875-0.61719-0.36328-1.5703-0.54688-2.8594-0.54688-1.0547 0-2.0312 0.10547-2.9375 0.3125-0.89844 0.21094-1.7305 0.52344-2.5 0.9375v-3.7344c1.0391-0.25 2.0859-0.44141 3.1406-0.57812 1.0625-0.13281 2.125-0.20312 3.1875-0.20312 2.7578 0 4.75 0.54688 5.9688 1.6406 1.2266 1.0859 1.8438 2.8555 1.8438 5.3125z"/>
  </symbol>
  <symbol id="e" overflow="visible">
   <path d="m7.7031-19.656v4.3438h5.0469v3.5h-5.0469v6.5c0 0.71094 0.14062 1.1875 0.42188 1.4375s0.83594 0.375 1.6719 0.375h2.5156v3.5h-4.1875c-1.9375 0-3.3125-0.39844-4.125-1.2031-0.80469-0.8125-1.2031-2.1797-1.2031-4.1094v-6.5h-2.4219v-3.5h2.4219v-4.3438z"/>
  </symbol>
  <symbol id="m" overflow="visible">
   <path d="m12.766-13.078v-8.2031h4.9219v21.281h-4.9219v-2.2188c-0.66797 0.90625-1.4062 1.5703-2.2188 1.9844s-1.7578 0.625-2.8281 0.625c-1.8867 0-3.4336-0.75-4.6406-2.25-1.2109-1.5-1.8125-3.4258-1.8125-5.7812 0-2.3633 0.60156-4.2969 1.8125-5.7969 1.207-1.5 2.7539-2.25 4.6406-2.25 1.0625 0 2 0.21484 2.8125 0.64062 0.82031 0.42969 1.5664 1.0859 2.2344 1.9688zm-3.2188 9.9219c1.0391 0 1.8359-0.37891 2.3906-1.1406 0.55078-0.76953 0.82812-1.8828 0.82812-3.3438 0-1.457-0.27734-2.5664-0.82812-3.3281-0.55469-0.76953-1.3516-1.1562-2.3906-1.1562-1.043 0-1.8398 0.38672-2.3906 1.1562-0.55469 0.76172-0.82812 1.8711-0.82812 3.3281 0 1.4609 0.27344 2.5742 0.82812 3.3438 0.55078 0.76172 1.3477 1.1406 2.3906 1.1406z"/>
  </symbol>
  <symbol id="l" overflow="visible">
   <path d="m10.5-3.1562c1.0508 0 1.8516-0.37891 2.4062-1.1406 0.55078-0.76953 0.82812-1.8828 0.82812-3.3438 0-1.457-0.27734-2.5664-0.82812-3.3281-0.55469-0.76953-1.3555-1.1562-2.4062-1.1562-1.0547 0-1.8594 0.38672-2.4219 1.1562-0.55469 0.77344-0.82812 1.8828-0.82812 3.3281 0 1.4492 0.27344 2.5586 0.82812 3.3281 0.5625 0.77344 1.3672 1.1562 2.4219 1.1562zm-3.25-9.9219c0.67578-0.88281 1.4219-1.5391 2.2344-1.9688 0.82031-0.42578 1.7656-0.64062 2.8281-0.64062 1.8945 0 3.4453 0.75 4.6562 2.25 1.207 1.5 1.8125 3.4336 1.8125 5.7969 0 2.3555-0.60547 4.2812-1.8125 5.7812-1.2109 1.5-2.7617 2.25-4.6562 2.25-1.0625 0-2.0078-0.21094-2.8281-0.625-0.8125-0.42578-1.5586-1.0859-2.2344-1.9844v2.2188h-4.8906v-21.281h4.8906z"/>
  </symbol>
  <symbol id="k" overflow="visible">
   <path d="m0.34375-15.312h4.8906l4.125 10.391 3.5-10.391h4.8906l-6.4375 16.766c-0.64844 1.6953-1.4023 2.8828-2.2656 3.5625-0.86719 0.6875-2 1.0312-3.4062 1.0312h-2.8438v-3.2188h1.5312c0.83203 0 1.4375-0.13672 1.8125-0.40625 0.38281-0.26172 0.67969-0.73047 0.89062-1.4062l0.14062-0.42188z"/>
  </symbol>
  <symbol id="d" overflow="visible">
   <path d="m2.5781-20.406h5.875l7.4219 14v-14h4.9844v20.406h-5.875l-7.4219-14v14h-4.9844z"/>
  </symbol>
  <symbol id="j" overflow="visible">
   <path d="m2.8594-5.2969h4.9219v5.2969h-4.9219z"/>
  </symbol>
  <symbol id="u" overflow="visible">
   <path d="m2.5781-20.406h5.25v7.4375l7.5938-7.4375h6.1094l-9.8281 9.6562 10.844 10.75h-6.5938l-8.125-8.0469v8.0469h-5.25z"/>
  </symbol>
  <symbol id="t" overflow="visible">
   <path d="m14.312-14.828v3.7188c-1.043-0.4375-2.0547-0.76562-3.0312-0.98438-0.98047-0.21875-1.9023-0.32812-2.7656-0.32812-0.92969 0-1.6211 0.11719-2.0781 0.34375-0.44922 0.23047-0.67188 0.58984-0.67188 1.0781 0 0.38672 0.17188 0.68359 0.51562 0.89062 0.34375 0.21094 0.95703 0.36719 1.8438 0.46875l0.85938 0.125c2.5078 0.32422 4.1953 0.85156 5.0625 1.5781 0.86328 0.73047 1.2969 1.8711 1.2969 3.4219 0 1.6367-0.60547 2.8672-1.8125 3.6875-1.1992 0.8125-2.9922 1.2188-5.375 1.2188-1.0234 0-2.0742-0.078125-3.1562-0.23438-1.0742-0.15625-2.1797-0.39453-3.3125-0.71875v-3.7188c0.96875 0.48047 1.9609 0.83984 2.9844 1.0781 1.0312 0.23047 2.0781 0.34375 3.1406 0.34375 0.95703 0 1.6758-0.12891 2.1562-0.39062 0.47656-0.26953 0.71875-0.66406 0.71875-1.1875 0-0.4375-0.16797-0.75781-0.5-0.96875-0.33594-0.21875-0.99609-0.38281-1.9844-0.5l-0.85938-0.10938c-2.1797-0.26953-3.7031-0.77344-4.5781-1.5156-0.875-0.73828-1.3125-1.8594-1.3125-3.3594 0-1.625 0.55078-2.8281 1.6562-3.6094 1.1133-0.78906 2.8203-1.1875 5.125-1.1875 0.89453 0 1.8359 0.074219 2.8281 0.21875 1 0.13672 2.082 0.35156 3.25 0.64062z"/>
  </symbol>
  <symbol id="s" overflow="visible">
   <path d="m2.3594-15.312h4.8906v15.312h-4.8906zm0-5.9688h4.8906v4h-4.8906z"/>
  </symbol>
  <symbol id="i" overflow="visible">
   <path d="m16.547-12.766c0.61328-0.94531 1.3477-1.6719 2.2031-2.1719 0.85156-0.5 1.7891-0.75 2.8125-0.75 1.7578 0 3.0977 0.54688 4.0156 1.6406 0.92578 1.0859 1.3906 2.6562 1.3906 4.7188v9.3281h-4.9219v-7.9844-0.35938c0.007813-0.13281 0.015625-0.32031 0.015625-0.5625 0-1.082-0.16406-1.8633-0.48438-2.3438-0.3125-0.48828-0.82422-0.73438-1.5312-0.73438-0.92969 0-1.6484 0.38672-2.1562 1.1562-0.51172 0.76172-0.77344 1.8672-0.78125 3.3125v7.5156h-4.9219v-7.9844c0-1.6953-0.14844-2.7852-0.4375-3.2656-0.29297-0.48828-0.8125-0.73438-1.5625-0.73438-0.9375 0-1.6641 0.38672-2.1719 1.1562-0.51172 0.76172-0.76562 1.8594-0.76562 3.2969v7.5312h-4.9219v-15.312h4.9219v2.2344c0.60156-0.86328 1.2891-1.5156 2.0625-1.9531 0.78125-0.4375 1.6406-0.65625 2.5781-0.65625 1.0625 0 2 0.25781 2.8125 0.76562 0.8125 0.51172 1.4258 1.2305 1.8438 2.1562z"/>
  </symbol>
  <symbol id="h" overflow="visible">
   <path d="m17.75-9.3281v9.3281h-4.9219v-7.1094c0-1.3438-0.03125-2.2656-0.09375-2.7656s-0.16797-0.86719-0.3125-1.1094c-0.1875-0.3125-0.44922-0.55469-0.78125-0.73438-0.32422-0.17578-0.69531-0.26562-1.1094-0.26562-1.0234 0-1.8242 0.39844-2.4062 1.1875-0.58594 0.78125-0.875 1.8711-0.875 3.2656v7.5312h-4.8906v-21.281h4.8906v8.2031c0.73828-0.88281 1.5195-1.5391 2.3438-1.9688 0.83203-0.42578 1.75-0.64062 2.75-0.64062 1.7695 0 3.1133 0.54688 4.0312 1.6406 0.91406 1.0859 1.375 2.6562 1.375 4.7188z"/>
  </symbol>
  <symbol id="g" overflow="visible">
   <path d="m17.75-9.3281v9.3281h-4.9219v-7.1406c0-1.3203-0.03125-2.2344-0.09375-2.7344s-0.16797-0.86719-0.3125-1.1094c-0.1875-0.3125-0.44922-0.55469-0.78125-0.73438-0.32422-0.17578-0.69531-0.26562-1.1094-0.26562-1.0234 0-1.8242 0.39844-2.4062 1.1875-0.58594 0.78125-0.875 1.8711-0.875 3.2656v7.5312h-4.8906v-15.312h4.8906v2.2344c0.73828-0.88281 1.5195-1.5391 2.3438-1.9688 0.83203-0.42578 1.75-0.64062 2.75-0.64062 1.7695 0 3.1133 0.54688 4.0312 1.6406 0.91406 1.0859 1.375 2.6562 1.375 4.7188z"/>
  </symbol>
  <symbol id="r" overflow="visible">
   <path d="m12.422-21.281v3.2188h-2.7031c-0.6875 0-1.1719 0.125-1.4531 0.375-0.27344 0.25-0.40625 0.6875-0.40625 1.3125v1.0625h4.1875v3.5h-4.1875v11.812h-4.8906v-11.812h-2.4375v-3.5h2.4375v-1.0625c0-1.6641 0.46094-2.8984 1.3906-3.7031 0.92578-0.80078 2.3672-1.2031 4.3281-1.2031z"/>
  </symbol>
  <symbol id="f" overflow="visible">
   <path d="m9.6406-12.188c-1.0859 0-1.9141 0.39062-2.4844 1.1719-0.57422 0.78125-0.85938 1.9062-0.85938 3.375s0.28516 2.5938 0.85938 3.375c0.57031 0.77344 1.3984 1.1562 2.4844 1.1562 1.0625 0 1.875-0.38281 2.4375-1.1562 0.57031-0.78125 0.85938-1.9062 0.85938-3.375s-0.28906-2.5938-0.85938-3.375c-0.5625-0.78125-1.375-1.1719-2.4375-1.1719zm0-3.5c2.6328 0 4.6914 0.71484 6.1719 2.1406 1.4766 1.418 2.2188 3.3867 2.2188 5.9062 0 2.5117-0.74219 4.4805-2.2188 5.9062-1.4805 1.418-3.5391 2.125-6.1719 2.125-2.6484 0-4.7148-0.70703-6.2031-2.125-1.4922-1.4258-2.2344-3.3945-2.2344-5.9062 0-2.5195 0.74219-4.4883 2.2344-5.9062 1.4883-1.4258 3.5547-2.1406 6.2031-2.1406z"/>
  </symbol>
  <symbol id="q" overflow="visible">
   <path d="m2.1875-5.9688v-9.3438h4.9219v1.5312c0 0.83594-0.007813 1.875-0.015625 3.125-0.011719 1.25-0.015625 2.0859-0.015625 2.5 0 1.2422 0.03125 2.1328 0.09375 2.6719 0.070313 0.54297 0.17969 0.93359 0.32812 1.1719 0.20703 0.32422 0.47266 0.57422 0.79688 0.75 0.32031 0.16797 0.69141 0.25 1.1094 0.25 1.0195 0 1.8203-0.39062 2.4062-1.1719 0.58203-0.78125 0.875-1.8672 0.875-3.2656v-7.5625h4.8906v15.312h-4.8906v-2.2188c-0.74219 0.89844-1.5234 1.5586-2.3438 1.9844-0.82422 0.41406-1.7344 0.625-2.7344 0.625-1.7617 0-3.1055-0.53906-4.0312-1.625-0.92969-1.082-1.3906-2.6602-1.3906-4.7344z"/>
  </symbol>
  <symbol id="p" overflow="visible">
   <path d="m2.5781-20.406h8.7344c2.5938 0 4.582 0.57812 5.9688 1.7344 1.3945 1.1484 2.0938 2.7891 2.0938 4.9219 0 2.1367-0.69922 3.7812-2.0938 4.9375-1.3867 1.1562-3.375 1.7344-5.9688 1.7344h-3.4844v7.0781h-5.25zm5.25 3.8125v5.7031h2.9219c1.0195 0 1.8047-0.25 2.3594-0.75 0.5625-0.5 0.84375-1.2031 0.84375-2.1094 0-0.91406-0.28125-1.6172-0.84375-2.1094-0.55469-0.48828-1.3398-0.73438-2.3594-0.73438z"/>
  </symbol>
  <symbol id="o" overflow="visible">
   <path d="m2.3594-15.312h4.8906v15.031c0 2.0508-0.49609 3.6172-1.4844 4.7031-0.98047 1.082-2.4062 1.625-4.2812 1.625h-2.4219v-3.2188h0.85938c0.92578 0 1.5625-0.21094 1.9062-0.625 0.35156-0.41797 0.53125-1.2461 0.53125-2.4844zm0-5.9688h4.8906v4h-4.8906z"/>
  </symbol>
  <symbol id="n" overflow="visible">
   <path d="m14.719-14.828v3.9844c-0.65625-0.45703-1.3242-0.79688-2-1.0156-0.66797-0.21875-1.3594-0.32812-2.0781-0.32812-1.3672 0-2.4336 0.40234-3.2031 1.2031-0.76172 0.79297-1.1406 1.9062-1.1406 3.3438 0 1.4297 0.37891 2.543 1.1406 3.3438 0.76953 0.79297 1.8359 1.1875 3.2031 1.1875 0.75781 0 1.4844-0.10938 2.1719-0.32812 0.6875-0.22656 1.3203-0.56641 1.9062-1.0156v4c-0.76172 0.28125-1.5391 0.48828-2.3281 0.625-0.78125 0.14453-1.5742 0.21875-2.375 0.21875-2.7617 0-4.9219-0.70703-6.4844-2.125-1.5547-1.4141-2.3281-3.3828-2.3281-5.9062 0-2.5312 0.77344-4.5039 2.3281-5.9219 1.5625-1.4141 3.7227-2.125 6.4844-2.125 0.80078 0 1.5938 0.074219 2.375 0.21875 0.78125 0.13672 1.5547 0.35156 2.3281 0.64062z"/>
  </symbol>
 </defs>
 <g>
  <path d="m592.83 472.24h-9.7422l-73.023-102.3-8.0742 5.6328v0.18359l72.273 101.74h9c0.57031 0 0.94141 0.18359 1.3203 0.375 0.375 0.19141 0.74609 0.56641 1.1211 0.94141l22.523 33.602 11.258-1.5z"/>
  <path d="m269.98 104.33h-18.586v6.9492h78.277c0.56641-0.19531 1.3164-0.19531 1.875-0.37891v-6.5703h-19.145v-16.527h-42.422z"/>
  <path d="m268.29 115.97c-0.19141 0.57031-0.19141 1.1328-0.19141 1.6875 0 6.1992 2.25 11.266 6.5703 15.578 4.6875 4.3164 10.137 6.5703 16.516 6.5703 2.6328 0 5.0742-0.37109 7.5078-1.125 3.1914-0.94141 6.1953-2.8164 8.8242-5.4492 0.93359-0.94141 1.875-2.0547 2.8164-2.9961 1.3164-1.875 2.4414-3.9414 3.1914-6.1992 1.3086 1.6953 2.8164 3.1992 4.5078 4.6914 6.1953 5.4414 13.328 8.8203 21.398 9.7617 1.6875 0.19141 3.5625 0.19141 5.4414 0.19141 10.328 0 19.344-3.375 26.656-9.9453 7.3242-6.3828 11.078-14.262 11.078-23.465 0-9.1992-3.7539-16.895-11.078-23.465-7.3203-6.5703-16.336-9.7617-26.656-9.7617-1.875 0-3.7578 0.18359-5.4414 0.375-2.8164 0.18359-5.4414 0.74609-7.8867 1.6875 2.8125 0.57031 5.4414 1.125 7.8867 1.8828 2.8164 0.74609 5.2539 1.6875 7.6953 2.8125 10.328 4.3164 15.578 9.5703 15.395 16.145 0.18359 6.5703-5.0664 12.012-15.395 16.336-2.4414 0.93359-5.0664 1.6875-7.6953 2.6211-2.8164 0.75-5.8203 1.5117-9.0039 2.0664h-0.37891l-61.758-0.003906z"/>
  <path d="m345.81 189.18-1.6875-1.5078-32.289-42.043c0.19141 0.19141 0.19141 0.55859 0.375 0.74609 1.125 2.2578 1.6953 4.8828 1.6953 7.8867 0 3.3828-0.76172 6.1953-2.0703 8.4453-1.3164 2.2617-3 3.3828-4.6914 3.1914-1.6914-0.18359-3.3828-1.3086-4.8828-3.5664-0.74609-1.3164-1.3086-2.8125-1.5-4.5039l-14.461 14.637c-0.19141 0.75781-0.37109 1.5078-0.37109 2.4453 0 2.8125 1.125 5.0664 3.375 7.1289 2.4375 2.0664 5.2539 3.0117 8.4492 3.0117 3.1875 0 5.8203-0.94141 8.0625-2.6367l20.277 22.719z"/>
  <path d="m292.5 144.88h-9.7656l-24.398 25.531-0.375-19.145-31.344 0.375c-0.19141-0.18359-0.19141-0.18359-0.19141-0.375-0.94141-2.4414-2.0664-4.8828-3.1914-7.3125h21.965v-11.453h-27.965c-1.5078-2.4414-3.0078-4.8828-4.5078-7.3242h19.332v-11.441h-28.156c-2.25-2.4414-4.5039-4.8828-6.9453-7.3242h21.965v-11.453l-61.578-0.003906 12.945-16.328-15.953 0.55859-15.961 18.961-22.707-17.277v24.406l-13.52-4.5039v11.633l9.5703 2.4414-27.406 27.598h50.496c0.19141 1.6875 0.56641 3.1914 1.5078 4.6914h-38.484v59.5h40.168c-0.93359 1.3164-1.5078 2.8164-1.6875 4.5117v0.18359h-40.359c-3.3828 4.6875-5.0664 9.9453-5.0664 15.953 0 8.0703 3 14.828 8.8242 20.457 5.8203 5.6289 12.57 8.4453 20.648 8.6406l11.262-5.0742v-23.277h4.6914v18.027h7.6953l10.703-28.352 0.18359-0.74609h9.1992l3.3828 27.59c26.836-7.8867 40.539-25.344 40.73-52.188l-5.4492 0.18359c-2.0625 0.18359-3.9375-0.55859-5.4414-1.8711-0.18359-0.18359-0.375-0.37891-0.55859-0.55859-0.19141 0-0.19141 0-0.37891 0.17969l-43.172 18.395c-0.57031-0.93359-1.1328-1.8711-2.0664-2.8125-0.19141-0.19141-0.56641-0.37109-0.75-0.55859l44.109-19.336c0.18359-0.19141 0.18359-0.19141 0.375-0.19141v-0.375c-0.19141-2.0664 0.55859-3.9414 2.0625-5.4414 1.3086-1.5078 3.1914-2.2578 5.2578-2.4414l60.07-2.0625zm-175.52 25.527c1.5078 0 2.8164 0.56641 3.7578 1.5078 0.94141 0.93359 1.5 2.2461 1.5 3.7461 0 1.5117-0.55859 2.8164-1.5 3.7578-0.93359 0.94141-2.25 1.5078-3.7578 1.5078-1.5 0-2.8125-0.56641-3.7539-1.5078-0.93359-0.94141-1.5-2.2461-1.5-3.7578 0-1.5 0.56641-2.8125 1.5-3.7461 0.94141-0.94141 2.2539-1.5078 3.7539-1.5078zm-7.1289 64.199c0 1.3164-0.56641 2.625-1.875 3.5664-1.125 0.94141-2.4414 1.5-4.1289 1.5-1.6914 0-3.0117-0.55859-4.3164-1.5-1.125-0.94141-1.6914-2.25-1.6914-3.5664 0-1.3086 0.56641-2.625 1.6914-3.5664 1.3047-0.94141 2.625-1.5 4.3164-1.5 1.6875 0 3 0.55859 4.1289 1.5 1.3086 0.93359 1.875 2.25 1.875 3.5664zm33.039-83.527h1.3086v52.555h-0.19141c-1.6914 0.19141-3.1875 0.75-4.5039 1.6914v-55.188c0.94141 0.56641 2.0703 0.94141 3.3867 0.94141z"/>
  <path d="m342.25 216.02-17.645 6.0078-13.328 15.012-39.793-49.559-0.55859 0.56641c-1.3164 1.3164-2.8164 2.0703-4.5078 2.25h-0.55859-0.375l-52.562 1.8828v0.18359c-0.18359 29.281-15.012 48.242-44.488 56.688-0.19141 0-0.19141 0-0.375 0.18359l4.5078 36.602-58.961 0.003906v124.84l6.1992-2.625 33.977 21.207h5.4414v-40.176h-21.582v-61.738h49.363l7.5078 7.5039h-29.664v121.63h7.6992l27.965 18.781 7.8867-0.19141v-36.977h-20.461l0.003906-62.703h65.891v-23.082h4.6992v12.203c9.0039 4.3164 16.328 8.0625 21.773 10.879h51.246c4.6914-1.6914 10.512-3.5742 17.836-6.0078h36.785c0.19531 20.094 6.7656 37.359 19.711 51.621 13.332 14.453 29.281 21.59 47.875 21.59 13.703 0 26.09-3.9414 36.785-11.637l53.129 64.754 8.0625-2.625 17.078 24.594 33.23-4.3164-20.262-30.219h-9.0234-0.54687c-0.19531-0.19141-0.57813-0.19141-0.76563-0.19141-0.37109-0.19141-0.75-0.56641-0.93359-0.94141l-73.023-103.24-1.3086 1.3047-22.715 16.703c-0.55859-4.3164-0.93359-11.82-1.125-22.148 6.3828-6.5625 11.266-13.699 14.633-21.391 1.6914-4.1328 3.0117-8.2656 3.9492-12.582 0.94141-4.6914 1.3086-9.7617 1.3086-14.828 0-18.957-6.5703-35.293-19.707-48.805 2.0625-7.6953 5.6289-14.453 10.695-20.641 8.8242-10.512 19.516-15.77 31.91-15.77 12.395 0 22.902 5.2539 31.719 15.77 3.7617 4.5039 6.7656 9.3867 8.8203 14.637v-48.059h-21.773v-8.0703h21.773v-14.258h-21.773v-8.082h21.773v-13.699c-3.7461-0.94141-7.6875-1.5-11.625-1.6875-23.277-1.5117-43.559 6.9453-60.82 25.156-15.953 16.699-25.156 37.352-27.215 61.945-6.7578-3.9531-14.078-6.3828-21.785-7.6992-3.9297-0.55859-7.875-0.94141-12.203-0.94141-7.6875 0-14.824 1.1328-21.582 3.1914-3.9414 1.3203-7.8867 2.8242-11.637 4.8828h-19.523v-20.652h-8.8203l-37.543 21.965 41.664 61.387-8.6289 5.4375-60.066-72.832 26.281 0.75781 37.922-21.957 8.2539-12.395-2.0664-19.332-16.699-13.895-20.461 16.711-1.5 7.1289 13.145-4.5039"/>
  <path d="m301.89 161.96c-0.93359-2.25-0.93359-4.5078 0-6.7539l-35.477 35.477c-0.55859 0.55859-0.75 1.125-0.55859 1.6875-0.19141 0.55859 0 1.125 0.55859 1.6875 0.56641 0.56641 1.125 0.75781 1.6914 0.75781 0.55859 0 1.125-0.19141 1.6875-0.75781z"/>
  <use x="70" y="644" xlink:href="#v"/>
  <use x="90.550781" y="644" xlink:href="#c"/>
  <use x="104.359375" y="644" xlink:href="#b"/>
  <use x="123.347656" y="644" xlink:href="#a"/>
  <use x="142.242187" y="644" xlink:href="#e"/>
  <use x="155.628906" y="644" xlink:href="#b"/>
  <use x="174.617187" y="644" xlink:href="#m"/>
  <use x="204.410156" y="644" xlink:href="#l"/>
  <use x="224.453125" y="644" xlink:href="#k"/>
  <use x="252.453125" y="644" xlink:href="#d"/>
  <use x="275.886719" y="644" xlink:href="#j"/>
  <use x="286.523438" y="644" xlink:href="#u"/>
  <use x="308.21875" y="644" xlink:href="#j"/>
  <use x="318.855469" y="644" xlink:href="#d"/>
  <use x="342.289062" y="644" xlink:href="#a"/>
  <use x="361.183594" y="644" xlink:href="#c"/>
  <use x="374.992187" y="644" xlink:href="#a"/>
  <use x="393.886719" y="644" xlink:href="#t"/>
  <use x="410.554688" y="644" xlink:href="#s"/>
  <use x="420.152344" y="644" xlink:href="#i"/>
  <use x="449.328125" y="644" xlink:href="#h"/>
  <use x="469.261719" y="644" xlink:href="#a"/>
  <use x="488.15625" y="644" xlink:href="#g"/>
  <use x="70" y="672" xlink:href="#r"/>
  <use x="82.183594" y="672" xlink:href="#c"/>
  <use x="95.992187" y="672" xlink:href="#f"/>
  <use x="115.226562" y="672" xlink:href="#i"/>
  <use x="154.152344" y="672" xlink:href="#e"/>
  <use x="167.535156" y="672" xlink:href="#h"/>
  <use x="187.46875" y="672" xlink:href="#b"/>
  <use x="216.207031" y="672" xlink:href="#d"/>
  <use x="239.640625" y="672" xlink:href="#f"/>
  <use x="258.878906" y="672" xlink:href="#q"/>
  <use x="278.8125" y="672" xlink:href="#g"/>
  <use x="308.492187" y="672" xlink:href="#p"/>
  <use x="329.015625" y="672" xlink:href="#c"/>
  <use x="342.824219" y="672" xlink:href="#f"/>
  <use x="362.058594" y="672" xlink:href="#o"/>
  <use x="371.65625" y="672" xlink:href="#b"/>
  <use x="390.648438" y="672" xlink:href="#n"/>
  <use x="407.246094" y="672" xlink:href="#e"/>
 </g>
</svg>
