<svg xmlns="http://www.w3.org/2000/svg" viewBox="0 0 64 80" x="0px" y="0px"><g data-name="20-Worker"><path d="M57,56a1,1,0,0,0-1,1v3H50V46.07a13,13,0,0,1,5.46,7.22,1,1,0,1,0,1.92-.58A15.1,15.1,0,0,0,43,42H39V38.48A10.94,10.94,0,0,0,42.57,33H43a5,5,0,0,0,5-5V27a2.94,2.94,0,0,0-.4-1.47A3,3,0,0,0,49,23V22a3,3,0,0,0-2-2.82V19A14.9,14.9,0,0,0,36.64,4.76a3,3,0,0,0-.7-1.71,3,3,0,0,0-2.28-1H30.34a3,3,0,0,0-3,2.77,15.08,15.08,0,0,0-8,6.09A1,1,0,0,0,21.08,12a12.77,12.77,0,0,1,2.24-2.61l2,9.65H19a13.11,13.11,0,0,1,.45-3.42,1,1,0,0,0-1.92-.52A14.86,14.86,0,0,0,17,19v.18A3,3,0,0,0,15,22v1a3,3,0,0,0,1.4,2.53A2.94,2.94,0,0,0,16,27v1a5,5,0,0,0,5,5h.43A10.94,10.94,0,0,0,25,38.48V42H21A15,15,0,0,0,6,57v4a1,1,0,0,0,1,1H57a1,1,0,0,0,1-1V57A1,1,0,0,0,57,56ZM16,57H31v3H16ZM32,47a8.29,8.29,0,0,0,5.35-1.6L32,54.09,26.65,45.4A8.29,8.29,0,0,0,32,47Zm1,10H48v3H33ZM48,45V55H33.79l6.77-11H43A12.81,12.81,0,0,1,48,45ZM46,28a3,3,0,0,1-3,3h0c0-.33,0-.66,0-1V26h2a1,1,0,0,1,1,1Zm-1-9H38.65l2-9.64c.17.15.35.29.51.45A12.92,12.92,0,0,1,45,19ZM29.58,4.35A1,1,0,0,1,30.34,4h3.32a1,1,0,0,1,.76.35,1,1,0,0,1,.23.81L33.25,14h-2.5l-1.4-8.84A1,1,0,0,1,29.58,4.35ZM25.08,8a13.28,13.28,0,0,1,2.51-1.23l1.18,7.52a2,2,0,0,0,2,1.69h2.5a2,2,0,0,0,2-1.69h0l1.18-7.5A13.54,13.54,0,0,1,38.92,8L36.61,19H27.39ZM17,22a1,1,0,0,1,1-1H46a1,1,0,0,1,1,1v1a1,1,0,0,1-1,1H18a1,1,0,0,1-1-1Zm4,9a3,3,0,0,1-3-3V27a1,1,0,0,1,1-1h2v4c0,.34,0,.67.05,1Zm2-1V26H41v4a9,9,0,0,1-18,0Zm9,11a10.92,10.92,0,0,0,5-1.21v3c-.25.49-1.37,2.21-5,2.21s-4.76-1.73-5-2.2v-3A10.92,10.92,0,0,0,32,41Zm-8.56,3,6.77,11H16V45a13,13,0,0,1,5-1ZM8,57a13,13,0,0,1,6-10.94V60H8Z"/></g><text x="0" y="79" fill="#000000" font-size="5px" font-weight="bold" font-family="'Helvetica Neue', Helvetica, Arial-Unicode, Arial, Sans-serif"></text><text x="0" y="84" fill="#000000" font-size="5px" font-weight="bold" font-family="'Helvetica Neue', Helvetica, Arial-Unicode, Arial, Sans-serif"></text></svg>