<svg xmlns="http://www.w3.org/2000/svg" xmlns:xlink="http://www.w3.org/1999/xlink" version="1.1" x="0px" y="0px" viewBox="0 0 100 125" enable-background="new 0 0 100 100" xml:space="preserve"><g><path d="M50.807,59.64h12.491c0,0,3.185-4.588,3.185-13.638c0-9.048-3.185-13.636-3.185-13.636H50.807H30.032   c0,0,3.187,4.588,3.187,13.636c0,9.05-3.187,13.638-3.187,13.638H50.807z M51.58,33.928h6.438c0.79,1.493,2.53,5.526,2.53,12.107   c0,6.52-1.748,10.597-2.537,12.108H51.58c0.992-2.344,2.215-6.392,2.215-12.108C53.795,40.319,52.572,36.271,51.58,33.928z    M36.986,33.928h6.438c0.79,1.493,2.531,5.526,2.531,12.107c0,6.52-1.748,10.597-2.538,12.108h-6.432   C37.978,55.8,39.2,51.752,39.2,46.035C39.2,40.319,37.978,36.271,36.986,33.928z"/><rect x="48.257" y="61.08" width="1.311" height="5.95"/><path d="M49.568,25.968c4.955-0.044,2.094,0.909,8.696,1.624C65.381,28.363,67.404,23,67.404,23   c-4.421,1.948-7.867,1.199-11.34-1.798s-7.807-1.948-7.807-1.948l0,5.364l0,0v5.95h1.311V25.968z"/><path d="M25.233,78.094c2.628-0.63,3.858-2.714,7.016-2.714c3.717,0,2.317,2.896,8.981,2.896c3.803,0,4.841-2.896,8.558-2.896   c3.717,0,2.317,2.896,8.982,2.896c3.804,0,4.841-2.896,8.558-2.896c2.806,0,2.698,1.65,5.345,2.459   c2.361-0.557,4.527-1.771,4.212-4.3c-0.51-4.078,0.851-10.62,3.739-11.386c2.888-0.765,5.183,2.124,5.183,2.124   s1.189-4.928-3.399-7.052c-4.587-2.123-11.767,0.978-13.935,6.075c-2.166,5.099-5.862,5.396-5.862,5.396H47.401H34.146   c0,0-9.686-0.68-9.686-6.628c0,0-9.771,5.056-3.526,13.468C20.934,75.536,22.486,77.487,25.233,78.094z"/><path d="M88.235,78.097c-0.77-0.624-1.565-1.269-3.368-1.269c-2.016,0-3.296,0.772-4.535,1.521   c-1.171,0.708-2.277,1.375-4.023,1.375c-3.601,0-4.67-0.864-5.611-1.628c-0.771-0.624-1.567-1.269-3.369-1.269   c-2.015,0-3.297,0.772-4.536,1.521c-1.17,0.708-2.276,1.375-4.021,1.375c-3.603,0-4.671-0.864-5.613-1.628   c-0.771-0.624-1.567-1.269-3.369-1.269c-2.015,0-3.296,0.772-4.536,1.521c-1.171,0.708-2.276,1.375-4.022,1.375   c-3.603,0-4.67-0.864-5.613-1.628c-0.771-0.624-1.567-1.269-3.369-1.269c-2.015,0-3.297,0.772-4.536,1.521   c-1.171,0.708-2.277,1.375-4.022,1.375c-3.603,0-4.67-0.864-5.612-1.628c-0.771-0.624-1.568-1.269-3.369-1.269   c-2.015,0-3.297,0.772-4.536,1.521c-1.17,0.708-2.276,1.375-4.022,1.375v1.199c2.079,0,3.382-0.786,4.642-1.548   c1.149-0.694,2.235-1.35,3.916-1.35c1.376,0,1.896,0.42,2.614,1.002c1.042,0.845,2.34,1.896,6.367,1.896   c2.08,0,3.383-0.786,4.642-1.548c1.149-0.694,2.235-1.35,3.916-1.35c1.376,0,1.896,0.42,2.614,1.002   c1.042,0.845,2.34,1.896,6.367,1.896c2.08,0,3.382-0.786,4.642-1.548c1.149-0.694,2.235-1.35,3.916-1.35   c1.376,0,1.896,0.42,2.614,1.002c1.043,0.845,2.341,1.896,6.368,1.896c2.08,0,3.382-0.786,4.642-1.548   c1.149-0.694,2.236-1.35,3.916-1.35c1.377,0,1.896,0.42,2.614,1.003c1.043,0.844,2.341,1.895,6.366,1.895   c2.081,0,3.383-0.786,4.643-1.548c1.149-0.694,2.235-1.35,3.916-1.35c1.378,0,1.896,0.42,2.615,1.003   c1.042,0.844,2.34,1.895,6.366,1.895v-1.199C90.246,79.725,89.178,78.86,88.235,78.097z"/></g><text x="0" y="115" fill="#000000" font-size="5px" font-weight="bold" font-family="'Helvetica Neue', Helvetica, Arial-Unicode, Arial, Sans-serif"></text><text x="0" y="120" fill="#000000" font-size="5px" font-weight="bold" font-family="'Helvetica Neue', Helvetica, Arial-Unicode, Arial, Sans-serif"></text></svg>