<svg height='100px' width='100px'  fill="#000000" xmlns="http://www.w3.org/2000/svg" xmlns:xlink="http://www.w3.org/1999/xlink" version="1.1" x="0px" y="0px" viewBox="0 0 50 50" enable-background="new 0 0 50 50" xml:space="preserve"><path d="M15.113,43.741c-0.117,0.06-0.253,0.102-0.407,0.13c-0.154,0.026-0.305,0.044-0.452,0.052  c-0.147,0.007-0.25,0.01-0.304,0.01c-0.371,0-0.645-0.038-0.823-0.114c-0.178-0.075-0.303-0.188-0.375-0.34  c-0.072-0.15-0.109-0.338-0.109-0.565c0-0.227-0.007-0.49-0.02-0.793c0-0.033-0.009-0.087-0.026-0.159  c-0.018-0.071-0.033-0.115-0.046-0.129c-0.042-0.062-0.095-0.123-0.159-0.185c-0.065-0.062-0.129-0.128-0.191-0.2  s-0.117-0.147-0.164-0.227c-0.048-0.079-0.072-0.16-0.072-0.242c0-0.103,0.013-0.198,0.04-0.283  c0.028-0.086,0.062-0.168,0.104-0.246c0.04-0.08,0.087-0.158,0.139-0.238c0.05-0.078,0.104-0.162,0.159-0.251  c0.027-0.049,0.081-0.147,0.159-0.299c0.079-0.15,0.163-0.314,0.253-0.488c0.089-0.176,0.176-0.345,0.261-0.51  c0.086-0.165,0.149-0.285,0.191-0.361l0.072-0.216l0.432-1.08c0.049-0.124,0.094-0.281,0.139-0.474  c0.044-0.191,0.09-0.386,0.139-0.582c0.047-0.194,0.1-0.38,0.159-0.555c0.059-0.175,0.129-0.311,0.211-0.406  c0.15-0.179,0.341-0.33,0.571-0.453s0.452-0.25,0.669-0.381c0.216-0.131,0.401-0.281,0.555-0.452  c0.154-0.172,0.232-0.396,0.232-0.67c0-0.033-0.003-0.087-0.006-0.159c-0.003-0.072-0.005-0.11-0.005-0.118  c0-0.014-0.012-0.049-0.035-0.107c-0.024-0.06-0.048-0.119-0.072-0.181c-0.024-0.061-0.049-0.121-0.072-0.18  c-0.024-0.059-0.037-0.094-0.037-0.108c-0.04-0.144-0.074-0.275-0.097-0.396c-0.024-0.121-0.045-0.235-0.062-0.346  c-0.017-0.109-0.036-0.218-0.057-0.324c-0.02-0.105-0.047-0.214-0.082-0.323c-0.033-0.117-0.082-0.236-0.144-0.36  s-0.122-0.25-0.18-0.38c-0.058-0.131-0.106-0.265-0.144-0.402s-0.049-0.278-0.036-0.422c0-0.041-0.001-0.099-0.005-0.175  c-0.003-0.075,0-0.151,0.01-0.227c0.01-0.075,0.031-0.138,0.062-0.19c0.03-0.052,0.084-0.07,0.159-0.057v-0.566  c-0.144,0-0.305-0.006-0.483-0.02c-0.178-0.014-0.345-0.005-0.499,0.025c-0.155,0.031-0.283,0.096-0.386,0.195  c-0.103,0.099-0.154,0.259-0.154,0.479c0,0.349,0.054,0.682,0.159,0.998c0.107,0.314,0.225,0.629,0.355,0.941  c0.131,0.312,0.249,0.625,0.355,0.941c0.106,0.314,0.159,0.645,0.159,0.987c0,0.439-0.035,0.791-0.107,1.055  c-0.072,0.264-0.179,0.494-0.32,0.689c-0.141,0.195-0.309,0.387-0.504,0.57c-0.195,0.187-0.416,0.416-0.663,0.69V35.35l-0.72,0.72  h-0.092c0-0.049,0.015-0.098,0.045-0.148c0.032-0.053,0.069-0.104,0.114-0.154c0.044-0.052,0.087-0.101,0.129-0.145  c0.041-0.045,0.072-0.088,0.092-0.129h-0.072l-0.504,0.433c-0.021,0.007-0.035,0.01-0.042,0.01c-0.095,0-0.162-0.057-0.2-0.169  c-0.038-0.114-0.056-0.229-0.056-0.345v-0.187c0-0.082,0.005-0.134,0.015-0.154c0.01-0.02,0.025-0.034,0.046-0.041  s0.044-0.016,0.072-0.025c0.028-0.011,0.058-0.043,0.093-0.098c0.047-0.075,0.073-0.177,0.077-0.304  c0.003-0.126,0.005-0.231,0.005-0.314c0-0.268-0.04-0.511-0.119-0.729c-0.079-0.22-0.178-0.428-0.298-0.623  c-0.12-0.196-0.248-0.387-0.385-0.571c-0.138-0.186-0.267-0.379-0.387-0.581c-0.119-0.203-0.219-0.417-0.298-0.644  s-0.118-0.483-0.118-0.771v-0.114c0-0.048,0.001-0.094,0.006-0.139c0.003-0.045,0.005-0.084,0.005-0.118v-0.062  c0.047-0.48,0.107-0.963,0.179-1.446c0.072-0.483,0.199-0.918,0.381-1.302c0.182-0.385,0.446-0.696,0.793-0.937  c0.346-0.241,0.817-0.359,1.414-0.359c0.22,0,0.426,0.029,0.622,0.092c0.196,0.062,0.386,0.131,0.571,0.206  c0.186,0.075,0.369,0.144,0.551,0.206c0.181,0.062,0.368,0.092,0.561,0.092c0.054,0,0.11-0.005,0.169-0.015  c0.059-0.011,0.112-0.034,0.159-0.067c0.288-0.22,0.554-0.42,0.798-0.602s0.53-0.366,0.859-0.551  c0.054-0.035,0.086-0.073,0.093-0.119c0.007-0.045,0.015-0.09,0.025-0.139c0.01-0.049,0.029-0.099,0.057-0.154  c0.027-0.055,0.089-0.11,0.185-0.165c0.158-0.103,0.343-0.187,0.555-0.252c0.213-0.065,0.434-0.117,0.664-0.153  c0.23-0.039,0.458-0.064,0.684-0.077c0.226-0.015,0.432-0.021,0.618-0.021c0.04-0.09,0.125-0.16,0.251-0.211  c0.127-0.051,0.264-0.093,0.412-0.123c0.147-0.032,0.293-0.054,0.437-0.067c0.144-0.013,0.258-0.023,0.34-0.031  c-0.007-0.021-0.019-0.058-0.036-0.112c-0.018-0.056-0.033-0.114-0.046-0.176c-0.014-0.062-0.029-0.12-0.042-0.174  c-0.013-0.056-0.02-0.094-0.02-0.114c0-0.014-0.003-0.053-0.01-0.118c-0.007-0.064-0.016-0.133-0.026-0.205  c-0.011-0.072-0.019-0.141-0.026-0.206s-0.01-0.105-0.01-0.119c-0.042-0.124-0.101-0.228-0.181-0.312  c-0.079-0.087-0.117-0.201-0.117-0.346c0-0.062,0.025-0.11,0.077-0.144c0.051-0.035,0.077-0.09,0.077-0.165v-0.041l-4.034,2.593  c-0.068,0.041-0.116,0.064-0.144,0.071c-0.027,0.007-0.08,0.011-0.155,0.011s-0.142-0.016-0.2-0.046  c-0.058-0.031-0.088-0.088-0.088-0.171c0-0.108,0.043-0.211,0.129-0.303s0.166-0.162,0.242-0.211l4.466-2.953  c0.007-0.028,0.01-0.048,0.01-0.062c0-0.131-0.023-0.25-0.072-0.355c-0.049-0.106-0.099-0.211-0.154-0.314  c-0.055-0.103-0.107-0.205-0.154-0.309c-0.049-0.103-0.072-0.216-0.072-0.34c0-0.198,0.012-0.395,0.035-0.591  c0.024-0.196,0.052-0.392,0.082-0.586c0.032-0.196,0.059-0.391,0.083-0.582c0.024-0.192,0.036-0.388,0.036-0.587v-0.135  c0-0.062-0.003-0.095-0.01-0.102l-0.072-0.072c0-0.007-0.002-0.04-0.005-0.098c-0.003-0.058-0.005-0.104-0.005-0.14  c0-0.185,0.02-0.33,0.062-0.438c0.04-0.105,0.097-0.197,0.169-0.272c0.072-0.075,0.156-0.147,0.252-0.216s0.202-0.162,0.319-0.278  c0.041-0.048,0.084-0.109,0.129-0.185c0.044-0.075,0.084-0.152,0.118-0.231s0.068-0.158,0.103-0.237  c0.034-0.079,0.062-0.149,0.082-0.211c0-0.007,0.002-0.019,0.005-0.035c0.003-0.019,0.005-0.03,0.005-0.037  c0-0.116-0.029-0.216-0.087-0.298c-0.059-0.083-0.121-0.17-0.186-0.264c-0.064-0.092-0.117-0.2-0.159-0.323  c-0.041-0.124-0.044-0.284-0.01-0.483c-0.02,0.026-0.062,0.071-0.124,0.134c-0.062,0.062-0.126,0.127-0.195,0.195  c-0.069,0.069-0.133,0.134-0.195,0.195s-0.107,0.104-0.134,0.123c-0.042,0.035-0.109,0.064-0.201,0.088  c-0.092,0.024-0.185,0.052-0.278,0.082c-0.092,0.031-0.176,0.072-0.251,0.123c-0.075,0.053-0.121,0.123-0.134,0.212  c-0.007,0.014-0.007,0.062,0,0.144c0.007,0.083,0.007,0.131,0,0.145c-0.013,0.062-0.05,0.106-0.109,0.134  c-0.058,0.028-0.117,0.062-0.179,0.104c-0.062,0.04-0.116,0.096-0.16,0.164c-0.044,0.068-0.062,0.175-0.056,0.319  c-0.007,0-0.018,0.003-0.032,0.011c-0.027,0-0.075-0.047-0.144-0.139c-0.068-0.094-0.139-0.201-0.211-0.325  c-0.072-0.124-0.135-0.243-0.189-0.36c-0.056-0.116-0.083-0.195-0.083-0.236c0-0.172,0.089-0.258,0.267-0.258  c0.007,0,0.025,0.002,0.052,0.005c0.027,0.004,0.045,0.006,0.052,0.006c-0.015,0.014-0.03,0.048-0.047,0.104  c-0.017,0.055-0.025,0.092-0.025,0.112c0,0.007,0.008,0.02,0.025,0.037c0.017,0.017,0.032,0.028,0.047,0.035  c0.02,0.006,0.033,0.011,0.04,0.011c0.028,0,0.055-0.045,0.083-0.135c0.027-0.089,0.064-0.191,0.113-0.309  c0.049-0.116,0.11-0.236,0.186-0.36c0.075-0.124,0.174-0.219,0.298-0.288c0-0.026-0.001-0.071-0.005-0.134  c-0.003-0.062-0.005-0.123-0.005-0.185c0-0.068,0.001-0.134,0.005-0.195c0.003-0.062,0.005-0.107,0.005-0.134  c0.007-0.069,0.034-0.124,0.083-0.164c0.048-0.042,0.097-0.079,0.149-0.114c0.052-0.033,0.1-0.07,0.144-0.108  c0.045-0.037,0.067-0.088,0.067-0.148c0-0.083-0.015-0.162-0.047-0.237c-0.03-0.075-0.066-0.149-0.107-0.221  c-0.042-0.072-0.077-0.146-0.109-0.222c-0.03-0.075-0.045-0.153-0.045-0.235c0-0.166,0.081-0.294,0.241-0.388  c0.161-0.092,0.34-0.169,0.535-0.23c0.195-0.062,0.374-0.115,0.535-0.159c0.161-0.046,0.242-0.095,0.242-0.149v-0.72  c0-0.062,0.029-0.112,0.088-0.15c0.058-0.037,0.124-0.067,0.2-0.093c0.075-0.023,0.151-0.038,0.227-0.045  c0.075-0.008,0.133-0.011,0.174-0.011c0.082,0,0.156,0.003,0.221,0.011c0.065,0.007,0.136,0.03,0.211,0.071  c0.131-0.117,0.242-0.207,0.335-0.272c0.092-0.065,0.221-0.098,0.385-0.098c0.193,0,0.35,0.059,0.474,0.18  c0.123,0.12,0.221,0.268,0.293,0.442c0.072,0.176,0.12,0.358,0.144,0.551c0.023,0.191,0.036,0.363,0.036,0.514  c0,0.151-0.049,0.259-0.15,0.319c-0.099,0.062-0.208,0.113-0.328,0.155c-0.121,0.04-0.23,0.085-0.33,0.133  c-0.099,0.048-0.149,0.13-0.149,0.247c0,0.089,0.048,0.164,0.144,0.227c0.096,0.062,0.216,0.124,0.36,0.186s0.302,0.125,0.474,0.19  c0.171,0.064,0.328,0.146,0.472,0.241s0.265,0.213,0.36,0.351c0.097,0.137,0.145,0.302,0.145,0.494c0,0.068-0.031,0.124-0.093,0.169  s-0.129,0.087-0.201,0.129c-0.072,0.04-0.139,0.087-0.2,0.139c-0.061,0.052-0.093,0.118-0.093,0.2c0,0.008,0.003,0.021,0.01,0.041  c0.014,0.014,0.05,0.062,0.109,0.145s0.094,0.131,0.107,0.144v0.032v0.04c-0.007,0.007-0.02,0.032-0.04,0.072  c-0.021,0.042-0.032,0.065-0.032,0.072c0,0.014,0.011,0.05,0.032,0.108c0.02,0.059,0.033,0.094,0.04,0.107  c0,0.007,0.002,0.019,0.006,0.037c0.003,0.017,0.005,0.028,0.005,0.035c0,0.055-0.005,0.092-0.016,0.108  c-0.01,0.017-0.032,0.054-0.067,0.107c-0.014,0.028-0.041,0.071-0.082,0.134c-0.041,0.062-0.084,0.127-0.128,0.196  c-0.044,0.068-0.089,0.134-0.134,0.195c-0.044,0.062-0.074,0.103-0.088,0.123l0.216,0.288v0.031c0,0.056-0.013,0.1-0.04,0.134  c-0.028,0.034-0.042,0.079-0.042,0.134c0,0.007,0.003,0.027,0.01,0.062c0.035,0.061,0.105,0.178,0.211,0.349  c0.107,0.172,0.216,0.351,0.33,0.535c0.113,0.187,0.216,0.351,0.308,0.494c0.093,0.145,0.142,0.217,0.149,0.217  c0.186,0,0.323-0.024,0.412-0.072c0.088-0.049,0.152-0.114,0.191-0.196c0.037-0.082,0.062-0.174,0.072-0.278  c0.01-0.102,0.028-0.212,0.056-0.328c0.028-0.117,0.086-0.235,0.175-0.354c0.088-0.121,0.15-0.243,0.185-0.365  c0-0.015,0.003-0.051,0.011-0.109c0.007-0.059,0.015-0.118,0.025-0.179c0.01-0.062,0.019-0.122,0.026-0.181  c0.007-0.059,0.011-0.094,0.011-0.108c0.02-0.109,0.08-0.195,0.179-0.257c0.1-0.062,0.206-0.121,0.319-0.175  c0.113-0.055,0.214-0.113,0.304-0.176c0.088-0.062,0.134-0.147,0.134-0.258v-1.1c0.007,0,0.019,0.001,0.035,0.005  c0.018,0.003,0.029,0.008,0.037,0.015c0.013,0.014,0.048,0.049,0.107,0.104c0.059,0.054,0.095,0.093,0.109,0.112v-0.729  c0.109,0,0.209,0.026,0.298,0.082c0.088,0.055,0.17,0.115,0.246,0.18c0.075,0.065,0.144,0.125,0.206,0.18  c0.062,0.056,0.121,0.082,0.176,0.082c0.047,0,0.092-0.012,0.133-0.035s0.082-0.052,0.118-0.082  c0.039-0.031,0.079-0.059,0.124-0.083c0.044-0.023,0.094-0.035,0.149-0.035c0.138,0,0.242,0.029,0.314,0.092  c0.072,0.062,0.13,0.131,0.175,0.206c0.044,0.075,0.085,0.148,0.123,0.221s0.095,0.119,0.17,0.14  c0.089,0.021,0.185,0.055,0.288,0.103s0.201,0.098,0.293,0.15c0.092,0.051,0.179,0.095,0.258,0.133  c0.079,0.037,0.139,0.056,0.179,0.056h0.072c0.035,0,0.055-0.003,0.062-0.01l9.436-5.999v0.092l-8.788,6.052  c-0.006,0.014-0.01,0.024-0.01,0.031c0,0.062,0.048,0.136,0.144,0.221c0.095,0.086,0.218,0.177,0.365,0.273  c0.147,0.096,0.311,0.193,0.489,0.293c0.178,0.099,0.35,0.194,0.514,0.283c0.165,0.089,0.314,0.169,0.448,0.241  c0.133,0.072,0.229,0.129,0.283,0.171c0.061,0.04,0.103,0.082,0.123,0.122c0.02,0.042,0.037,0.08,0.047,0.114  c0.01,0.034,0.022,0.068,0.035,0.103c0.014,0.034,0.042,0.064,0.083,0.093c0.158,0.096,0.311,0.197,0.458,0.304  s0.28,0.223,0.396,0.35c0.117,0.127,0.209,0.269,0.278,0.422c0.069,0.154,0.104,0.328,0.104,0.52c0,0.303-0.029,0.515-0.083,0.638  c-0.055,0.124-0.125,0.211-0.21,0.264c-0.087,0.052-0.181,0.095-0.283,0.134c-0.104,0.037-0.203,0.121-0.299,0.251l-0.144,0.145  c-0.124,0.062-0.264,0.115-0.422,0.16c-0.158,0.044-0.306,0.087-0.443,0.128c0.055,0.145,0.083,0.281,0.083,0.411  c0,0.015-0.003,0.046-0.011,0.094c-0.006,0.014-0.023,0.044-0.05,0.093c-0.029,0.048-0.057,0.101-0.088,0.159  c-0.031,0.059-0.062,0.112-0.093,0.159c-0.03,0.048-0.049,0.079-0.057,0.094c-0.021,0.04-0.037,0.105-0.05,0.194  c-0.015,0.09-0.032,0.181-0.052,0.272c-0.02,0.093-0.045,0.178-0.072,0.253c-0.028,0.075-0.065,0.123-0.114,0.145  c-0.007,0-0.027,0.001-0.062,0.005c-0.034,0.003-0.058,0.005-0.072,0.005c-0.096,0-0.173-0.023-0.232-0.072  s-0.129-0.072-0.211-0.072v0.135c0.13,0.322,0.248,0.628,0.35,0.916s0.196,0.574,0.278,0.858c0.082,0.285,0.159,0.575,0.231,0.87  c0.072,0.294,0.146,0.614,0.221,0.957c0.035,0.014,0.089,0.057,0.161,0.129c0.072,0.071,0.114,0.124,0.128,0.159  c0,0.014-0.013,0.062-0.036,0.145c-0.024,0.082-0.036,0.13-0.036,0.144c0,0.041-0.002,0.111-0.006,0.212  c-0.003,0.099-0.005,0.207-0.005,0.323c0,0.117,0.001,0.227,0.005,0.329s0.006,0.175,0.006,0.217l-0.145,0.071  c0.118,0.254,0.211,0.486,0.283,0.695c0.072,0.209,0.136,0.414,0.191,0.612s0.106,0.401,0.154,0.607  c0.048,0.205,0.104,0.432,0.165,0.679l0.072,0.072c0.274,0.083,0.53,0.154,0.766,0.216c0.237,0.062,0.469,0.109,0.695,0.145  c0.226,0.034,0.458,0.058,0.7,0.072c0.24,0.014,0.504,0.014,0.792,0c0.219,0.062,0.395,0.171,0.529,0.328  c0.134,0.158,0.201,0.364,0.201,0.618c0,0.33-0.068,0.644-0.206,0.941c-0.137,0.299-0.288,0.582-0.452,0.849l-0.072,0.145  c-0.007,0.035-0.028,0.102-0.062,0.201s-0.072,0.216-0.114,0.35c-0.041,0.134-0.087,0.276-0.138,0.427  c-0.051,0.151-0.1,0.293-0.144,0.428c-0.044,0.134-0.085,0.251-0.118,0.35c-0.035,0.099-0.059,0.162-0.072,0.191  c-0.035,0.088-0.079,0.181-0.134,0.276c-0.055,0.097-0.119,0.186-0.191,0.268c-0.072,0.083-0.154,0.153-0.246,0.211  c-0.093,0.059-0.191,0.096-0.293,0.109h-0.094h-0.164h-0.154h-0.092c-0.097,0.026-0.184,0.068-0.263,0.123  c-0.079,0.054-0.158,0.111-0.237,0.17c-0.079,0.059-0.162,0.107-0.247,0.148c-0.085,0.042-0.183,0.062-0.293,0.062h-0.113  c-0.048-0.007-0.134-0.017-0.257-0.031c-0.124-0.015-0.254-0.027-0.392-0.041c-0.136-0.014-0.266-0.027-0.39-0.042  c-0.124-0.014-0.209-0.023-0.258-0.03c-0.095-0.035-0.157-0.072-0.184-0.113c-0.029-0.041-0.042-0.112-0.042-0.217  c0-0.164,0.028-0.341,0.082-0.529c0.055-0.188,0.132-0.363,0.232-0.524c0.1-0.162,0.222-0.298,0.366-0.406  c0.144-0.11,0.308-0.166,0.493-0.166c0.083,0,0.163,0.013,0.242,0.037c0.079,0.023,0.158,0.052,0.236,0.082  c0.079,0.031,0.157,0.059,0.232,0.082c0.075,0.024,0.151,0.037,0.227,0.037c0.007,0,0.027-0.004,0.061-0.011  c0.014-0.007,0.04-0.041,0.078-0.104c0.037-0.062,0.06-0.099,0.066-0.113c0.137-0.151,0.28-0.309,0.427-0.473  c0.147-0.165,0.283-0.34,0.406-0.525c0.124-0.185,0.226-0.378,0.309-0.577c0.083-0.198,0.123-0.403,0.123-0.616  c-0.281,0-0.534,0.011-0.76,0.03c-0.227,0.021-0.451,0.049-0.67,0.082c-0.219,0.035-0.442,0.075-0.668,0.124  c-0.227,0.049-0.478,0.099-0.752,0.154c-0.116,0.021-0.209,0.035-0.277,0.042c-0.069,0.007-0.131,0.013-0.19,0.02  c-0.059,0.007-0.118,0.016-0.176,0.025c-0.058,0.011-0.131,0.03-0.221,0.057c-0.034,0.069-0.092,0.193-0.174,0.37  c-0.082,0.18-0.168,0.368-0.258,0.566c-0.089,0.199-0.174,0.389-0.256,0.566c-0.083,0.179-0.141,0.302-0.176,0.371  c-0.069,0.151-0.118,0.288-0.149,0.411c-0.03,0.123-0.054,0.247-0.067,0.37c-0.013,0.123-0.023,0.256-0.03,0.396  c-0.008,0.141-0.022,0.3-0.042,0.479c-0.014,0.145-0.051,0.285-0.113,0.423c-0.061,0.137-0.13,0.274-0.205,0.411  s-0.151,0.273-0.227,0.411c-0.075,0.137-0.133,0.274-0.175,0.412c-0.027,0.082-0.072,0.224-0.134,0.427  c-0.062,0.202-0.126,0.419-0.195,0.648s-0.134,0.447-0.195,0.652c-0.062,0.206-0.104,0.351-0.124,0.433  c0,0.021-0.002,0.068-0.005,0.144c-0.003,0.076-0.005,0.124-0.005,0.145c0,0.248,0.02,0.466,0.062,0.654  c0.04,0.188,0.099,0.364,0.174,0.529c0.075,0.164,0.167,0.329,0.273,0.494c0.106,0.164,0.228,0.351,0.365,0.556  c0.021,0.034,0.047,0.086,0.077,0.154c0.031,0.069,0.062,0.141,0.093,0.217c0.031,0.075,0.058,0.146,0.083,0.211  c0.023,0.065,0.035,0.11,0.035,0.139c0,0.021-0.006,0.057-0.02,0.107c-0.013,0.052-0.027,0.108-0.042,0.17  c-0.013,0.062-0.028,0.12-0.045,0.175c-0.019,0.056-0.03,0.096-0.037,0.124c-0.033,0.075-0.095,0.13-0.185,0.164  c-0.089,0.034-0.185,0.057-0.288,0.067c-0.103,0.01-0.204,0.012-0.304,0.005c-0.099-0.007-0.176-0.01-0.231-0.01h-0.103  c-0.048,0-0.1-0.002-0.155-0.006c-0.053-0.003-0.105-0.005-0.154-0.005h-0.092c-0.274-0.124-0.445-0.242-0.514-0.354  c-0.068-0.114-0.102-0.23-0.099-0.351s0.013-0.245,0.027-0.375c0.013-0.131-0.032-0.274-0.134-0.433  c-0.062-0.097-0.124-0.186-0.186-0.268c-0.062-0.082-0.114-0.166-0.159-0.253c-0.044-0.085-0.082-0.179-0.113-0.283  c-0.031-0.102-0.046-0.219-0.046-0.349c0-0.145,0.015-0.281,0.046-0.411c0.031-0.131,0.07-0.26,0.118-0.387  c0.048-0.127,0.096-0.255,0.144-0.386c0.048-0.13,0.089-0.265,0.124-0.401c0.199-0.81,0.298-1.611,0.298-2.408  c0-0.185-0.015-0.369-0.047-0.55c-0.03-0.183-0.045-0.368-0.045-0.561c0-0.206,0.02-0.409,0.061-0.607s0.084-0.399,0.128-0.603  c0.045-0.202,0.088-0.405,0.129-0.606C30.979,33.773,31,33.565,31,33.354c0-0.344-0.074-0.57-0.221-0.681  c-0.147-0.108-0.414-0.131-0.797-0.062c-0.042-0.103-0.09-0.166-0.144-0.19c-0.055-0.024-0.124-0.036-0.206-0.036  c-0.103,0-0.206,0.022-0.309,0.067s-0.205,0.097-0.309,0.159c-0.102,0.062-0.206,0.12-0.308,0.176  c-0.103,0.055-0.206,0.092-0.308,0.112c-0.048,0.014-0.134,0.031-0.258,0.052s-0.254,0.042-0.391,0.062  c-0.136,0.021-0.267,0.041-0.391,0.062c-0.124,0.02-0.209,0.033-0.257,0.04l-0.072,0.072c-0.123,0.213-0.232,0.436-0.324,0.67  c-0.092,0.232-0.181,0.471-0.263,0.715c-0.082,0.243-0.163,0.485-0.241,0.726s-0.163,0.474-0.253,0.699  c-0.027,0.076-0.072,0.13-0.133,0.159c-0.061,0.031-0.129,0.053-0.206,0.062c-0.076,0.01-0.153,0.014-0.232,0.01  c-0.079-0.003-0.149-0.005-0.21-0.005c-0.192,0-0.354-0.025-0.483-0.077c-0.131-0.052-0.253-0.117-0.366-0.196  c-0.113-0.078-0.229-0.164-0.344-0.256c-0.117-0.094-0.251-0.185-0.402-0.272c-0.034-0.021-0.095-0.056-0.185-0.104  c-0.089-0.047-0.184-0.097-0.283-0.148s-0.193-0.101-0.283-0.149c-0.09-0.048-0.151-0.082-0.185-0.103  c-0.042,0.034-0.114,0.093-0.216,0.175c-0.103,0.082-0.212,0.168-0.33,0.258c-0.116,0.089-0.225,0.174-0.323,0.257  c-0.1,0.082-0.17,0.14-0.211,0.175c-0.027,0.021-0.062,0.052-0.103,0.093s-0.081,0.08-0.118,0.118  c-0.039,0.037-0.085,0.087-0.139,0.149v0.072l0.504,1.008l0.072,0.072c0.007,0.014,0.023,0.042,0.052,0.082  c0.027,0.042,0.055,0.087,0.087,0.139c0.03,0.052,0.06,0.099,0.087,0.14c0.027,0.041,0.048,0.064,0.062,0.071  c0.027,0.034,0.101,0.112,0.221,0.231c0.121,0.12,0.249,0.25,0.386,0.387c0.137,0.138,0.267,0.266,0.391,0.386  s0.199,0.194,0.226,0.221c0.124,0.131,0.231,0.272,0.325,0.427c0.092,0.154,0.152,0.325,0.179,0.51  c0.006,0.083,0.02,0.229,0.042,0.442c0.02,0.213,0.042,0.438,0.067,0.675c0.023,0.235,0.045,0.46,0.066,0.673  s0.034,0.361,0.041,0.443c0,0.007,0.001,0.042,0.005,0.107s0.005,0.112,0.005,0.14c0,0.171-0.015,0.341-0.045,0.509  c-0.032,0.168-0.092,0.325-0.181,0.469c-0.014,0-0.044,0.002-0.092,0.005c-0.049,0.004-0.079,0.005-0.093,0.005  c-0.186,0-0.383-0.04-0.592-0.118c-0.209-0.079-0.4-0.186-0.576-0.318c-0.174-0.134-0.318-0.293-0.432-0.479  c-0.113-0.185-0.169-0.38-0.169-0.586c0-0.11,0.027-0.209,0.082-0.298c0.055-0.091,0.115-0.178,0.18-0.264  c0.064-0.085,0.125-0.17,0.18-0.258c0.055-0.085,0.082-0.179,0.082-0.282c0-0.007-0.001-0.019-0.005-0.035  c-0.003-0.018-0.005-0.029-0.005-0.037c-0.199-0.178-0.343-0.348-0.432-0.51c-0.089-0.16-0.167-0.319-0.231-0.478  c-0.065-0.158-0.139-0.314-0.222-0.469c-0.082-0.153-0.219-0.316-0.411-0.488c-0.062-0.055-0.168-0.149-0.32-0.283  c-0.151-0.134-0.31-0.273-0.478-0.417c-0.169-0.145-0.328-0.279-0.479-0.405c-0.15-0.127-0.254-0.215-0.308-0.263  c-0.151-0.124-0.308-0.215-0.469-0.273c-0.161-0.058-0.308-0.123-0.442-0.195c-0.134-0.071-0.245-0.17-0.335-0.294  c-0.088-0.122-0.134-0.308-0.134-0.555v-0.154c0-0.068,0.003-0.106,0.011-0.113l0.576-0.647v-0.072l-0.144,0.072  c-0.041,0.026-0.096,0.063-0.165,0.106c-0.068,0.046-0.137,0.09-0.206,0.134c-0.068,0.046-0.129,0.087-0.184,0.124  c-0.055,0.038-0.086,0.061-0.093,0.067c-0.021,0.014-0.098,0.075-0.232,0.186c-0.134,0.109-0.29,0.236-0.467,0.381  c-0.179,0.144-0.357,0.291-0.536,0.441c-0.177,0.151-0.318,0.271-0.422,0.36c-0.213,0.18-0.437,0.405-0.673,0.68  c-0.237,0.275-0.457,0.571-0.658,0.89c-0.203,0.32-0.369,0.649-0.499,0.988c-0.131,0.34-0.196,0.664-0.196,0.973  c0,0.288,0.057,0.553,0.169,0.792c0.114,0.241,0.24,0.479,0.376,0.716c0.137,0.236,0.262,0.478,0.376,0.72  c0.112,0.245,0.169,0.514,0.169,0.81C15.287,43.603,15.229,43.683,15.113,43.741z M22.814,12.077  c-0.031,0.1-0.046,0.207-0.046,0.324c0,0.021,0.002,0.063,0.005,0.128c0.003,0.065,0.005,0.108,0.005,0.129  c0.006-0.021,0.027-0.06,0.062-0.117c0.033-0.059,0.07-0.123,0.107-0.191c0.039-0.068,0.072-0.141,0.104-0.216  c0.03-0.075,0.046-0.145,0.046-0.206C22.939,11.928,22.845,11.978,22.814,12.077z M27.532,18.709c-0.007,0-0.04,0.01-0.098,0.03  c-0.059,0.021-0.131,0.05-0.216,0.089c-0.085,0.036-0.149,0.07-0.19,0.097c-0.021,0.014-0.049,0.038-0.088,0.072  c-0.037,0.034-0.056,0.059-0.056,0.072v0.534c0.021,0,0.058-0.001,0.113-0.005s0.114-0.007,0.175-0.011  c0.061-0.003,0.12-0.007,0.175-0.01c0.055-0.004,0.092-0.005,0.113-0.005c0.021-0.007,0.049-0.019,0.088-0.036  c0.037-0.018,0.056-0.029,0.056-0.036v-0.72L27.532,18.709z M33.902,18.635c-0.028,0-0.099,0.004-0.211,0.011  c-0.114,0.007-0.232,0.021-0.355,0.042c-0.124,0.02-0.235,0.047-0.335,0.076c-0.099,0.031-0.149,0.07-0.149,0.119  c0,0.089,0.019,0.168,0.057,0.236c0.037,0.068,0.101,0.103,0.19,0.103c0.233,0,0.437-0.041,0.612-0.123  c0.175-0.082,0.3-0.236,0.375-0.464H33.902z"></path></svg>