<svg xmlns="http://www.w3.org/2000/svg" xmlns:xlink="http://www.w3.org/1999/xlink" version="1.1" x="0px" y="0px" viewBox="0 0 50 62.5" enable-background="new 0 0 50 50" xml:space="preserve"><g><path fill="#000000" d="M20.098,25.886v19.063c-0.548,0-0.832,0.509-1.377,1.055L6.191,25.86l0.835,0.568l3.811-0.543H20.098z    M21.731,25.886v19.605c-0.544-0.543-1.091-0.543-1.091-0.543V25.886H21.731z M30.445,24.796h-8.169V4.101l0,0   c1.633,0.544,2.726,1.633,3.269,2.724c0.543,1.088,1.086,2.178,1.633,3.267c0,1.09,0,2.18,0.545,3.268   c0,1.089,0.543,2.179,1.635,2.723c1.088,0.544,1.635,2.18,1.088,3.814C30.445,21.529,30.445,23.161,30.445,24.796L30.445,24.796z    M21.187,48.216c2.318-0.668,3.266-2.18,4.357-3.268c1.086-1.088,1.633-2.723,2.178-3.813c0.543-1.09,1.09-2.182,1.09-3.27   c0.545-0.543,1.09-1.088,1.633-1.633c0.547,0,1.09-0.543,1.633-1.092c0.545-1.086,0.545-2.176,1.092-3.266   c0.543-0.545,1.088-1.635,1.088-3.268s-0.545-2.723-1.088-2.723h5.443l0.547,0.543l5.447-1.088l-5.447-1.635l-0.547,1.09H33.17   c-0.547-1.635-0.547-3.267-0.547-5.446c0-1.633-0.545-3.269-1.088-3.813c-1.09-0.545-1.633-1.09-2.178-2.179   c-0.545-1.632-1.092-2.723-1.635-3.813c-0.545-1.634-1.092-2.722-2.178-3.813c-0.543-1.089-1.636-2.177-3.269-2.724   c0-0.545-0.545-1.087-1.636-1.633c-1.09,0-1.633,0.546-1.633,1.088c-0.545,0.545-0.545,1.092-0.545,1.636L5.393,25.341   l13.069,21.238c0,0.547,0,1.094,1.088,1.637C20.098,48.759,20.64,48.759,21.187,48.216L21.187,48.216z M30.992,25.886   c-1.09,0-1.635,0.543-1.635,1.633c0,0.546,0.545,1.09,1.088,1.09c0,4.357-0.543,6.533-1.633,7.082   c-0.547,0.543-1.09,1.633-1.09,2.176c-0.545,1.088-0.545,2.18-0.545,3.27c-0.547,1.09-1.581,2.088-2.125,3.179   c-0.545,1.089-1.062,1.339-2.694,2.429c0-0.545-0.083-0.164-0.083-0.707v-20.15H30.992z M21.731,24.796H20.64V5.188   c0,0,0.547,0,1.091-0.544V24.796z M20.098,24.796h-9.261l-3.811-0.543l-0.904,1.002L18.923,4.508c0,0,0.627,0.681,1.175,0.681   V24.796z"/></g><text x="0" y="65" fill="#000000" font-size="5px" font-weight="bold" font-family="'Helvetica Neue', Helvetica, Arial-Unicode, Arial, Sans-serif"></text><text x="0" y="70" fill="#000000" font-size="5px" font-weight="bold" font-family="'Helvetica Neue', Helvetica, Arial-Unicode, Arial, Sans-serif"></text></svg>