<svg xmlns="http://www.w3.org/2000/svg" xmlns:xlink="http://www.w3.org/1999/xlink" version="1.1" x="0px" y="0px" viewBox="0 0 100 125" enable-background="new 0 0 100 100" xml:space="preserve"><path d="M76.064,54.267l13.073,1.881l-8.122-10.319c0.152-0.496,0.27-0.998,0.384-1.501l12.214-4.886l-12.314-4.927  c-0.111-0.451-0.231-0.899-0.372-1.344l8.208-10.435l-13.369,1.927c-0.011-0.012-0.021-0.028-0.035-0.039  c-0.242-0.243-0.503-0.455-0.759-0.685l1.938-13.431l-10.914,8.586c-0.209-0.054-0.419-0.106-0.631-0.154L60.202,6.031  l-5.278,13.193c-0.087,0.025-0.177,0.04-0.264,0.068l-11.162-8.785l2.059,14.288l-14.289-2.059l8.928,11.343l-13.403,5.363  l13.373,5.35c0.004,0.014,0.007,0.026,0.01,0.038l-8.907,11.317l2.969-0.427L6.386,84.124l9.844,9.846l27.641-28.191l-0.375,2.6  l10.833-8.527c0.255,0.079,0.505,0.152,0.758,0.224l5.115,12.779l4.997-12.497c0.387-0.084,0.775-0.177,1.158-0.282l10.55,8.304  l-1.887-13.103c0.236-0.215,0.481-0.414,0.71-0.643C75.85,54.517,75.947,54.386,76.064,54.267z M67.171,47.648l1.946-1.991  l4.024,7.828l-7.918-3.846L67.171,47.648z M65.025,31.92l7.831-4.026l-3.851,7.918l-1.99-1.946L65.025,31.92z M47.758,53.35  l3.639-7.495l1.993,1.946l1.993,1.946l-7.416,3.812L47.758,53.35z M47.264,28.182l7.916,3.849l-1.941,1.991l-1.949,1.991  L47.264,28.182z M13.279,85.108l-1.97-1.969l28.625-28.24l4.642-0.669L13.279,85.108z"/><text x="0" y="115" fill="#000000" font-size="5px" font-weight="bold" font-family="'Helvetica Neue', Helvetica, Arial-Unicode, Arial, Sans-serif"></text><text x="0" y="120" fill="#000000" font-size="5px" font-weight="bold" font-family="'Helvetica Neue', Helvetica, Arial-Unicode, Arial, Sans-serif"></text></svg>