<svg xmlns="http://www.w3.org/2000/svg" viewBox="0 0 566.93 708.6624999999999" x="0px" y="0px"><title>a</title><g><path d="M444.517,297.725H88.73a6.75,6.75,0,0,1-6.75-6.75V152.614a6.753,6.753,0,0,1,.6-2.793c9.19-20.219,23.2-33.357,41.634-39.049,33.674-10.4,71.684,7.525,83.946,14.111C233.074,107.144,257.5,100,280.83,103.65c25.157,3.934,41.83,19.4,48.864,27.268,33.3-16.87,62-21.192,85.376-12.843,26.051,9.3,35.3,31.036,35.683,31.957a6.749,6.749,0,0,1,.514,2.582V290.975A6.75,6.75,0,0,1,444.517,297.725ZM95.48,284.225H437.767V154.115A49.429,49.429,0,0,0,410.272,130.7c-20.743-7.287-47.364-2.345-79.127,14.688a6.749,6.749,0,0,1-8.7-2.049c-.147-.206-16.13-22.116-43.876-26.375-20.655-3.173-42.817,4.006-65.872,21.333a6.749,6.749,0,0,1-7.557.375c-.42-.254-42.871-25.551-76.982-14.985-14.183,4.392-25.172,14.624-32.68,30.421Z"/><path d="M301.65,368.877H233.07a6.75,6.75,0,0,1,0-13.5H301.65a6.75,6.75,0,0,1,0,13.5Z"/><path d="M448.03,368.877H418.14a6.75,6.75,0,0,1,0-13.5H448.03a21.824,21.824,0,0,0,21.8-21.8v-14.05a21.824,21.824,0,0,0-21.8-21.8H96.64a21.825,21.825,0,0,0-21.8,21.8v14.05a21.825,21.825,0,0,0,21.8,21.8h19.93a6.75,6.75,0,1,1,0,13.5H96.64a35.34,35.34,0,0,1-35.3-35.3v-14.05a35.34,35.34,0,0,1,35.3-35.3H448.03a35.34,35.34,0,0,1,35.3,35.3v14.05A35.34,35.34,0,0,1,448.03,368.877Z"/><g><path d="M174.822,464.2a72.2,72.2,0,1,1,72.2-72.2A72.279,72.279,0,0,1,174.822,464.2Zm0-130.894a58.7,58.7,0,1,0,58.7,58.7A58.763,58.763,0,0,0,174.822,333.3Z"/><path d="M174.822,464.2a6.75,6.75,0,0,1-6.75-6.75V326.554a6.75,6.75,0,0,1,13.5,0V457.447A6.75,6.75,0,0,1,174.822,464.2Z"/><path d="M240.269,398.75H109.375a6.75,6.75,0,1,1,0-13.5H240.269a6.75,6.75,0,0,1,0,13.5Z"/><path d="M221.1,445.028a6.731,6.731,0,0,1-4.773-1.977L123.771,350.5a6.75,6.75,0,1,1,9.546-9.547L225.873,433.5a6.75,6.75,0,0,1-4.773,11.523Z"/><path d="M128.543,445.028a6.75,6.75,0,0,1-4.773-11.523l92.556-92.556a6.75,6.75,0,0,1,9.546,9.547l-92.556,92.556A6.731,6.731,0,0,1,128.543,445.028Z"/></g><g><path d="M359.9,464.2a72.2,72.2,0,1,1,72.2-72.2A72.278,72.278,0,0,1,359.9,464.2Zm0-130.894a58.7,58.7,0,1,0,58.7,58.7A58.763,58.763,0,0,0,359.9,333.3Z"/><path d="M359.9,464.2a6.75,6.75,0,0,1-6.75-6.75V326.554a6.75,6.75,0,0,1,13.5,0V457.447A6.75,6.75,0,0,1,359.9,464.2Z"/><path d="M425.343,398.75H294.449a6.75,6.75,0,1,1,0-13.5H425.343a6.75,6.75,0,0,1,0,13.5Z"/><path d="M406.174,445.028a6.733,6.733,0,0,1-4.773-1.977L308.845,350.5a6.751,6.751,0,0,1,9.547-9.547L410.947,433.5a6.75,6.75,0,0,1-4.773,11.523Z"/><path d="M313.618,445.028a6.75,6.75,0,0,1-4.773-11.523L401.4,340.949a6.751,6.751,0,0,1,9.547,9.547l-92.556,92.556A6.733,6.733,0,0,1,313.618,445.028Z"/></g><path d="M208.643,242.016a6.75,6.75,0,0,1-6.75-6.75V132.9a6.75,6.75,0,0,1,13.5,0V235.266A6.75,6.75,0,0,1,208.643,242.016Z"/><path d="M327.956,248.6a6.75,6.75,0,0,1-6.75-6.75V139.437a6.75,6.75,0,0,1,13.5,0V241.854A6.75,6.75,0,0,1,327.956,248.6Z"/><path d="M327.956,297.728a6.75,6.75,0,0,1-6.75-6.75V268.2a6.75,6.75,0,0,1,13.5,0v22.775A6.75,6.75,0,0,1,327.956,297.728Z"/><path d="M500,297.728H448.03a6.75,6.75,0,0,1,0-13.5H500a6.75,6.75,0,0,1,0,13.5Z"/></g><text x="0" y="581.93" fill="#000000" font-size="5px" font-weight="bold" font-family="'Helvetica Neue', Helvetica, Arial-Unicode, Arial, Sans-serif"></text><text x="0" y="586.93" fill="#000000" font-size="5px" font-weight="bold" font-family="'Helvetica Neue', Helvetica, Arial-Unicode, Arial, Sans-serif"></text></svg>