<svg xmlns:x="http://ns.adobe.com/Extensibility/1.0/" xmlns:i="http://ns.adobe.com/AdobeIllustrator/10.0/" xmlns:graph="http://ns.adobe.com/Graphs/1.0/" xmlns="http://www.w3.org/2000/svg" xmlns:xlink="http://www.w3.org/1999/xlink" xmlns:a="http://ns.adobe.com/AdobeSVGViewerExtensions/3.0/" version="1.1" x="0px" y="0px" viewBox="0 0 100 125" enable-background="new 0 0 100 100" xml:space="preserve"><metadata><?xpacket begin="&#65279;" id="W5M0MpCehiHzreSzNTczkc9d"?><x:xmpmeta xmlns:x="adobe:ns:meta/" x:xmptk="Adobe XMP Core 5.5-c014 79.151739, 2013/04/03-12:12:15        "/><?xpacket end="w"?></metadata><path d="M30,88.5c9.0037842,0,16.5159302-6.4682007,18.1577148-15H50h1.8422852C53.4840698,82.0317993,60.9962158,88.5,70,88.5  c10.2011719,0,18.5-8.2988281,18.5-18.5c0-2.7297363-0.6096802-5.3145752-1.6755981-7.649353l-8.3483276-37.5674438  c-0.0717773-0.3227539-0.2978516-0.5888672-0.6044922-0.7119141c-0.1252441-0.0499878-0.9355469-0.3657837-2.2598267-0.7478638  l-2.1415405-8.5661011c-0.0458984-0.184082-0.1435547-0.3515625-0.28125-0.4819336C73.0698242,14.1616211,70.1806641,11.5,62.5,11.5  c-7.9179688,0-8.46875,2.8720703-8.5,3.5v8.3982544c-0.6225586,0.2036743-1.246521,0.4230347-1.871582,0.6730347  C51.7490234,24.2236328,51.5,24.5913086,51.5,25v9H50h-1.5v-9c0-0.4086914-0.2490234-0.7763672-0.628418-0.9287109  c-0.6252441-0.25-1.2493286-0.4692993-1.8720703-0.6729126l-0.0009766-8.4506226C45.96875,14.3720703,45.4179688,11.5,37.5,11.5  c-7.6806641,0-10.5698242,2.6616211-10.6889648,2.7753906c-0.1376953,0.1303711-0.2353516,0.2978516-0.28125,0.4819336  l-2.1416016,8.5664063c-1.3242188,0.381897-2.1345215,0.6975708-2.2597656,0.7475586  c-0.3066406,0.1230469-0.5327148,0.3891602-0.6044922,0.7119141l-8.3483887,37.567627  C12.1096802,64.6855469,11.5,67.2703247,11.5,70C11.5,80.2011719,19.7988281,88.5,30,88.5z M56,15.1186523  C56.1123047,14.8994141,57.050293,13.5,62.5,13.5c5.7172852,0,8.4018555,1.5717773,9.1123047,2.0732422l1.7966919,7.1864624  C69.3173828,21.8370361,62.8746338,21.057312,56,22.8145752V15.1186523z M53.5,50V35v-9.3144531  c0.1668701-0.0621338,0.3331909-0.1072998,0.5-0.1658325c0.3336182-0.1171265,0.6669312-0.2284546,1-0.3317261  c0.3341675-0.1036377,0.6668701-0.199585,1-0.289978c7.2216797-1.9591675,14.1098633-0.8881836,17.9622803,0.074646  c0.1403198,0.0350952,0.2855835,0.0703125,0.4177246,0.1048584c0.5828857,0.1526489,1.0740356,0.2955933,1.4827271,0.4227295  c0.3078613,0.0957642,0.5826416,0.1845093,0.7803345,0.2526855l7.0870972,31.8917847C80.3414917,53.8828125,75.4499512,51.5,70,51.5  c-7.2062988,0-13.4472656,4.1505127-16.5,10.1782837V50z M70,53.5c6.5941772,0,12.2808838,3.897522,14.9205933,9.501709  C85.9229736,65.1298218,86.5,67.4960327,86.5,70c0,0.0299683-0.0043335,0.0588989-0.0045166,0.0888672  C86.4468994,79.145874,79.0681763,86.5,70,86.5c-9.0981445,0-16.5-7.4018555-16.5-16.5S60.9018555,53.5,70,53.5z M48.5,36H50h1.5v13  H50h-1.5V36z M48.5,70V51H50h1.5v19c0,0.5063477,0.0358887,1.0038452,0.0759888,1.5H50h-1.5759888  C48.4641113,71.0038452,48.5,70.5063477,48.5,70z M28.387207,15.574707C29.1098633,15.0649414,31.7954102,13.5,37.5,13.5  c5.449707,0,6.3876953,1.3994141,6.5,1.6186523v7.6964111c-6.8747559-1.7565918-13.3175049-0.9771729-17.4091797-0.0548706  L28.387207,15.574707z M23.3569336,25.7529297c0.1976929-0.0682373,0.4724731-0.1569824,0.7803345-0.2528076  c0.4084473-0.1270752,0.899292-0.2700806,1.4818115-0.4227295c0.1324463-0.034668,0.2780762-0.0700073,0.4187622-0.1051636  C29.8903809,24.0090942,36.7789307,22.9381714,44,24.8977661c0.3331299,0.0903931,0.6657715,0.1863403,1,0.2900391  c0.3329468,0.1032715,0.6661987,0.2147217,0.9997559,0.3317871C46.166626,25.578186,46.3330688,25.6234131,46.5,25.6855469V35v15  v11.6782227C43.4472656,55.6504517,37.2062988,51.5,30,51.5c-5.4499512,0-10.3414917,2.3828125-13.7301636,6.1447144  L23.3569336,25.7529297z M13.5,70c0-2.5039673,0.5770264-4.8701782,1.5794067-6.998291  C17.7191162,57.397522,23.4058228,53.5,30,53.5c9.0981445,0,16.5,7.4018555,16.5,16.5S39.0981445,86.5,30,86.5  c-9.0681763,0-16.4468994-7.354126-16.4954834-16.4111328C13.5043335,70.0588989,13.5,70.0299683,13.5,70z"/><path d="M18.6783447,68.9466553c0.501709-5.4320679,4.8361816-9.7665405,10.2682495-10.2683105  C29.2939453,58.6462402,29.6444092,58.625,30,58.625c0.5522461,0,1-0.4477539,1-1s-0.4477539-1-1-1c-7.375,0-13.375,6-13.375,13.375  c0,0.5522461,0.4477539,1,1,1s1-0.4477539,1-1C18.625,69.6444092,18.6462402,69.2940063,18.6783447,68.9466553z"/><path d="M58.75,70c0-0.3555908,0.0212402-0.7060547,0.0533447-1.0534058  c0.50177-5.4320679,4.8361816-9.7664795,10.2682495-10.2682495C69.4189453,58.6462402,69.7694092,58.625,70.125,58.625  c0.5522461,0,1-0.4477539,1-1s-0.4477539-1-1-1c-7.375,0-13.375,6-13.375,13.375c0,0.5522461,0.4477539,1,1,1  S58.75,70.5522461,58.75,70z"/><text x="0" y="115" fill="#000000" font-size="5px" font-weight="bold" font-family="'Helvetica Neue', Helvetica, Arial-Unicode, Arial, Sans-serif"></text><text x="0" y="120" fill="#000000" font-size="5px" font-weight="bold" font-family="'Helvetica Neue', Helvetica, Arial-Unicode, Arial, Sans-serif"></text></svg>