<?xml version="1.0" encoding="UTF-8"?>
<svg width="700pt" height="700pt" version="1.1" viewBox="0 0 700 700" xmlns="http://www.w3.org/2000/svg" xmlns:xlink="http://www.w3.org/1999/xlink">
 <defs>
  <symbol id="v" overflow="visible">
   <path d="m5.5156-0.32812c-0.28125 0.14844-0.57812 0.25781-0.89062 0.32812-0.30469 0.070312-0.625 0.10938-0.96875 0.10938-1 0-1.793-0.27344-2.375-0.82812-0.58594-0.5625-0.875-1.3203-0.875-2.2812 0-0.95703 0.28906-1.7109 0.875-2.2656 0.58203-0.5625 1.375-0.84375 2.375-0.84375 0.34375 0 0.66406 0.039063 0.96875 0.10938 0.3125 0.074219 0.60938 0.18359 0.89062 0.32812v1.25c-0.28125-0.19531-0.5625-0.33594-0.84375-0.42188-0.28125-0.09375-0.57812-0.14062-0.89062-0.14062-0.55469 0-0.98438 0.17969-1.2969 0.53125-0.3125 0.35547-0.46875 0.83984-0.46875 1.4531 0 0.625 0.15625 1.1172 0.46875 1.4688 0.3125 0.35547 0.74219 0.53125 1.2969 0.53125 0.3125 0 0.60938-0.046875 0.89062-0.14062s0.5625-0.23828 0.84375-0.4375z"/>
  </symbol>
  <symbol id="d" overflow="visible">
   <path d="m4.0312-3.2812c-0.125-0.050781-0.25-0.09375-0.375-0.125s-0.25-0.046875-0.375-0.046875c-0.36719 0-0.65234 0.12109-0.85938 0.35938-0.19922 0.24219-0.29688 0.57812-0.29688 1.0156v2.0781h-1.4375v-4.5h1.4375v0.73438c0.1875-0.28906 0.39844-0.50391 0.64062-0.64062 0.23828-0.13281 0.52344-0.20312 0.85938-0.20312 0.050781 0 0.10156 0.007813 0.15625 0.015625 0.0625 0 0.14453 0.007812 0.25 0.015625z"/>
  </symbol>
  <symbol id="a" overflow="visible">
   <path d="m5.1875-2.2656v0.40625h-3.3594c0.03125 0.34375 0.14844 0.60156 0.35938 0.76562 0.20703 0.16797 0.5 0.25 0.875 0.25 0.30078 0 0.60938-0.039062 0.92188-0.125 0.32031-0.09375 0.64844-0.23438 0.98438-0.42188v1.125c-0.33594 0.125-0.67188 0.21875-1.0156 0.28125s-0.68359 0.09375-1.0156 0.09375c-0.82422 0-1.4609-0.20312-1.9062-0.60938-0.44922-0.41406-0.67188-1-0.67188-1.75 0-0.72656 0.21875-1.3008 0.65625-1.7188 0.44531-0.42578 1.0547-0.64062 1.8281-0.64062 0.70703 0 1.2734 0.21484 1.7031 0.64062 0.42578 0.42969 0.64062 0.99609 0.64062 1.7031zm-1.4844-0.46875c0-0.28125-0.078125-0.50391-0.23438-0.67188-0.15625-0.16406-0.36719-0.25-0.625-0.25-0.28125 0-0.51172 0.078125-0.6875 0.23438-0.16797 0.15625-0.27344 0.38672-0.3125 0.6875z"/>
  </symbol>
  <symbol id="e" overflow="visible">
   <path d="m2.7031-2.0312c-0.29297 0-0.51562 0.054688-0.67188 0.15625-0.14844 0.10547-0.21875 0.25781-0.21875 0.45312 0 0.17969 0.054688 0.32031 0.17188 0.42188 0.125 0.10547 0.29688 0.15625 0.51562 0.15625 0.26953 0 0.49219-0.09375 0.67188-0.28125 0.1875-0.19531 0.28125-0.44141 0.28125-0.73438v-0.17188zm2.2031-0.53125v2.5625h-1.4531v-0.67188c-0.1875 0.28125-0.40625 0.48438-0.65625 0.60938-0.24219 0.11328-0.53125 0.17188-0.875 0.17188-0.46875 0-0.85156-0.13281-1.1406-0.40625-0.28125-0.26953-0.42188-0.61719-0.42188-1.0469 0-0.53125 0.17578-0.92188 0.53125-1.1719 0.36328-0.25 0.9375-0.375 1.7188-0.375h0.84375v-0.10938c0-0.22656-0.089844-0.39453-0.26562-0.5-0.17969-0.10156-0.46094-0.15625-0.84375-0.15625-0.30469 0-0.58984 0.03125-0.85938 0.09375-0.26172 0.0625-0.50781 0.15625-0.73438 0.28125v-1.0938c0.30078-0.082031 0.60938-0.14062 0.92188-0.17188 0.3125-0.039063 0.625-0.0625 0.9375-0.0625 0.8125 0 1.3945 0.16406 1.75 0.48438 0.36328 0.3125 0.54688 0.83594 0.54688 1.5625z"/>
  </symbol>
  <symbol id="c" overflow="visible">
   <path d="m2.2656-5.7812v1.2812h1.4844v1.0312h-1.4844v1.9062c0 0.21094 0.039063 0.35156 0.125 0.42188 0.082031 0.074219 0.25 0.10938 0.5 0.10938h0.73438v1.0312h-1.2344c-0.57422 0-0.98047-0.11719-1.2188-0.35938-0.23047-0.23828-0.34375-0.64062-0.34375-1.2031v-1.9062h-0.71875v-1.0312h0.71875v-1.2812z"/>
  </symbol>
  <symbol id="k" overflow="visible">
   <path d="m3.75-3.8438v-2.4062h1.4531v6.25h-1.4531v-0.65625c-0.19922 0.27344-0.41797 0.46875-0.65625 0.59375-0.24219 0.11328-0.51562 0.17188-0.82812 0.17188-0.55469 0-1.0078-0.21875-1.3594-0.65625-0.35547-0.4375-0.53125-1.0039-0.53125-1.7031 0-0.6875 0.17578-1.25 0.53125-1.6875 0.35156-0.44531 0.80469-0.67188 1.3594-0.67188 0.3125 0 0.58594 0.0625 0.82812 0.1875 0.23828 0.125 0.45703 0.32031 0.65625 0.57812zm-0.9375 2.9219c0.30078 0 0.53125-0.11328 0.6875-0.34375 0.16406-0.22656 0.25-0.55469 0.25-0.98438 0-0.42578-0.085938-0.75-0.25-0.96875-0.15625-0.22656-0.38672-0.34375-0.6875-0.34375-0.3125 0-0.55469 0.11719-0.71875 0.34375-0.15625 0.21875-0.23438 0.54297-0.23438 0.96875 0 0.42969 0.078125 0.75781 0.23438 0.98438 0.16406 0.23047 0.40625 0.34375 0.71875 0.34375z"/>
  </symbol>
  <symbol id="j" overflow="visible">
   <path d="m3.0938-0.92188c0.30078 0 0.53125-0.11328 0.6875-0.34375 0.16406-0.22656 0.25-0.55469 0.25-0.98438 0-0.42578-0.085938-0.75-0.25-0.96875-0.15625-0.22656-0.38672-0.34375-0.6875-0.34375-0.3125 0-0.55469 0.11719-0.71875 0.34375-0.16797 0.21875-0.25 0.54297-0.25 0.96875 0 0.42969 0.082031 0.75781 0.25 0.98438 0.16406 0.23047 0.40625 0.34375 0.71875 0.34375zm-0.96875-2.9219c0.19531-0.25781 0.41406-0.45312 0.65625-0.57812 0.25-0.125 0.53125-0.1875 0.84375-0.1875 0.55078 0 1.0039 0.22656 1.3594 0.67188 0.36328 0.4375 0.54688 1 0.54688 1.6875 0 0.69922-0.18359 1.2656-0.54688 1.7031-0.35547 0.4375-0.80859 0.65625-1.3594 0.65625-0.3125 0-0.59375-0.058594-0.84375-0.17188-0.24219-0.125-0.46094-0.32031-0.65625-0.59375v0.65625h-1.4375v-6.25h1.4375z"/>
  </symbol>
  <symbol id="i" overflow="visible">
   <path d="m0.09375-4.5h1.4531l1.2031 3.0469 1.0312-3.0469h1.4375l-1.8906 4.9219c-0.1875 0.5-0.41406 0.84766-0.67188 1.0469-0.25 0.20703-0.58594 0.3125-1 0.3125h-0.82812v-0.95312h0.45312c0.23828 0 0.41016-0.042969 0.51562-0.125 0.11328-0.074219 0.20312-0.21094 0.26562-0.40625l0.046875-0.125z"/>
  </symbol>
  <symbol id="h" overflow="visible">
   <path d="m0.75-6h1.9688l1.375 3.2031 1.375-3.2031h1.9688v6h-1.4688v-4.3906l-1.375 3.2344h-0.98438l-1.3906-3.2344v4.3906h-1.4688z"/>
  </symbol>
  <symbol id="u" overflow="visible">
   <path d="m1.8281-2.2969-1.625-2.2031h1.5312l0.92188 1.3281 0.92188-1.3281h1.5312l-1.625 2.1875 1.7031 2.3125h-1.5312l-1-1.4219-1 1.4219h-1.5312z"/>
  </symbol>
  <symbol id="t" overflow="visible">
   <path d="m0.6875-4.5h1.4375v4.5h-1.4375zm0-1.75h1.4375v1.1719h-1.4375z"/>
  </symbol>
  <symbol id="g" overflow="visible">
   <path d="m4.3281-4.3594v1.1719c-0.19922-0.13281-0.39844-0.23438-0.59375-0.29688-0.1875-0.0625-0.39062-0.09375-0.60938-0.09375-0.39844 0-0.71094 0.12109-0.9375 0.35938-0.21875 0.23047-0.32812 0.55469-0.32812 0.96875 0 0.42969 0.10938 0.76172 0.32812 1 0.22656 0.23047 0.53906 0.34375 0.9375 0.34375 0.22656 0 0.44141-0.03125 0.64062-0.09375 0.20703-0.070312 0.39453-0.17578 0.5625-0.3125v1.1875c-0.21875 0.074219-0.44922 0.12891-0.6875 0.17188-0.23047 0.039062-0.46094 0.0625-0.6875 0.0625-0.8125 0-1.4492-0.20703-1.9062-0.625-0.46094-0.41406-0.6875-0.99219-0.6875-1.7344 0-0.73828 0.22656-1.3164 0.6875-1.7344 0.45703-0.41406 1.0938-0.625 1.9062-0.625 0.22656 0 0.45703 0.023437 0.6875 0.0625 0.22656 0.042969 0.45703 0.10547 0.6875 0.1875z"/>
  </symbol>
  <symbol id="b" overflow="visible">
   <path d="m2.8281-3.5781c-0.3125 0-0.55469 0.11719-0.71875 0.34375-0.16797 0.23047-0.25 0.55859-0.25 0.98438 0 0.4375 0.082031 0.77344 0.25 1 0.16406 0.23047 0.40625 0.34375 0.71875 0.34375 0.32031 0 0.5625-0.11328 0.71875-0.34375 0.16406-0.22656 0.25-0.5625 0.25-1 0-0.42578-0.085937-0.75391-0.25-0.98438-0.15625-0.22656-0.39844-0.34375-0.71875-0.34375zm0-1.0312c0.78125 0 1.3828 0.21094 1.8125 0.625 0.4375 0.41797 0.65625 0.99609 0.65625 1.7344 0 0.74219-0.21875 1.3203-0.65625 1.7344-0.42969 0.41797-1.0312 0.625-1.8125 0.625-0.77344 0-1.375-0.20703-1.8125-0.625-0.4375-0.41406-0.65625-0.99219-0.65625-1.7344 0-0.73828 0.21875-1.3164 0.65625-1.7344 0.4375-0.41406 1.0391-0.625 1.8125-0.625z"/>
  </symbol>
  <symbol id="f" overflow="visible">
   <path d="m5.2188-2.7344v2.7344h-1.4531v-2.0938c0-0.39453-0.011719-0.66406-0.03125-0.8125-0.011719-0.14453-0.039063-0.25391-0.078125-0.32812-0.054688-0.09375-0.13281-0.16406-0.23438-0.21875-0.09375-0.050781-0.20312-0.078125-0.32812-0.078125-0.30469 0-0.54297 0.12109-0.71875 0.35938-0.16797 0.23047-0.25 0.54688-0.25 0.95312v2.2188h-1.4375v-4.5h1.4375v0.65625c0.21875-0.25781 0.44531-0.45312 0.6875-0.57812 0.25-0.125 0.51953-0.1875 0.8125-0.1875 0.51953 0 0.91406 0.16406 1.1875 0.48438 0.26953 0.3125 0.40625 0.77734 0.40625 1.3906z"/>
  </symbol>
  <symbol id="s" overflow="visible">
   <path d="m4.2031-4.3594v1.0938c-0.30469-0.13281-0.60156-0.23438-0.89062-0.29688-0.28125-0.0625-0.55469-0.09375-0.8125-0.09375-0.27344 0-0.47656 0.039062-0.60938 0.10938-0.125 0.0625-0.1875 0.16797-0.1875 0.3125 0 0.11719 0.046875 0.20312 0.14062 0.26562 0.10156 0.0625 0.28516 0.10938 0.54688 0.14062l0.25 0.03125c0.73828 0.09375 1.2344 0.25 1.4844 0.46875 0.25781 0.21094 0.39062 0.54297 0.39062 1 0 0.48047-0.17969 0.83984-0.53125 1.0781-0.35547 0.24219-0.88672 0.35938-1.5938 0.35938-0.29297 0-0.60156-0.027344-0.92188-0.078125-0.3125-0.039062-0.63672-0.10938-0.96875-0.20312v-1.0938c0.28125 0.14844 0.57031 0.25781 0.875 0.32812 0.30078 0.0625 0.60938 0.09375 0.92188 0.09375 0.28125 0 0.48828-0.035156 0.625-0.10938 0.14453-0.082031 0.21875-0.19531 0.21875-0.34375 0-0.13281-0.054687-0.23438-0.15625-0.29688-0.09375-0.0625-0.28906-0.10938-0.57812-0.14062l-0.25-0.03125c-0.63672-0.082031-1.0859-0.23438-1.3438-0.45312-0.26172-0.21875-0.39062-0.54688-0.39062-0.98438 0-0.47656 0.16016-0.83203 0.48438-1.0625 0.33203-0.22656 0.83594-0.34375 1.5156-0.34375 0.25781 0 0.53516 0.023437 0.82812 0.0625 0.28906 0.042969 0.60938 0.10547 0.95312 0.1875z"/>
  </symbol>
  <symbol id="r" overflow="visible">
   <path d="m3.6562-6.25v0.9375h-0.79688c-0.21094 0-0.35547 0.039062-0.4375 0.10938-0.074219 0.074219-0.10938 0.20312-0.10938 0.39062v0.3125h1.2344v1.0312h-1.2344v3.4688h-1.4375v-3.4688h-0.71875v-1.0312h0.71875v-0.3125c0-0.48828 0.13281-0.84766 0.40625-1.0781 0.26953-0.23828 0.69141-0.35938 1.2656-0.35938z"/>
  </symbol>
  <symbol id="q" overflow="visible">
   <path d="m4.8594-3.75c0.1875-0.28125 0.40625-0.49219 0.65625-0.64062 0.25-0.14453 0.52344-0.21875 0.82812-0.21875 0.50781 0 0.89844 0.16406 1.1719 0.48438 0.26953 0.3125 0.40625 0.77734 0.40625 1.3906v2.7344h-1.4375v-2.3438-0.10938-0.17188c0-0.3125-0.046875-0.53906-0.14062-0.6875-0.09375-0.14453-0.24609-0.21875-0.45312-0.21875-0.27344 0-0.48438 0.11719-0.64062 0.34375-0.14844 0.23047-0.21875 0.55469-0.21875 0.96875v2.2188h-1.4531v-2.3438c0-0.5-0.042969-0.82031-0.125-0.96875-0.085937-0.14453-0.23438-0.21875-0.45312-0.21875-0.28125 0-0.5 0.11719-0.65625 0.34375-0.14844 0.23047-0.21875 0.55469-0.21875 0.96875v2.2188h-1.4375v-4.5h1.4375v0.65625c0.17578-0.25 0.37891-0.4375 0.60938-0.5625 0.22656-0.13281 0.48438-0.20312 0.76562-0.20312 0.3125 0 0.58594 0.078125 0.82812 0.23438 0.23828 0.14844 0.41406 0.35547 0.53125 0.625z"/>
  </symbol>
  <symbol id="p" overflow="visible">
   <path d="m5.2188-2.7344v2.7344h-1.4531v-2.0938c0-0.39453-0.011719-0.66406-0.03125-0.8125-0.011719-0.14453-0.039063-0.25391-0.078125-0.32812-0.054688-0.09375-0.13281-0.16406-0.23438-0.21875-0.09375-0.050781-0.20312-0.078125-0.32812-0.078125-0.30469 0-0.54297 0.12109-0.71875 0.35938-0.16797 0.23047-0.25 0.54688-0.25 0.95312v2.2188h-1.4375v-6.25h1.4375v2.4062c0.21875-0.25781 0.44531-0.45312 0.6875-0.57812 0.25-0.125 0.51953-0.1875 0.8125-0.1875 0.51953 0 0.91406 0.16406 1.1875 0.48438 0.26953 0.3125 0.40625 0.77734 0.40625 1.3906z"/>
  </symbol>
  <symbol id="o" overflow="visible">
   <path d="m0.75-6h1.7344l2.1875 4.1094v-4.1094h1.4688v6h-1.7344l-2.1875-4.125v4.125h-1.4688z"/>
  </symbol>
  <symbol id="n" overflow="visible">
   <path d="m0.64062-1.75v-2.75h1.4531v0.45312c0 0.24219-0.007812 0.54688-0.015625 0.92188v0.73438c0 0.35547 0.007813 0.61719 0.03125 0.78125 0.019531 0.15625 0.050781 0.27344 0.09375 0.34375 0.0625 0.09375 0.14062 0.16797 0.23438 0.21875 0.09375 0.054687 0.20312 0.078125 0.32812 0.078125 0.30078 0 0.53516-0.11328 0.70312-0.34375 0.17578-0.23828 0.26562-0.5625 0.26562-0.96875v-2.2188h1.4375v4.5h-1.4375v-0.65625c-0.21875 0.27344-0.45312 0.46875-0.70312 0.59375-0.24219 0.11328-0.50781 0.17188-0.79688 0.17188-0.52344 0-0.91797-0.15625-1.1875-0.46875-0.27344-0.32031-0.40625-0.78516-0.40625-1.3906z"/>
  </symbol>
  <symbol id="m" overflow="visible">
   <path d="m0.75-6h2.5781c0.75781 0 1.3438 0.17188 1.75 0.51562 0.41406 0.33594 0.625 0.8125 0.625 1.4375 0 0.63672-0.21094 1.125-0.625 1.4688-0.40625 0.33594-0.99219 0.5-1.75 0.5h-1.0312v2.0781h-1.5469zm1.5469 1.125v1.6719h0.85938c0.30078 0 0.53125-0.070313 0.6875-0.21875 0.16406-0.14453 0.25-0.35156 0.25-0.625 0-0.26953-0.085938-0.47266-0.25-0.60938-0.15625-0.14453-0.38672-0.21875-0.6875-0.21875z"/>
  </symbol>
  <symbol id="l" overflow="visible">
   <path d="m0.6875-4.5h1.4375v4.4219c0 0.60156-0.14844 1.0625-0.4375 1.375-0.28125 0.32031-0.69922 0.48438-1.25 0.48438h-0.70312v-0.95312h0.23438c0.28125 0 0.46875-0.0625 0.5625-0.1875 0.10156-0.11719 0.15625-0.35547 0.15625-0.71875zm0-1.75h1.4375v1.1719h-1.4375z"/>
  </symbol>
 </defs>
 <g>
  <path d="m177.34 531.38c9.9258 3.9961 21.016 3.9961 30.941 0 9.7305-3.9453 18.949-9.0586 27.445-15.227 15.043 9.1172 31.73 15.195 49.113 17.891 2.0625 2.082 4.6992 3.5 7.5742 4.0703 5.4336 1.0117 10.949 1.5 16.473 1.457 7.6211 0.027344 15.227-0.76562 22.684-2.3633 3.0977-0.70703 5.8789-2.4102 7.9219-4.8477 15.457-3.8516 29.531-11.949 40.637-23.375 2.7812-2.9492 4.5664-6.6992 5.0977-10.723 0.53125-4.0195-0.22266-8.1055-2.1445-11.676l-3.2305-6.043c-2.8125-5.2578-8.6406-8.1641-14.535-7.2461-1.1328-11.125-1.5898-22.305-1.375-33.484 0.80859-0.83203 1.5898-1.6484 2.3125-2.4297 4.4648-4.7734 7.1484-10.938 7.6094-17.457 0.24219-3.6914 0.56641-7.4688 0.93359-11.246 3.7578 6.4023 8.0312 12.492 12.77 18.207-2.0312 6.9492-3.4492 14.066-4.2422 21.266-0.46875 4.0781 0.34375 8.2031 2.3203 11.805 1.9766 3.5977 5.0234 6.4961 8.7148 8.2891 16.609 7.9766 51.434 21.219 100.01 21.602 0.52344 1.4805 1.6094 2.6953 3.0195 3.3828l-3.2734 19.34c-1.2148 7.2031 3.4375 14.094 10.574 15.66l9.7461 2.1406c0.97656 0.21484 1.9727 0.32812 2.9727 0.32812 6.5469-0.023437 12.168-4.668 13.422-11.094l3.9844-20.48c6.1094-2.0664 10.699-7.1758 12.098-13.473l6.3828-28.93 21.133 3.625c1.4922 0.25391 3.0234-0.097656 4.25-0.98047 1.2305-0.88672 2.0508-2.2227 2.2852-3.7188l2.4062-15.547c0.5-3.293-0.011719-6.6641-1.4688-9.6641-1.457-3-3.793-5.4844-6.6953-7.125l-16.812-9.4531c9.7383-40.023 38.676-162.7 51.113-256.23 0.40234-2.7109 9.7695-66.977-1.0352-114.66v0.003906c-0.43359-1.9141-1.8281-3.4648-3.6836-4.0938-1.8516-0.63281-3.9023-0.25781-5.4141 0.98828-1.2969 1.0703-31.941 27.129-47.602 103.03-0.94141 3.9766-29.918 127.52-40.035 261.06l-19.363 2c-3.4102 0.35156-6.625 1.7656-9.1875 4.0391-2.5664 2.2773-4.3516 5.3008-5.1055 8.6445l-1.4141 6.2344c-6.6523-3.1875-14.066-7.6914-14.066-7.6914-22.504-15.59-52.512-21.906-42.672-125.57v0.003906c5.6055-1.6914 11.387-2.7344 17.23-3.1055 5.0352-0.24609 9.8359-2.1992 13.609-5.543 3.7734-3.3438 6.293-7.875 7.1406-12.844 6.0586-36.211-5.4766-60.293-31.648-66.07-0.92578-0.20312-1.8555-0.38281-2.7852-0.53906 0.375-4.8359-0.0625-9.7031-1.2891-14.395-3.4141-10.684-9.0977-20.504-16.664-28.785-8.3789-8.9805-12.117-21.34-10.117-33.457 2.6133-15.121 3.3906-38.047-7.7773-61.434-0.68359-1.3945-17.09-34.23-47.801-42.922-16.051-4.5469-32.82-1.6406-49.891 8.6211l0.003906-0.003907c-13.359-1.7148-26.852 2.0039-37.449 10.324-19.375 15.203-29.332 44.656-29.598 87.535-0.042969 8.8906-4.0703 17.293-10.98 22.895-13.195 10.734-26.199 32.09-20.77 55.445-15.344 4.5469-36.895 16.531-42.535 48.137-0.82812 6.6602-0.17188 13.422 1.9258 19.797 0.94141 2.9727 4.1133 4.6172 7.082 3.6797 1.4297-0.45312 2.6172-1.4531 3.3086-2.7812 0.6875-1.3281 0.82031-2.875 0.37109-4.3008-1.5312-4.6484-2.0664-9.5664-1.5703-14.434 4.4922-25.172 20.848-35.395 35.184-39.445 1.875 3.8789 4.1562 7.5508 6.8008 10.957 5.4141 7.0352 17.469 16.801 32.41 16.801 1.7266-0.007813 3.4492-0.14453 5.1523-0.40625 1.6172 10.281 0.3125 20.812-3.7578 30.391l-0.019531 0.042969 0.003906-0.003906c-1.2969 2.9023-2.8828 5.6641-4.7305 8.25-0.94922 1.3203-2.0742 2.5078-3.3438 3.5234-5.832-3.3984-12.09-6.7891-18.828-10.137-9.9492-4.9102-21.617-4.9102-31.566 0-50.383 25.031-74.75 52.594-84.797 66.789-3.6914 5.2305-5.7227 11.449-5.832 17.848-2.3906 118.99 62.801 158.06 90.941 169.34zm133.8-380.41c0.75781 1.2891 1.9961 2.2305 3.4453 2.6055 1.4492 0.37891 2.9883 0.16406 4.2812-0.59766 2.5469-1.4375 5.2461-2.5898 8.0469-3.4258 5.668 3.6445 10.824 8.0312 15.336 13.035-4.9727 24.211-21.664 37.738-31.32 43.68h-0.003906c-2.8906 1.7461-6.4805 1.8594-9.4727 0.29688-9.5625-5.1289-17.918-12.238-24.508-20.855-1.1133-9.0039-4.0508-20.004-8.3867-34.422-3.6094-12.008-2.4141-44.277 19.043-61.129 2.5508 11.336 9.7188 31.426 29.742 50.953v-0.003906c-1.4375 0.63672-2.8359 1.3516-4.1953 2.1406-2.6836 1.5781-3.5859 5.0352-2.0078 7.7227zm-19.387 78.473c18.508-3.6406 29.301-8.2344 34.527-10.961v16.496c0.042969 4.6055-1.7539 9.043-4.9961 12.316-3.2422 3.2734-7.6602 5.1172-12.27 5.1172-4.6055 0-9.0234-1.8438-12.266-5.1172-3.2422-3.2734-5.043-7.7109-4.9961-12.316zm-36.852 54.75c9.7695-19.973 8.125-46.281 8.125-46.281l17.438-5.4023v2.4688c-0.054687 7.6094 2.9258 14.93 8.2852 20.328 5.3633 5.4023 12.656 8.4414 20.266 8.4414 7.6133 0 14.906-3.0391 20.266-8.4414 5.3633-5.3984 8.3438-12.719 8.2891-20.328v-4.0352c9.1328 1.3984 17.797 2.9766 26.234 4.7773 0 0-9.2578 24.363-0.75 47.414-11.402 12.938-23.023 24.059-31.625 30.133-6.6836 5.0352-15.344 6.6367-23.387 4.3281-19.652-4.7539-40.949-22.148-53.141-33.402zm74.133 242.02c-11.328 2.4219-23.012 2.707-34.445 0.83594-1.4531-0.26562-2.5547-1.4648-2.7031-2.9375-0.45703-5.5859-0.42969-11.199 0.078125-16.777 0.19141-1.7422 1.6719-3.0547 3.4219-3.0391h0.042969c10.246 0.046875 20.484-0.47656 30.672-1.5625 1.8164-0.19922 3.4609 1.0703 3.7305 2.875 0.88281 5.6875 1.4805 11.414 1.7852 17.16 0.097656 1.625-0.99609 3.082-2.582 3.4453zm-4.2148-34.695c-9.7148 1.0352-19.477 1.5312-29.246 1.4922h-0.1875c-2.8945 0.003906-5.7227 0.86328-8.1328 2.4688-4.1719-1.1484-8.2656-2.5664-12.25-4.25 5.1133-9.8672 9.3125-20.18 12.547-30.812 6.8477 3.6094 12.641 6.2227 16.746 7.9219v0.003906c8.0586 3.3633 17.219 2.8438 24.844-1.4141 8.3633-4.7031 16.234-10.23 23.5-16.5 0.14844 9.7891 0.83203 19.562 2.0469 29.273-6.0078 5.6992-12.871 10.426-20.336 14-2.832-1.8008-6.1953-2.5742-9.5312-2.1836zm37.766-72.328c-0.28516 3.9297-1.9141 7.6367-4.6133 10.508-9.9961 10.797-21.566 20.027-34.316 27.375-0.21875 0.12109-0.44531 0.21094-0.66016 0.32031h0.003906c0.042969-6.8672 0.71484-13.715 2.0078-20.457 0.52344-3.0391-1.4844-5.9297-4.5117-6.5039-3.0234-0.57422-5.9531 1.3828-6.5781 4.3984-1.5195 7.918-2.2578 15.961-2.2031 24.023-1.0586-0.21484-2.0898-0.52734-3.0898-0.93359-6.1289-2.5703-12.125-5.4492-17.961-8.6289 2.8828-11.566 4.875-23.336 5.9648-35.207 5.582 2.9922 11.355 5.6172 17.281 7.8594 2.957 1.1094 6.0938 1.6797 9.2539 1.6836 5.1445 0.015625 10.168-1.5391 14.406-4.457 10.352-7.5312 19.652-16.41 27.66-26.402-1.0859 8.5156-2.0625 17.691-2.6445 26.422zm-29.559-10.672c5.8281-28.742 3.9609-50.125 1.1445-63.391-0.73828-2.9492-3.6758-4.7812-6.6484-4.1484-2.9688 0.62891-4.9102 3.5-4.3867 6.4922 2.7734 13.07 4.5234 34.801-2.4375 64.645-0.96875-0.15625-1.9141-0.40234-2.8359-0.73828-7.0977-2.6953-13.965-5.9727-20.527-9.793 1.5664-13.117 2.2031-26.324 1.8945-39.531 0-0.023437 0.29297-19.953-14.461-41.762h-0.003906c6.4922 3.6289 13.426 6.4141 20.625 8.2812 3.3711 0.83984 6.832 1.2734 10.309 1.293 8.0078-0.03125 15.801-2.6133 22.246-7.3672 8.6445-6.1016 19.582-16.355 30.637-28.574h-0.003906c1.4688 2.1875 3.1094 4.2578 4.9023 6.1875 3.9219 5.0664 9.7266 8.3359 16.098 9.0586 0.019531 1.6953 0.050781 3.4023 0.011718 5.0508-0.36328 15.52-4.9414 30.648-13.246 43.77-10.156 16.098-25.773 37.637-43.316 50.527zm46.598-14.719c-1.9219-3.9961-2.4258-8.5273-1.4219-12.848 0 0 6.6992-20.336 29.227-36.988 0.85547 13.418 2.9531 26.723 6.2578 39.754-9.3789 8.4961-16.762 18.969-21.609 30.656-4.7969-6.4453-8.9688-13.336-12.457-20.574zm140.13 123.66c-0.125 0.64062-0.50391 1.2031-1.0469 1.5586-0.54688 0.35938-1.2109 0.48047-1.8477 0.34375l-9.7422-2.1406h-0.003906c-1.2578-0.28125-2.0781-1.4961-1.8672-2.7656l2.9102-17.293 15.094 2.3047zm79.77-461.1m-36.746 89.074c0.011719-0.058593 0.027344-0.11328 0.039063-0.16406 10.227-49.648 27.188-76.832 36.707-88.902l-63.031 345.42c-0.65625-0.17578-1.3398-0.23438-2.0195-0.16797l-11.328 1.168c10.305-133.35 39.336-256.11 39.629-257.35zm-73.688 275.69c0.48438-2.1328 2.2734-3.7188 4.4492-3.9414l40.316-4.1641 35.824 20.137-0.003906 0.003906c1.8516 1.0469 2.8594 3.125 2.5391 5.2227l-1.5273 9.8828-16.832-2.8828c-0.82031-3.7695-2.7031-7.2305-5.418-9.9727-2.7188-2.7422-6.1641-4.6523-9.9297-5.5078-7.4766-1.6719-15.133-2.4297-22.793-2.2539-6.1562 0.13281-11.832 3.375-15.078 8.6094l-14.418-2.4688zm-65.266-206.04c25.383 5.6016 26.488 32.016 22.949 53.184-0.90625 5.0312-5.1836 8.7578-10.289 8.9648-12.578 0.89453-24.852 4.3125-36.082 10.047-4.1094 2.1133-9.1094 1.3555-12.414-1.875-14.668-15-14.504-36.793-14.504-36.996v-0.29688c-0.36719-11.434 5.3164-20.707 16.906-27.562l0.003906-0.003906c7.1445-4.2539 15.305-6.5117 23.625-6.5273 3.2969 0 6.582 0.35547 9.8047 1.0664zm-204.8-54.418c9.5352-7.7266 15.098-19.32 15.152-31.59 0.23828-38.57 8.9219-65.746 25.109-78.594 8.5625-6.8789 19.664-9.7617 30.496-7.9219 1.4766 0.35156 3.0352 0.09375 4.3203-0.71875 14.867-9.3867 29.199-12.238 42.598-8.4688 25.844 7.2734 40.652 36.754 40.77 36.992 9.8594 20.652 9.1484 41.086 6.8125 54.594-2.6055 15.547 2.1562 31.426 12.887 42.973 10.715 13.637-4.9805 19.434-4.9805 19.434-21.734 8.3594-31.656-14.875-31.656-14.875v0.023438c-3.7148-10.785-10.688-20.156-19.957-26.809-40.875-28.695-43.016-63.762-43.086-65.223 0-0.03125-0.003906-0.0625-0.011719-0.09375v-0.046875c-0.11719-3.8398 0.39844-7.6758 1.5352-11.348 0.88672-2.9453-0.75-6.0586-3.6758-7-2.9258-0.94141-6.0703 0.63281-7.0664 3.5391-1.2109 3.8555-1.9062 7.8555-2.0703 11.891-30.438 18.492-33.734 59.543-28.445 77.117 4.875 16.219 7.875 27.707 8.3359 36.367 0 0 1.2031 31.215-34.844 20.27-29.691-9.0156-28.738-27.258-23.367-37.605l-0.003906-0.003906c2.9844-4.8828 6.75-9.2422 11.148-12.902zm-117.58 190.06c9.4297-13.332 32.434-39.27 80.598-63.203h0.003906c6.7812-3.3438 14.738-3.3438 21.52 0 48.168 23.934 71.176 49.871 80.602 63.199v0.003907c0.74219 1.0625 1.3867 2.1914 1.918 3.375-3.9805 3.5156-8.3672 6.5391-13.07 9.0039-18.008-25.727-42.531-46.203-71.055-59.332-2.0117-0.89844-4.3438-0.71484-6.1953 0.48438-1.8477 1.2031-2.9609 3.2578-2.957 5.4648v13.293c-4.8594-0.003906-9.6445 1.1602-13.961 3.3906-31.953 16.539-46.531 34.547-51.719 42.305h0.003906c-10.223-2.6445-19.668-7.6836-27.555-14.703 0.52344-1.1484 1.1484-2.2461 1.8672-3.2812zm22.59 28.84h0.003906c-0.35547 12.465 0.69922 24.926 3.1367 37.156 0.58984 3.0156 3.418 5.0547 6.4648 4.668 1.5273-0.24609 2.8867-1.1016 3.7656-2.375 0.875-1.2773 1.1914-2.8516 0.87109-4.3672-2.0352-10.004-3.043-20.188-3.0078-30.395 0.007812-5.375 1.9023-10.574 5.3555-14.695 6.7109-8.082 19.98-20.996 43.41-33.125 5.5-2.8438 12.035-2.8438 17.535 0 24.152 12.508 37.512 25.844 44.012 33.855 3.0703 3.7773 4.7461 8.4961 4.7539 13.359 0 0.51953-0.019531 1.0117-0.027344 1.5234-12.988-14.105-31.805-21.973-45.164-26.051v0.003906c-2.9023-0.875-6.0508-0.32422-8.4844 1.4883-2.4297 1.8086-3.8633 4.668-3.8555 7.6992v110.17c-2.293-0.003906-4.5586-0.44922-6.6758-1.3164-9.4023-3.8945-17.895-9.6914-24.953-17.02-2.0859-2.2188-5.5273-2.4609-7.9023-0.55469-1.1797 1.0078-1.8867 2.457-1.9609 4.0078-0.078125 1.5469 0.48828 3.0586 1.5625 4.1797 8.2188 8.5859 18.145 15.359 29.137 19.883 6.918 2.8203 14.664 2.8203 21.578 0 19.172-8.0312 34.867-22.605 44.293-41.129-5.707 37.773-30.75 51.059-46.203 55.695-5.2812 1.5938-8.8906 6.4688-8.875 11.988v8.6094c-3.8398-0.011719-7.6484-0.66016-11.273-1.918-25.598-10.258-84.422-45.68-83.91-153.97v-0.003906c7.9375 5.8242 16.895 10.109 26.414 12.629z"/>
  <path d="m291.21 143.23c-2.9375-1.0664-5.9688-1.8711-9.0508-2.3984-3.0508-0.4375-5.8867 1.6523-6.375 4.6953-0.48437 3.043 1.5586 5.9141 4.5938 6.4492 2.3359 0.41016 4.6367 1.0195 6.8711 1.8242 2.918 1.0938 6.1719-0.38672 7.2656-3.3047 1.0938-2.918-0.38672-6.1719-3.3047-7.2656z"/>
  <path d="m146.29 439.38c0-2.2969-1.3867-4.3711-3.5117-5.25-2.125-0.88281-4.5703-0.39453-6.1953 1.2305s-2.1133 4.0703-1.2344 6.1953c0.88281 2.125 2.9531 3.5117 5.2539 3.5117 3.1406 0 5.6875-2.5469 5.6875-5.6875z"/>
  <use x="70" y="584.707031" xlink:href="#v"/>
  <use x="76.042969" y="584.707031" xlink:href="#d"/>
  <use x="80.105469" y="584.707031" xlink:href="#a"/>
  <use x="85.691406" y="584.707031" xlink:href="#e"/>
  <use x="91.246094" y="584.707031" xlink:href="#c"/>
  <use x="95.183594" y="584.707031" xlink:href="#a"/>
  <use x="100.769531" y="584.707031" xlink:href="#k"/>
  <use x="109.53125" y="584.707031" xlink:href="#j"/>
  <use x="115.425781" y="584.707031" xlink:href="#i"/>
  <use x="123.664062" y="584.707031" xlink:href="#h"/>
  <use x="131.855469" y="584.707031" xlink:href="#e"/>
  <use x="137.414062" y="584.707031" xlink:href="#u"/>
  <use x="142.726562" y="584.707031" xlink:href="#t"/>
  <use x="145.550781" y="584.707031" xlink:href="#g"/>
  <use x="150.429688" y="584.707031" xlink:href="#b"/>
  <use x="156.089844" y="584.707031" xlink:href="#f"/>
  <use x="161.953125" y="584.707031" xlink:href="#s"/>
  <use x="70" y="592.941406" xlink:href="#r"/>
  <use x="73.582031" y="592.941406" xlink:href="#d"/>
  <use x="77.644531" y="592.941406" xlink:href="#b"/>
  <use x="83.300781" y="592.941406" xlink:href="#q"/>
  <use x="94.75" y="592.941406" xlink:href="#c"/>
  <use x="98.6875" y="592.941406" xlink:href="#p"/>
  <use x="104.550781" y="592.941406" xlink:href="#a"/>
  <use x="113.003906" y="592.941406" xlink:href="#o"/>
  <use x="119.894531" y="592.941406" xlink:href="#b"/>
  <use x="125.550781" y="592.941406" xlink:href="#n"/>
  <use x="131.414063" y="592.941406" xlink:href="#f"/>
  <use x="140.144531" y="592.941406" xlink:href="#m"/>
  <use x="146.179688" y="592.941406" xlink:href="#d"/>
  <use x="150.242188" y="592.941406" xlink:href="#b"/>
  <use x="155.898438" y="592.941406" xlink:href="#l"/>
  <use x="158.722656" y="592.941406" xlink:href="#a"/>
  <use x="164.308594" y="592.941406" xlink:href="#g"/>
  <use x="169.1875" y="592.941406" xlink:href="#c"/>
 </g>
</svg>
