<?xml version="1.0" encoding="UTF-8"?>
<svg width="700pt" height="700pt" version="1.1" viewBox="0 0 700 700" xmlns="http://www.w3.org/2000/svg">
 <path d="m577.5 367.5h-46.898l-8.0859-17.5h19.984c24.113 0 43.75-19.617 43.75-43.75 0-22.242-16.676-40.637-38.168-43.383l-14.332-28.684v-85.434c0-4.8281-3.9219-8.75-8.75-8.75h-385c-4.8281 0-8.75 3.9219-8.75 8.75v34.562l-17.465 174.56c-0.035156 0.26172 0.085938 0.50781 0.070313 0.76953 0 0.64844-0.070313 1.2969 0.070312 1.9609 8.4531 38.922 18.234 55.527 32.727 55.527 20.125 0 32.445-38.57 36.785-55.16 0.015625-0.070312 0-0.15625 0.015625-0.22656 0.085937-0.38672 0.050781-0.80469 0.10547-1.207 0.070312-0.71875 0.10547-1.418 0-2.1172-0.015625-0.12109 0.035156-0.24609 0-0.36719l-32.883-164.55h239.49l-80.766 175h-116.9c-4.8281 0-8.75 3.9219-8.75 8.75v35c0 4.8281 3.9219 8.75 8.75 8.75h385c4.8281 0 8.75-3.9219 8.75-8.75v-35c0-4.8281-3.9219-8.75-8.75-8.75zm-146.95-175 41.074 88.988c-4.8828 7.0703-7.875 15.539-7.875 24.762 0 22.609 17.289 41.02 39.289 43.297l8.2773 17.953h-82.566v-175zm85.699 41.684-14.332 28.684c-6.125 0.78906-11.777 2.957-16.836 6.0039l-35.246-76.371h66.414zm-34.684 68.863 11.602 25.148c-7.1758-4.6914-11.934-12.758-11.934-21.945 0.015625-1.1016 0.20703-2.1367 0.33203-3.2031zm60.934-23.047c14.473 0 26.25 11.777 26.25 26.25s-11.777 26.25-26.25 26.25h-28.051l-22.016-47.688c4.2852-3.0117 9.4492-4.8125 15.066-4.8125 3.3086 0 6.3359-1.8711 7.8242-4.8281l9.6758-19.355 9.6758 19.336c1.4883 2.9766 4.5156 4.8477 7.8242 4.8477zm-26.25-105h-74.496l-8.0664-17.5h82.562zm-369.48 223.55c-0.96094-0.61328-4.3594-3.5352-8.7656-16.102 5.6172 2.2031 12.371 3.0117 18.691 1.5586-3.6953 7.8398-7.3711 13.457-9.9258 14.543zm3.1133-31.258c-7.4883 0-14.648-6.8086-18.324-11.234l11.324-113.24 22.766 113.8c-5.2305 6.9492-10.531 10.676-15.766 10.676zm-1.1367-192.29v-17.5h257.57l-8.0664 17.5zm260.7 17.5h1.8008v175h-82.566zm159.3 210h-367.5v-17.5h367.5z"/>
</svg>
