<svg xmlns="http://www.w3.org/2000/svg" xmlns:xlink="http://www.w3.org/1999/xlink" version="1.1" x="0px" y="0px" viewBox="0 0 216 270" style="enable-background:new 0 0 216 216;" xml:space="preserve"><title>Greek_Trireme</title><path d="M74.6,145.7c-3.4-0.3-6.8-0.4-10.1-0.5c-3.6-0.1-7.2-0.2-10.8-0.2c-0.4,0-0.8,0-1.2,0l0.9-3.7c1.4,0.1,2.8,0.2,4.2,0.3  c1.8,0.1,3.5,0.2,5.3,0.1c0.5-0.1,0.9-0.3,1.3-0.6c0.2-0.1,0.3-0.4,0.5-0.5c1.4-1.1,1.5-2.5,1.2-4.1c-0.2-0.9-0.4-1.8-0.6-2.7  c-0.4-1.6-2-2-3.1-2.9c-1.9-1.7-3.9-3.2-5.8-4.9c-0.8-0.7-1.6-1.5-2.3-2.4c-0.8-0.9-1.5-5.4-1.5-6.5c0-1.3,0.1-2.7,0.4-4  c0.2-1.3,0.7-2.5,1-3.9l2.5,0.9c0.3,0.1,0.7,0.3,1,0.3c0.6,0.1,0.9,0.4,0.7,1c-0.3,1.1-0.6,2.2-0.8,3.4c-0.3,1.3-0.1,2.7,0.6,3.8  c0.9,1.2,1.9,2.4,2.9,3.6c0.2,0.2,0.5,0.3,0.8,0.4c0.6,0.3,1.3,0.6,2,0.8c0.2,0.1,0.5,0.1,0.7,0.1l3.9,0.7c3.3,0.5,6.7,0.7,10,0.8  c0.6,0,1.3,0,1.9,0.1c1.8,0.1,10,0.7,11.6,0.8s7.2,0.2,7.2,0.1c2.2,0,4.4,0,6.7,0c1.8,0,43.5,1.5,46.1-0.7c2.6-2.5,2.2-6.5,0.4-10.6  c-1.5-3-5.1-6.1-6.2-6.3c-0.7-0.2-4.2,0.5-4.8,0.1c1.9-6.6,3.3-11.3,3.2-11.9c0,0,1.6,1.5,2.2,2.3c1,1.2,2.2,2.4,3.3,3.6  c0.7,0.6,9.2,9.6,9.9,11.3c0.4,1.3,0.8,2.6,1,4c0.2,1,0.4,2,0.6,3c0.6,2.5,0.6,5.2-0.2,7.6c-0.5,1.5-7.9,17.6-17.7,18.1  C142.7,146.6,76.2,145.8,74.6,145.7z M77.4,128c-2-0.2-4,0.2-5.7,1.2c-1,0.7-2.8,4.9-2.9,4.9c1,0.8,2,1.7,3.1,2.5  c0.7,0.5,1.5,0.8,2.4,1c2.4,0.3,3.8,0.4,5.9-0.8c1.6-1.2,3.3-2.3,5.1-3.4c0.3-0.1,0.4-0.4,0.3-0.7c0-0.1-0.1-0.2-0.2-0.2  C82.7,130.8,80.1,129.3,77.4,128z"/><path d="M120.5,95.1c-0.4,0.5-0.8,0.8-1,1.1c-0.2,0.2-0.4,0.5-0.6,0.7c-2.1,3.9-3.1,8.2-3,12.5c0,0.8,1.5,8.8,1.6,9.3  c-0.4,0.2-0.8,0.3-1.2,0.3c-3.5-0.1-7.1-0.1-10.6-0.3c-2.7-0.2-10.6-0.8-11.9-0.9s-2.6-0.3-3.9-0.4c-0.4,0-0.9,0-1.3-0.1  c-3.7-0.4-7.5-0.7-11.2-1.2c-2-0.2-4.1-0.6-6.1-0.9c-0.8-0.1-1.7-0.1-2.5-0.1c-0.2-1.4-0.8-6.5-0.8-7.9c-0.1-1.6,0-3.3,0.3-4.9  c0.4-2.4,0.9-4.9,1.6-7.3c0.5-1.6,1.2-3.1,2.1-4.6c0.8-1.4,3.2-4.8,3.3-5.2l7.4,1.8c3.1,0.8,6.1,1.6,9.3,2.3c4,0.9,8,1.8,12,2.7  c1.4,0.3,12.4,2.8,14.1,3.1C118.8,95.1,119.7,95.1,120.5,95.1z"/><path d="M124.8,94c-2-0.4-7.3-1.4-7.5-1.5c-1.8-0.4-3.6-0.7-5.4-1.1c-1.5-0.3-2.9-0.7-4.4-1c-3.3-0.7-6.6-1.4-9.8-2.1  c-2.1-0.5-4.1-1.1-6.2-1.6s-4.1-1-6.2-1.5c-3-0.8-6-1.7-9-2.4c-2.3-0.6-4.7-1-7.1-1.4c-0.7-0.1,3-3.6,2.5-4.9c0-0.1,0-0.2,0.1-0.2  c2.8,0.6,5.4,1.2,8.1,1.7s5.1,1.1,7.6,1.7s5.2,1.4,7.9,2.1s5.1,1.2,7.7,1.8c2.6,0.6,5.1,1.3,7.7,2c2.5,0.8,5,1.5,7.5,2.1  c0-0.1,9.4,2.1,9.2,2.5C126.8,91.1,125,93.7,124.8,94z"/><path d="M92,118.9c1.2,0.2,2.8,0.1,4,0.2s0,2.7,0,5c-2.8,0-5.1-0.4-4.7-0.2C91.2,121.3,91.6,122.4,92,118.9z"/><path d="M96.6,68.6c1.1,0.3,2.2,0.4,3.3,0.4c-0.1,2.6-0.3,5-0.3,7.4c0,1.4,0.2,2.8,0.2,4.3c0,0.2-0.2,0.3-0.3,0.5  c-1.3-0.4-2.6-0.8-3.8-1.2c-0.2-0.1-0.4-0.2-0.3-0.3c0.3-1.8,0.6-3.6,0.8-5.4S96.5,70.5,96.6,68.6z"/><path d="M72.4,131.4c0.1-0.9,0.7-1.7,1.5-2.2c1.1-0.4,2.2-0.4,3.3,0.1c0.6,0,1.1,0.6,1.1,1.2c0.3,1.3,0.2,2.6-0.2,3.9  c-0.2,0.6-0.7,1-1.2,1.2c-0.8,0.4-1.7,0.6-2.7,0.6C72,136.1,71.5,134,72.4,131.4z"/><text x="0" y="231" fill="#000000" font-size="5px" font-weight="bold" font-family="'Helvetica Neue', Helvetica, Arial-Unicode, Arial, Sans-serif"></text><text x="0" y="236" fill="#000000" font-size="5px" font-weight="bold" font-family="'Helvetica Neue', Helvetica, Arial-Unicode, Arial, Sans-serif"></text></svg>