<svg xmlns="http://www.w3.org/2000/svg" xmlns:xlink="http://www.w3.org/1999/xlink" version="1.1" x="0px" y="0px" viewBox="0 0 100 125" enable-background="new 0 0 100 100" xml:space="preserve"><g><polygon points="55.6,79.8 58,78.7 58,82.1 55.6,83.3 55.6,90.5 65.7,85.5 65.7,67.5 55.6,72.3  "/><polygon points="35.2,65.6 35.2,86.9 45.7,71  "/><polygon points="22.5,81.7 33.6,87.7 33.6,64.8 22.5,59.1  "/><polygon points="20.8,79.3 20.8,58.3 15,55.3  "/><polygon points="22.5,56.4 33.6,62.1 33.6,43.3 22.5,37.9  "/><polygon points="13,76.5 18.6,79.6 13,56.4  "/><polygon points="65.8,5 65.8,5 65.8,5.8  "/><path d="M91.2,41.9L76.6,12.5c-2.1-4.2-6.3-6.7-10.8-6.7c-1.4,0-2.8,0.2-4.1,0.7l-27,7.6c-5,1.8-9.2,5.1-12.1,9.5L10.5,44   c-0.7,1.1-1.2,2.3-1.6,3.6l-0.6,2.1c-0.3,1,0.5,1.8,1.3,1.8c0.4,0,0.8-0.2,1.1-0.5l15.1-20.5c0.5-0.7,1.3-1,2-1   c0.9,0,1.8,0.4,2.2,1.3l17,31.2c0.9,1.6,2.7,2.6,4.4,2.6c0.7,0,1.4-0.1,2-0.4l35.2-15.3C91.4,47.5,92.5,44.4,91.2,41.9z"/><polygon points="46.8,95 46.8,73.4 36.3,89.3  "/><path d="M51.5,66c-1.1,0-2.2-0.3-3.1-0.8v28.9l5.5-2.8V71.8c0-0.3,0.2-0.6,0.5-0.7l11.7-5.6c0.3-0.1,0.6-0.1,0.8,0   c0.2,0.2,0.4,0.4,0.4,0.7v18.5l20.6-10.2V50.8L54.2,65.5C53.4,65.8,52.5,66,51.5,66z M77.8,61.8l2.2-1v3.8l-2.2,1V61.8z M77.8,67.2   l2.2-1v3.5l-2.2,1.1V67.2z M74.3,63.5l2.2-1v3.8l-2.2,1V63.5z M74.3,68.9l2.2-1v3.6l-2.2,1.1V68.9z M72.4,75.1l10.1-5.2v3.4   l-10.1,5.3V75.1z"/><polygon points="13,51.6 20.8,55.6 20.8,39.8 13,50.5  "/><path d="M45.6,62.6l-10-18.2l-0.5-0.2v18.8l11.5,5.9v-4.7C46.3,63.6,46,63.1,45.6,62.6C45.6,62.6,45.6,62.6,45.6,62.6z"/><path d="M27.8,30.9c-0.2,0-0.5,0-0.7,0.4l-3.3,4.5l9.8,5.1v-0.4l-5-9.1C28.4,31,28,30.9,27.8,30.9z"/></g><text x="0" y="115" fill="#000000" font-size="5px" font-weight="bold" font-family="'Helvetica Neue', Helvetica, Arial-Unicode, Arial, Sans-serif"></text><text x="0" y="120" fill="#000000" font-size="5px" font-weight="bold" font-family="'Helvetica Neue', Helvetica, Arial-Unicode, Arial, Sans-serif"></text></svg>