<svg xmlns:dc="http://purl.org/dc/elements/1.1/" xmlns:cc="http://creativecommons.org/ns#" xmlns:rdf="http://www.w3.org/1999/02/22-rdf-syntax-ns#" xmlns:svg="http://www.w3.org/2000/svg" xmlns="http://www.w3.org/2000/svg" xmlns:sodipodi="http://sodipodi.sourceforge.net/DTD/sodipodi-0.dtd" xmlns:inkscape="http://www.inkscape.org/namespaces/inkscape" version="1.1" x="0px" y="0px" viewBox="0 0 100 125"><g transform="translate(0,-952.36218)"><g transform="translate(7.994095,960.35628)"><path d="m 12.011811,0 c 16.972441,13.003937 31.996063,28.027559 45,45 C 55.984251,31.996063 52.015748,22.003937 41.988189,12.011811 34.015748,2.019685 19.984252,0 12.011811,0 z m 71.999999,4.003937 -13.003937,13.003937 5.988189,22.003937 -9.992126,1.984252 -3.011811,14.031496 13.003937,6.980314 -8.007874,9.992126 6.023622,8.007874 -16.015748,-4.996063 3.011811,-8.007874 -13.996062,-5.988188 2.976378,-14.988189 -19.984252,9.992126 0,14.988188 -20.019685,-4.996063 -5.9881891,18 79.0157471,0 z M 39.543307,6.6614173 C 42.484252,9.4960629 45.46063,12.57874 47.976378,15.69685 49.570866,12.826772 48.259842,10.700787 46.559055,8.7519684 44.645669,6.7322834 41.846456,5.031496 39.543307,6.6614173 z M 31.570866,19.417323 0,49.996063 4.9960629,55.027559 36.106299,23.917323 c -1.523622,-1.523622 -3.011811,-3.011811 -4.535433,-4.5 z M 59.988188,21.011811 61.015748,36 66.01181,21.011811 z M 36,35.007874 l -3.507874,5.988189 16.511811,1.027559 z" style="" fill="#000000" fill-opacity="1" fill-rule="nonzero" stroke="none"/></g></g><text x="0" y="115" fill="#000000" font-size="5px" font-weight="bold" font-family="'Helvetica Neue', Helvetica, Arial-Unicode, Arial, Sans-serif"></text><text x="0" y="120" fill="#000000" font-size="5px" font-weight="bold" font-family="'Helvetica Neue', Helvetica, Arial-Unicode, Arial, Sans-serif"></text></svg>