<svg xmlns="http://www.w3.org/2000/svg" viewBox="0 0 64 80" x="0px" y="0px"><title>muscle-diet-nutrition-fitness-healthy</title><g><path d="M41.358,21.77,26.575,10.928,13.948,8.015l-7.177.9-2.562,8.54,9.716,4.416,7.545-4.715a1,1,0,0,1,1.17.079l6,5a1.052,1.052,0,0,1,.224.265l7,12a1,1,0,0,1-1.5,1.273l-3.788-3.157A6.963,6.963,0,0,0,26.12,31H23.385a6.923,6.923,0,0,0-6.457,4.371,1,1,0,0,1-1.785.144A9.346,9.346,0,0,0,7.169,31H4V53.1L29.881,55.98l27.346-9.766,2.6-6.944ZM32.8,47.6a1,1,0,0,1-.8.4H19V46H31.5l2.7-3.6,1.6,1.2Zm9.4-14-6-8,1.6-1.2,6,8Z"/></g></svg>