<svg xmlns="http://www.w3.org/2000/svg" xmlns:xlink="http://www.w3.org/1999/xlink" xml:space="preserve" version="1.1" style="shape-rendering:geometricPrecision;text-rendering:geometricPrecision;image-rendering:optimizeQuality;" viewBox="0 0 0.524 0.655" x="0px" y="0px" fill-rule="evenodd" clip-rule="evenodd"><defs><style type="text/css">
   
    .fil0 {fill:black;fill-rule:nonzero}
   
  </style></defs><g><path class="fil0" d="M0.047 0.051l0.037 -0.046c0.004,-0.006 0.012,-0.007 0.017,-0.002 0.001,0 0.002,0.001 0.002,0.002l0.038 0.046c0.001,0.003 0.002,0.005 0.002,0.008l0 0.078 0.069 0 0 -0.078c0,-0.003 0.001,-0.006 0.003,-0.008l0.037 -0.046c0.005,-0.006 0.012,-0.007 0.018,-0.002 0,0 0.001,0.001 0.002,0.002l0.037 0.046c0.002,0.003 0.003,0.005 0.003,0.008l0 0.078 0.068 0 0 -0.078c0,-0.003 0.002,-0.006 0.004,-0.008l0.037 -0.046c0.004,-0.006 0.012,-0.007 0.017,-0.002 0.001,0 0.002,0.001 0.002,0.002l0.037 0.046c0.002,0.003 0.003,0.005 0.003,0.008l0 0.078 0.044 0 0 0.025 -0.044 0 0 0.025 0.044 0 0 0.025 -0.044 0 0 0.15 0.044 0 0 0.025 -0.044 0 0 0.025 0.044 0 0 0.024 -0.044 0 0 0.075c0,0.007 -0.005,0.013 -0.012,0.013l-0.075 0c-0.007,0 -0.013,-0.006 -0.013,-0.013l0 -0.075 -0.068 0 0 0.075c0,0.007 -0.006,0.013 -0.013,0.013l-0.075 0c-0.006,0 -0.012,-0.006 -0.012,-0.013l0 -0.075 -0.069 0 0 0.075c0,0.007 -0.005,0.013 -0.012,0.013l-0.075 0c-0.007,0 -0.012,-0.006 -0.012,-0.013l0 -0.075 -0.044 0 0 -0.024 0.044 0 0 -0.025 -0.044 0 0 -0.025 0.044 0 0 -0.15 -0.044 0 0 -0.025 0.044 0 0 -0.025 -0.044 0 0 -0.025 0.044 0 0 -0.078c0,-0.003 0.001,-0.006 0.003,-0.008zm0.096 0.161l0 0.15 0.069 0 0 -0.15 -0.069 0zm0.069 -0.025l0 -0.025 -0.069 0 0 0.025 0.069 0zm0.1 0.025l0 0.15 0.068 0 0 -0.15 -0.068 0zm0.068 -0.025l0 -0.025 -0.068 0 0 0.025 0.068 0zm-0.168 0.2l-0.069 0 0 0.025 0.069 0 0 -0.025zm0.168 0l-0.068 0 0 0.025 0.068 0 0 -0.025zm-0.118 -0.355l-0.025 0.031 0 0.087 0 0.05 0 0.174 0 0.05 0 0.075 0.05 0 0 -0.075 0 -0.05 0 -0.174 0 -0.05 0 -0.087 -0.025 -0.031zm0.168 0l-0.025 0.031 0 0.087 0 0.05 0 0.174 0 0.05 0 0.075 0.05 0 0 -0.075 0 -0.05 0 -0.174 0 -0.05 0 -0.087 -0.025 -0.031zm-0.336 0l-0.025 0.031 0 0.087 0 0.05 0 0.174 0 0.05 0 0.075 0.049 0 0 -0.075 0 -0.05 0 -0.174 0 -0.05 0 -0.087 -0.024 -0.031z"/></g><text x="0" y="15.524000000000001" fill="#000000" font-size="5px" font-weight="bold" font-family="'Helvetica Neue', Helvetica, Arial-Unicode, Arial, Sans-serif">Created by Deemak Daksina</text><text x="0" y="20.524" fill="#000000" font-size="5px" font-weight="bold" font-family="'Helvetica Neue', Helvetica, Arial-Unicode, Arial, Sans-serif">from the Noun Project</text></svg>